%TF.GenerationSoftware,KiCad,Pcbnew,9.0.7*%
%TF.CreationDate,2026-09-28T17:22:57+02:00*%
%TF.ProjectId,main,6d61696e-2e6b-4696-9361-645f70636258,I*%
%TF.SameCoordinates,Original*%
%TF.FileFunction,Copper,L4,Bot*%
%TF.FilePolarity,Positive*%
%FSLAX46Y46*%
G04 Gerber Fmt 4.6, Leading zero omitted, Abs format (unit mm)*
G04 Created by KiCad (PCBNEW 9.0.7) date 2026-09-28 17:22:57*
%MOMM*%
%LPD*%
G01*
G04 APERTURE LIST*
%TA.AperFunction,ComponentPad*%
%ADD10C,1.100000*%
%TD*%
%TA.AperFunction,ViaPad*%
%ADD11C,0.600000*%
%TD*%
%TA.AperFunction,ViaPad*%
%ADD12C,0.480000*%
%TD*%
%TA.AperFunction,Conductor*%
%ADD13C,0.300000*%
%TD*%
%TA.AperFunction,Conductor*%
%ADD14C,0.200000*%
%TD*%
%TA.AperFunction,Conductor*%
%ADD15C,0.150000*%
%TD*%
G04 APERTURE END LIST*
D10*
%TO.P,J5,1*%
%TO.N,/SYS_5V*%
X15600000Y19100000D03*
%TO.P,J5,2*%
%TO.N,/GND*%
X15600000Y17830000D03*
%TO.P,J5,3*%
%TO.N,/+3V3*%
X15600000Y16560000D03*
%TO.P,J5,4*%
%TO.N,/UART_TX_MCU*%
X15600000Y15290000D03*
%TO.P,J5,5*%
%TO.N,/UART_RX_MCU*%
X15600000Y14020000D03*
%TD*%
D11*
%TO.N,/UART_RX_MCU*%
X20930800Y14704400D03*
X15775100Y1404000D03*
%TO.N,/+3V3*%
X7825000Y15581900D03*
X11600000Y1819800D03*
X6288100Y4359600D03*
X3156400Y2115100D03*
X34278000Y12128000D03*
%TO.N,/GND*%
X9677000Y1499000D03*
X2353000Y4921000D03*
X2075000Y18046000D03*
X26344000Y6210000D03*
X35190000Y14685000D03*
X14503000Y10202000D03*
%TO.N,/SD_D1*%
X12445000Y15574900D03*
X8084100Y4640900D03*
X18713800Y17206300D03*
%TO.N,/SD_D2*%
X4728300Y15590000D03*
X15124900Y11902300D03*
X10018300Y4571900D03*
%TO.N,/SD_D3*%
X15734000Y11205500D03*
X5873000Y15590000D03*
X11819800Y4553400D03*
%TO.N,/SD_CMD*%
X6846400Y15432600D03*
X33904400Y3893800D03*
X9803500Y2539800D03*
D12*
%TO.N,/SD_D0*%
X10050000Y850000D03*
D11*
X11125000Y15585600D03*
X33907200Y6246500D03*
%TO.N,/SD_CLK_MCU*%
X32013000Y7658000D03*
X5470000Y4945000D03*
%TO.N,/SYS_5V*%
X23545000Y6558000D03*
%TO.N,/SD_CLK*%
X9487000Y15466000D03*
X4799000Y4037000D03*
%TD*%
D13*
%TO.N,/+3V3*%
X8100000Y15600000D02*
X8200000Y15700000D01*
X9100000Y16050000D02*
X9150000Y16050000D01*
X10800000Y16200000D02*
X10850000Y16200000D01*
X9300000Y16100000D02*
X9350000Y16150000D01*
X7800000Y15600000D02*
X8100000Y15600000D01*
X9200000Y16100000D02*
X9300000Y16100000D01*
X8800000Y15750000D02*
X9100000Y16050000D01*
X8550000Y15700000D02*
X8600000Y15750000D01*
X13600000Y16250000D02*
X13800000Y16450000D01*
X9150000Y16050000D02*
X9200000Y16100000D01*
X15600000Y16550000D02*
X15600000Y16560000D01*
X15500000Y16450000D02*
X15600000Y16550000D01*
X8600000Y15750000D02*
X8800000Y15750000D01*
X9350000Y16150000D02*
X10750000Y16150000D01*
X13800000Y16450000D02*
X15500000Y16450000D01*
X7825000Y15581900D02*
X7800000Y15600000D01*
X8200000Y15700000D02*
X8550000Y15700000D01*
X10900000Y16250000D02*
X13600000Y16250000D01*
X10850000Y16200000D02*
X10900000Y16250000D01*
X10750000Y16150000D02*
X10800000Y16200000D01*
D14*
%TO.N,/SD_D2*%
X10018300Y6795700D02*
X10018300Y4571900D01*
X15124900Y11902300D02*
X10018300Y6795700D01*
%TO.N,/SD_D3*%
X11819800Y4553400D02*
X15734000Y8467600D01*
X15734000Y8467600D02*
X15734000Y11205500D01*
D15*
%TO.N,/SD_D0*%
X10350000Y2300000D02*
X10400000Y2350000D01*
X10400000Y3150000D02*
X9900000Y3650000D01*
X9600000Y6650000D02*
X9600000Y14100000D01*
X10300000Y2150000D02*
X10300000Y2200000D01*
X9400000Y6450000D02*
X9600000Y6650000D01*
X9500000Y4250000D02*
X9450000Y4300000D01*
X9500000Y4200000D02*
X9500000Y4250000D01*
X9450000Y4450000D02*
X9400000Y4500000D01*
X10050000Y850000D02*
X10050000Y1000000D01*
X9600000Y14100000D02*
X11100000Y15600000D01*
X10300000Y2200000D02*
X10350000Y2250000D01*
X10400000Y2350000D02*
X10400000Y3150000D01*
X10200000Y1150000D02*
X10200000Y1200000D01*
X9900000Y3800000D02*
X9500000Y4200000D01*
X10050000Y1000000D02*
X10200000Y1150000D01*
X10250000Y1250000D02*
X10250000Y2100000D01*
X10200000Y1200000D02*
X10250000Y1250000D01*
X9400000Y4500000D02*
X9400000Y6450000D01*
X10250000Y2100000D02*
X10300000Y2150000D01*
X11100000Y15600000D02*
X11125000Y15585600D01*
X10350000Y2250000D02*
X10350000Y2300000D01*
X9900000Y3650000D02*
X9900000Y3800000D01*
X9450000Y4300000D02*
X9450000Y4450000D01*
%TD*%
%TA.AperFunction,Conductor*%
%TO.N,/GND*%
G36*
X35943039Y20780315D02*
G01*
X35988794Y20727511D01*
X36000000Y20676000D01*
X36000000Y424000D01*
X35980315Y356961D01*
X35927511Y311206D01*
X35876000Y300000D01*
X10341147Y300000D01*
X10274108Y319685D01*
X10228353Y372489D01*
X10218409Y441647D01*
X10247434Y505203D01*
X10279146Y531387D01*
X10289773Y537522D01*
X10362478Y610227D01*
X10413888Y699272D01*
X10440500Y798590D01*
X10440500Y901410D01*
X10413888Y1000728D01*
X10413886Y1000732D01*
X10412498Y1005912D01*
X10414161Y1075762D01*
X10421555Y1093842D01*
X10430514Y1111609D01*
X10441170Y1122264D01*
X10463682Y1176614D01*
X10475501Y1205146D01*
X10475501Y1294855D01*
X10475501Y1304844D01*
X10475500Y1304858D01*
X10475500Y1879109D01*
X11149500Y1879109D01*
X11149500Y1760491D01*
X11180201Y1645914D01*
X11239511Y1543187D01*
X11323387Y1459311D01*
X11426114Y1400001D01*
X11540691Y1369300D01*
X11540694Y1369300D01*
X11659306Y1369300D01*
X11659309Y1369300D01*
X11773886Y1400001D01*
X11876613Y1459311D01*
X11880611Y1463309D01*
X15324600Y1463309D01*
X15324600Y1344691D01*
X15355301Y1230114D01*
X15414611Y1127387D01*
X15498487Y1043511D01*
X15601214Y984201D01*
X15715791Y953500D01*
X15715794Y953500D01*
X15834406Y953500D01*
X15834409Y953500D01*
X15948986Y984201D01*
X16051713Y1043511D01*
X16135589Y1127387D01*
X16194899Y1230114D01*
X16225600Y1344691D01*
X16225600Y1463309D01*
X16194899Y1577886D01*
X16135589Y1680613D01*
X16051713Y1764489D01*
X15948986Y1823799D01*
X15834409Y1854500D01*
X15715791Y1854500D01*
X15601214Y1823799D01*
X15601212Y1823799D01*
X15601212Y1823798D01*
X15498487Y1764489D01*
X15498484Y1764487D01*
X15414613Y1680616D01*
X15414611Y1680613D01*
X15355301Y1577886D01*
X15324600Y1463309D01*
X11880611Y1463309D01*
X11960489Y1543187D01*
X12019799Y1645914D01*
X12050500Y1760491D01*
X12050500Y1879109D01*
X12019799Y1993686D01*
X11960489Y2096413D01*
X11876613Y2180289D01*
X11773886Y2239599D01*
X11659309Y2270300D01*
X11540691Y2270300D01*
X11426114Y2239599D01*
X11426112Y2239599D01*
X11426112Y2239598D01*
X11323387Y2180289D01*
X11323384Y2180287D01*
X11239513Y2096416D01*
X11239511Y2096413D01*
X11187654Y2006594D01*
X11180201Y1993686D01*
X11149500Y1879109D01*
X10475500Y1879109D01*
X10475500Y1961197D01*
X10489725Y2009642D01*
X10486496Y2010979D01*
X10506315Y2058828D01*
X10506316Y2058829D01*
X10517087Y2084833D01*
X10535029Y2111684D01*
X10534387Y2112113D01*
X10541167Y2122262D01*
X10541170Y2122264D01*
X10556316Y2158830D01*
X10567087Y2184833D01*
X10585027Y2211681D01*
X10584385Y2212110D01*
X10591166Y2222261D01*
X10591170Y2222264D01*
X10618807Y2288986D01*
X10625501Y2305146D01*
X10625501Y2394855D01*
X10625501Y2404844D01*
X10625500Y2404858D01*
X10625500Y3079228D01*
X10625500Y3105143D01*
X10625501Y3105145D01*
X10625501Y3194854D01*
X10591170Y3277735D01*
X10591170Y3277736D01*
X10527736Y3341170D01*
X10520671Y3348235D01*
X10520664Y3348241D01*
X10161819Y3707086D01*
X10128608Y3767179D01*
X10125500Y3780799D01*
X10125500Y3844855D01*
X10092947Y3923445D01*
X10092946Y3923451D01*
X10091172Y3927733D01*
X10091170Y3927736D01*
X10087434Y3931472D01*
X10075619Y3953109D01*
X33453900Y3953109D01*
X33453900Y3834491D01*
X33484601Y3719914D01*
X33543911Y3617187D01*
X33627787Y3533311D01*
X33730514Y3474001D01*
X33845091Y3443300D01*
X33845094Y3443300D01*
X33963706Y3443300D01*
X33963709Y3443300D01*
X34078286Y3474001D01*
X34181013Y3533311D01*
X34264889Y3617187D01*
X34324199Y3719914D01*
X34354900Y3834491D01*
X34354900Y3953109D01*
X34324199Y4067686D01*
X34264889Y4170413D01*
X34181013Y4254289D01*
X34078286Y4313599D01*
X33963709Y4344300D01*
X33845091Y4344300D01*
X33730514Y4313599D01*
X33730512Y4313599D01*
X33730512Y4313598D01*
X33627787Y4254289D01*
X33627784Y4254287D01*
X33543913Y4170416D01*
X33543911Y4170413D01*
X33487244Y4072263D01*
X33484601Y4067686D01*
X33453900Y3953109D01*
X10075619Y3953109D01*
X10053949Y3992795D01*
X10058933Y4062487D01*
X10100805Y4118420D01*
X10143019Y4138927D01*
X10192186Y4152101D01*
X10294913Y4211411D01*
X10378789Y4295287D01*
X10438099Y4398014D01*
X10468800Y4512591D01*
X10468800Y4631209D01*
X10438099Y4745786D01*
X10378789Y4848513D01*
X10305118Y4922184D01*
X10271634Y4983508D01*
X10268800Y5009865D01*
X10268800Y6640578D01*
X10288485Y6707617D01*
X10305114Y6728254D01*
X14992341Y11415482D01*
X15019268Y11430185D01*
X15045087Y11446777D01*
X15051287Y11447669D01*
X15053664Y11448966D01*
X15080022Y11451800D01*
X15172005Y11451800D01*
X15239044Y11432115D01*
X15284799Y11379311D01*
X15294743Y11310153D01*
X15291779Y11295705D01*
X15283500Y11264811D01*
X15283500Y11264809D01*
X15283500Y11146191D01*
X15314201Y11031614D01*
X15373511Y10928887D01*
X15373513Y10928885D01*
X15447181Y10855217D01*
X15480666Y10793894D01*
X15483500Y10767536D01*
X15483500Y8622724D01*
X15463815Y8555685D01*
X15447181Y8535043D01*
X11952357Y5040219D01*
X11891034Y5006734D01*
X11864676Y5003900D01*
X11760491Y5003900D01*
X11645914Y4973199D01*
X11645912Y4973199D01*
X11645912Y4973198D01*
X11543187Y4913889D01*
X11543184Y4913887D01*
X11459313Y4830016D01*
X11459311Y4830013D01*
X11437682Y4792550D01*
X11400001Y4727286D01*
X11369300Y4612709D01*
X11369300Y4494091D01*
X11400001Y4379514D01*
X11459311Y4276787D01*
X11543187Y4192911D01*
X11645914Y4133601D01*
X11760491Y4102900D01*
X11760494Y4102900D01*
X11879106Y4102900D01*
X11879109Y4102900D01*
X11993686Y4133601D01*
X12096413Y4192911D01*
X12180289Y4276787D01*
X12239599Y4379514D01*
X12270300Y4494091D01*
X12270300Y4598279D01*
X12289985Y4665318D01*
X12306614Y4685955D01*
X14237968Y6617309D01*
X23094500Y6617309D01*
X23094500Y6498691D01*
X23125201Y6384114D01*
X23184511Y6281387D01*
X23268387Y6197511D01*
X23371114Y6138201D01*
X23485691Y6107500D01*
X23485694Y6107500D01*
X23604306Y6107500D01*
X23604309Y6107500D01*
X23718886Y6138201D01*
X23821613Y6197511D01*
X23905489Y6281387D01*
X23919589Y6305809D01*
X33456700Y6305809D01*
X33456700Y6187191D01*
X33487401Y6072614D01*
X33546711Y5969887D01*
X33630587Y5886011D01*
X33733314Y5826701D01*
X33847891Y5796000D01*
X33847894Y5796000D01*
X33966506Y5796000D01*
X33966509Y5796000D01*
X34081086Y5826701D01*
X34183813Y5886011D01*
X34267689Y5969887D01*
X34326999Y6072614D01*
X34357700Y6187191D01*
X34357700Y6305809D01*
X34326999Y6420386D01*
X34267689Y6523113D01*
X34183813Y6606989D01*
X34081086Y6666299D01*
X33966509Y6697000D01*
X33847891Y6697000D01*
X33733314Y6666299D01*
X33733312Y6666299D01*
X33733312Y6666298D01*
X33630587Y6606989D01*
X33630584Y6606987D01*
X33546713Y6523116D01*
X33546711Y6523113D01*
X33487401Y6420386D01*
X33456700Y6305809D01*
X23919589Y6305809D01*
X23964799Y6384114D01*
X23995500Y6498691D01*
X23995500Y6617309D01*
X23964799Y6731886D01*
X23905489Y6834613D01*
X23821613Y6918489D01*
X23718886Y6977799D01*
X23604309Y7008500D01*
X23485691Y7008500D01*
X23371114Y6977799D01*
X23371112Y6977799D01*
X23371112Y6977798D01*
X23268387Y6918489D01*
X23268384Y6918487D01*
X23184513Y6834616D01*
X23184511Y6834613D01*
X23131852Y6743405D01*
X23125201Y6731886D01*
X23094500Y6617309D01*
X14237968Y6617309D01*
X15337968Y7717309D01*
X31562500Y7717309D01*
X31562500Y7598691D01*
X31593201Y7484114D01*
X31652511Y7381387D01*
X31736387Y7297511D01*
X31839114Y7238201D01*
X31953691Y7207500D01*
X31953694Y7207500D01*
X32072306Y7207500D01*
X32072309Y7207500D01*
X32186886Y7238201D01*
X32289613Y7297511D01*
X32373489Y7381387D01*
X32432799Y7484114D01*
X32463500Y7598691D01*
X32463500Y7717309D01*
X32432799Y7831886D01*
X32373489Y7934613D01*
X32289613Y8018489D01*
X32186886Y8077799D01*
X32072309Y8108500D01*
X31953691Y8108500D01*
X31839114Y8077799D01*
X31839112Y8077799D01*
X31839112Y8077798D01*
X31736387Y8018489D01*
X31736384Y8018487D01*
X31652513Y7934616D01*
X31652511Y7934613D01*
X31593201Y7831886D01*
X31562500Y7717309D01*
X15337968Y7717309D01*
X15875895Y8255236D01*
X15875897Y8255236D01*
X15946364Y8325703D01*
X15962160Y8363840D01*
X15984501Y8417773D01*
X15984501Y8517428D01*
X15984501Y8527417D01*
X15984500Y8527431D01*
X15984500Y10767536D01*
X16004185Y10834575D01*
X16020819Y10855217D01*
X16094489Y10928887D01*
X16153799Y11031614D01*
X16184500Y11146191D01*
X16184500Y11264809D01*
X16153799Y11379386D01*
X16094489Y11482113D01*
X16010613Y11565989D01*
X15907886Y11625299D01*
X15793309Y11656000D01*
X15686895Y11656000D01*
X15619856Y11675685D01*
X15574101Y11728489D01*
X15564157Y11797647D01*
X15567121Y11812095D01*
X15567596Y11813866D01*
X15575400Y11842991D01*
X15575400Y11961609D01*
X15544699Y12076186D01*
X15544697Y12076190D01*
X15511646Y12133436D01*
X15511645Y12133438D01*
X15485393Y12178907D01*
X15485390Y12178910D01*
X15485389Y12178913D01*
X15476993Y12187309D01*
X33827500Y12187309D01*
X33827500Y12068691D01*
X33858201Y11954114D01*
X33917511Y11851387D01*
X34001387Y11767511D01*
X34104114Y11708201D01*
X34218691Y11677500D01*
X34218694Y11677500D01*
X34337306Y11677500D01*
X34337309Y11677500D01*
X34451886Y11708201D01*
X34554613Y11767511D01*
X34638489Y11851387D01*
X34697799Y11954114D01*
X34728500Y12068691D01*
X34728500Y12187309D01*
X34697799Y12301886D01*
X34638489Y12404613D01*
X34554613Y12488489D01*
X34451886Y12547799D01*
X34337309Y12578500D01*
X34218691Y12578500D01*
X34104114Y12547799D01*
X34104112Y12547799D01*
X34104112Y12547798D01*
X34001387Y12488489D01*
X34001384Y12488487D01*
X33917513Y12404616D01*
X33917511Y12404613D01*
X33869871Y12322098D01*
X33858201Y12301886D01*
X33827500Y12187309D01*
X15476993Y12187309D01*
X15401513Y12262789D01*
X15298786Y12322099D01*
X15184209Y12352800D01*
X15065591Y12352800D01*
X14951014Y12322099D01*
X14951012Y12322099D01*
X14951012Y12322098D01*
X14848287Y12262789D01*
X14848284Y12262787D01*
X14764413Y12178916D01*
X14764411Y12178913D01*
X14705101Y12076186D01*
X14674400Y11961609D01*
X14674400Y11961607D01*
X14674400Y11857424D01*
X14654715Y11790385D01*
X14638081Y11769743D01*
X10037181Y7168843D01*
X9975858Y7135358D01*
X9906166Y7140342D01*
X9850233Y7182214D01*
X9825816Y7247678D01*
X9825500Y7256524D01*
X9825500Y13955233D01*
X9845185Y14022272D01*
X9861819Y14042914D01*
X10393585Y14574680D01*
X10926986Y15108082D01*
X10988307Y15141565D01*
X11046758Y15140174D01*
X11065691Y15135100D01*
X11065693Y15135100D01*
X11184306Y15135100D01*
X11184309Y15135100D01*
X11298886Y15165801D01*
X11401613Y15225111D01*
X11485489Y15308987D01*
X11544799Y15411714D01*
X11575500Y15526291D01*
X11575500Y15644909D01*
X11544799Y15759486D01*
X11542481Y15763500D01*
X11526009Y15831399D01*
X11548861Y15897426D01*
X11603782Y15940617D01*
X11649869Y15949500D01*
X11926309Y15949500D01*
X11993348Y15929815D01*
X12039103Y15877011D01*
X12049047Y15807853D01*
X12033695Y15763498D01*
X12025202Y15748789D01*
X12025201Y15748787D01*
X12025201Y15748786D01*
X11994500Y15634209D01*
X11994500Y15515591D01*
X12025201Y15401014D01*
X12084511Y15298287D01*
X12168387Y15214411D01*
X12271114Y15155101D01*
X12385691Y15124400D01*
X12385694Y15124400D01*
X12504306Y15124400D01*
X12504309Y15124400D01*
X12618886Y15155101D01*
X12721613Y15214411D01*
X12805489Y15298287D01*
X12864799Y15401014D01*
X12895500Y15515591D01*
X12895500Y15634209D01*
X12864799Y15748786D01*
X12856305Y15763498D01*
X12839831Y15831398D01*
X12862682Y15897425D01*
X12917603Y15940617D01*
X12963691Y15949500D01*
X13639560Y15949500D01*
X13639562Y15949500D01*
X13715989Y15969979D01*
X13784511Y16009540D01*
X13840460Y16065489D01*
X13888152Y16113181D01*
X13949475Y16146666D01*
X13975833Y16149500D01*
X14968481Y16149500D01*
X14997921Y16140856D01*
X15027908Y16134332D01*
X15032923Y16130578D01*
X15035520Y16129815D01*
X15056162Y16113181D01*
X15156662Y16012681D01*
X15190147Y15951358D01*
X15185163Y15881666D01*
X15156662Y15837319D01*
X15055888Y15736546D01*
X15055885Y15736542D01*
X14979228Y15621818D01*
X14979221Y15621805D01*
X14926421Y15494333D01*
X14926418Y15494323D01*
X14899500Y15358996D01*
X14899500Y15358993D01*
X14899500Y15221007D01*
X14899500Y15221005D01*
X14899499Y15221005D01*
X14926418Y15085678D01*
X14926421Y15085668D01*
X14979221Y14958196D01*
X14979228Y14958183D01*
X15055885Y14843459D01*
X15055888Y14843455D01*
X15156662Y14742681D01*
X15190147Y14681358D01*
X15185163Y14611666D01*
X15156662Y14567319D01*
X15055888Y14466546D01*
X15055885Y14466542D01*
X14979228Y14351818D01*
X14979221Y14351805D01*
X14926421Y14224333D01*
X14926418Y14224323D01*
X14899500Y14088996D01*
X14899500Y14088993D01*
X14899500Y13951007D01*
X14899500Y13951005D01*
X14899499Y13951005D01*
X14926418Y13815678D01*
X14926421Y13815668D01*
X14979221Y13688196D01*
X14979228Y13688183D01*
X15055885Y13573459D01*
X15055888Y13573455D01*
X15153454Y13475889D01*
X15153458Y13475886D01*
X15268182Y13399229D01*
X15268195Y13399222D01*
X15395667Y13346422D01*
X15395672Y13346420D01*
X15395676Y13346420D01*
X15395677Y13346419D01*
X15531004Y13319500D01*
X15531007Y13319500D01*
X15668995Y13319500D01*
X15760041Y13337611D01*
X15804328Y13346420D01*
X15931811Y13399225D01*
X16046542Y13475886D01*
X16144114Y13573458D01*
X16220775Y13688189D01*
X16273580Y13815672D01*
X16300500Y13951007D01*
X16300500Y14088993D01*
X16300500Y14088996D01*
X16273581Y14224323D01*
X16273580Y14224324D01*
X16273580Y14224328D01*
X16248614Y14284601D01*
X16220778Y14351805D01*
X16220771Y14351818D01*
X16144114Y14466542D01*
X16144111Y14466546D01*
X16043338Y14567319D01*
X16039318Y14574680D01*
X16032549Y14579636D01*
X16022820Y14604894D01*
X16009853Y14628642D01*
X16010451Y14637009D01*
X16007436Y14644837D01*
X16012906Y14671341D01*
X16014837Y14698334D01*
X16020231Y14706827D01*
X16021560Y14713264D01*
X16040996Y14739518D01*
X16042409Y14741742D01*
X16046321Y14745739D01*
X16046542Y14745886D01*
X16064365Y14763709D01*
X20480300Y14763709D01*
X20480300Y14645091D01*
X20511001Y14530514D01*
X20570311Y14427787D01*
X20654187Y14343911D01*
X20756914Y14284601D01*
X20871491Y14253900D01*
X20871494Y14253900D01*
X20990106Y14253900D01*
X20990109Y14253900D01*
X21104686Y14284601D01*
X21207413Y14343911D01*
X21291289Y14427787D01*
X21350599Y14530514D01*
X21381300Y14645091D01*
X21381300Y14763709D01*
X21350599Y14878286D01*
X21291289Y14981013D01*
X21207413Y15064889D01*
X21104686Y15124199D01*
X20990109Y15154900D01*
X20871491Y15154900D01*
X20756914Y15124199D01*
X20756912Y15124199D01*
X20756912Y15124198D01*
X20654187Y15064889D01*
X20654184Y15064887D01*
X20570313Y14981016D01*
X20570311Y14981013D01*
X20511001Y14878286D01*
X20480300Y14763709D01*
X16064365Y14763709D01*
X16144114Y14843458D01*
X16220775Y14958189D01*
X16273580Y15085672D01*
X16284698Y15141565D01*
X16300500Y15221005D01*
X16300500Y15358996D01*
X16273581Y15494323D01*
X16273580Y15494324D01*
X16273580Y15494328D01*
X16264773Y15515591D01*
X16220778Y15621805D01*
X16220771Y15621818D01*
X16144114Y15736542D01*
X16144111Y15736546D01*
X16043338Y15837319D01*
X16009853Y15898642D01*
X16014837Y15968334D01*
X16043338Y16012681D01*
X16144111Y16113455D01*
X16144114Y16113458D01*
X16220775Y16228189D01*
X16273580Y16355672D01*
X16294049Y16458575D01*
X16300500Y16491005D01*
X16300500Y16628996D01*
X16273581Y16764323D01*
X16273580Y16764324D01*
X16273580Y16764328D01*
X16273578Y16764333D01*
X16220778Y16891805D01*
X16220771Y16891818D01*
X16144114Y17006542D01*
X16144111Y17006546D01*
X16046545Y17104112D01*
X16046541Y17104115D01*
X15946989Y17170634D01*
X15931817Y17180772D01*
X15931804Y17180779D01*
X15804332Y17233579D01*
X15804322Y17233582D01*
X15668995Y17260500D01*
X15668993Y17260500D01*
X15531007Y17260500D01*
X15531005Y17260500D01*
X15395677Y17233582D01*
X15395667Y17233579D01*
X15268195Y17180779D01*
X15268182Y17180772D01*
X15153458Y17104115D01*
X15153454Y17104112D01*
X15055888Y17006546D01*
X15055885Y17006542D01*
X14979228Y16891818D01*
X14979221Y16891805D01*
X14952399Y16827048D01*
X14908558Y16772644D01*
X14842264Y16750579D01*
X14837838Y16750500D01*
X13760438Y16750500D01*
X13684010Y16730022D01*
X13615489Y16690460D01*
X13615486Y16690458D01*
X13511848Y16586819D01*
X13450525Y16553334D01*
X13424167Y16550500D01*
X10939562Y16550500D01*
X10860438Y16550500D01*
X10784012Y16530022D01*
X10784011Y16530022D01*
X10784009Y16530021D01*
X10784008Y16530021D01*
X10723150Y16494884D01*
X10712184Y16489260D01*
X10702985Y16485107D01*
X10684012Y16480022D01*
X10656311Y16464029D01*
X10650687Y16461489D01*
X10629787Y16458575D01*
X10599653Y16450500D01*
X9389562Y16450500D01*
X9310438Y16450500D01*
X9234012Y16430022D01*
X9234011Y16430022D01*
X9234009Y16430021D01*
X9234006Y16430020D01*
X9210864Y16416659D01*
X9193153Y16408225D01*
X9172950Y16400500D01*
X9160438Y16400500D01*
X9084012Y16380022D01*
X9015489Y16340460D01*
X9015216Y16340188D01*
X9005436Y16336448D01*
X9002155Y16336187D01*
X8993250Y16332497D01*
X8984013Y16330022D01*
X8984006Y16330019D01*
X8948538Y16309541D01*
X8915492Y16290463D01*
X8915487Y16290459D01*
X8711848Y16086819D01*
X8651122Y16053465D01*
X8637808Y16050500D01*
X8560438Y16050500D01*
X8484012Y16030022D01*
X8445177Y16007601D01*
X8426607Y16003465D01*
X8413879Y16004313D01*
X8399652Y16000500D01*
X8160438Y16000500D01*
X8101125Y15984608D01*
X8031279Y15986270D01*
X8007032Y15996996D01*
X7998888Y16001698D01*
X7998887Y16001699D01*
X7998886Y16001699D01*
X7884309Y16032400D01*
X7765691Y16032400D01*
X7651114Y16001699D01*
X7651112Y16001699D01*
X7651112Y16001698D01*
X7548387Y15942389D01*
X7548384Y15942387D01*
X7464513Y15858516D01*
X7464511Y15858513D01*
X7405196Y15755778D01*
X7404490Y15754073D01*
X7403509Y15752857D01*
X7401137Y15748747D01*
X7400495Y15749118D01*
X7360646Y15699672D01*
X7294351Y15677611D01*
X7226653Y15694894D01*
X7202251Y15713851D01*
X7123015Y15793087D01*
X7123013Y15793089D01*
X7020286Y15852399D01*
X6905709Y15883100D01*
X6787091Y15883100D01*
X6672514Y15852399D01*
X6672512Y15852399D01*
X6672512Y15852398D01*
X6569787Y15793089D01*
X6496597Y15719899D01*
X6435273Y15686415D01*
X6365582Y15691400D01*
X6309648Y15733271D01*
X6294352Y15760136D01*
X6292799Y15763886D01*
X6285221Y15777011D01*
X6233489Y15866613D01*
X6149613Y15950489D01*
X6046886Y16009799D01*
X5932309Y16040500D01*
X5813691Y16040500D01*
X5699114Y16009799D01*
X5699112Y16009799D01*
X5699112Y16009798D01*
X5596387Y15950489D01*
X5596384Y15950487D01*
X5512513Y15866616D01*
X5512511Y15866613D01*
X5470062Y15793089D01*
X5453201Y15763886D01*
X5422500Y15649309D01*
X5422500Y15530691D01*
X5453201Y15416114D01*
X5512511Y15313387D01*
X5596387Y15229511D01*
X5699114Y15170201D01*
X5813691Y15139500D01*
X5813694Y15139500D01*
X5932306Y15139500D01*
X5932309Y15139500D01*
X6046886Y15170201D01*
X6149613Y15229511D01*
X6222805Y15302704D01*
X6284124Y15336186D01*
X6353816Y15331202D01*
X6409750Y15289331D01*
X6425045Y15262470D01*
X6426599Y15258717D01*
X6445399Y15226155D01*
X6485911Y15155987D01*
X6569787Y15072111D01*
X6672514Y15012801D01*
X6787091Y14982100D01*
X6787094Y14982100D01*
X6905706Y14982100D01*
X6905709Y14982100D01*
X7020286Y15012801D01*
X7123013Y15072111D01*
X7206889Y15155987D01*
X7266199Y15258714D01*
X7266202Y15258726D01*
X7266902Y15260413D01*
X7267882Y15261630D01*
X7270263Y15265753D01*
X7270905Y15265382D01*
X7310739Y15314820D01*
X7377032Y15336890D01*
X7444733Y15319615D01*
X7469148Y15300650D01*
X7548387Y15221411D01*
X7651114Y15162101D01*
X7765691Y15131400D01*
X7765694Y15131400D01*
X7884306Y15131400D01*
X7884309Y15131400D01*
X7998886Y15162101D01*
X8101613Y15221411D01*
X8171563Y15291361D01*
X8194208Y15309256D01*
X8208248Y15317906D01*
X8215989Y15319979D01*
X8284511Y15359540D01*
X8298426Y15373456D01*
X8310797Y15381076D01*
X8331049Y15386605D01*
X8349475Y15396666D01*
X8375833Y15399500D01*
X8589560Y15399500D01*
X8589562Y15399500D01*
X8665989Y15419979D01*
X8688346Y15432888D01*
X8697932Y15436007D01*
X8703069Y15440133D01*
X8722359Y15443956D01*
X8737280Y15448810D01*
X8743791Y15449500D01*
X8760438Y15449500D01*
X8839562Y15449500D01*
X8902215Y15466289D01*
X8911857Y15467310D01*
X8937064Y15462723D01*
X8962678Y15462113D01*
X8970868Y15456570D01*
X8980597Y15454799D01*
X8999320Y15437314D01*
X9020541Y15422952D01*
X9025965Y15412432D01*
X9031662Y15407111D01*
X9034522Y15395834D01*
X9044697Y15376097D01*
X9067201Y15292114D01*
X9126511Y15189387D01*
X9210387Y15105511D01*
X9313114Y15046201D01*
X9427691Y15015500D01*
X9427694Y15015500D01*
X9546306Y15015500D01*
X9546309Y15015500D01*
X9660886Y15046201D01*
X9763613Y15105511D01*
X9847489Y15189387D01*
X9906799Y15292114D01*
X9937500Y15406691D01*
X9937500Y15525309D01*
X9906799Y15639886D01*
X9901359Y15649309D01*
X9893166Y15663500D01*
X9876693Y15731400D01*
X9899545Y15797427D01*
X9954467Y15840618D01*
X10000553Y15849500D01*
X10567720Y15849500D01*
X10634759Y15829815D01*
X10680514Y15777011D01*
X10691161Y15713739D01*
X10690177Y15703419D01*
X10674500Y15644909D01*
X10674500Y15538875D01*
X10673941Y15533008D01*
X10663063Y15505822D01*
X10654815Y15477730D01*
X10648874Y15470359D01*
X10647986Y15468137D01*
X10645869Y15466630D01*
X10638181Y15457088D01*
X9472265Y14291171D01*
X9408829Y14227736D01*
X9398774Y14203463D01*
X9398774Y14203461D01*
X9388719Y14179187D01*
X9374499Y14144857D01*
X9374499Y14040712D01*
X9374500Y14040703D01*
X9374500Y6794768D01*
X9354815Y6727729D01*
X9338181Y6707087D01*
X9208830Y6577737D01*
X9208830Y6577735D01*
X9174499Y6494856D01*
X9174499Y6390712D01*
X9174500Y6390703D01*
X9174500Y4544858D01*
X9174499Y4544855D01*
X9174499Y4455145D01*
X9195210Y4405145D01*
X9200953Y4391279D01*
X9200954Y4391277D01*
X9213504Y4360980D01*
X9210032Y4359543D01*
X9224479Y4313430D01*
X9224499Y4311199D01*
X9224499Y4255145D01*
X9242615Y4211411D01*
X9258830Y4172264D01*
X9269328Y4161766D01*
X9278085Y4145125D01*
X9278969Y4140735D01*
X9282909Y4134839D01*
X9288475Y4121403D01*
X9288476Y4121400D01*
X9308828Y4072267D01*
X9308831Y4072263D01*
X9389700Y3991394D01*
X9389706Y3991389D01*
X9638180Y3742915D01*
X9671665Y3681592D01*
X9672691Y3676332D01*
X9674499Y3665861D01*
X9674499Y3605145D01*
X9687193Y3574500D01*
X9708830Y3522264D01*
X9708831Y3522263D01*
X9789700Y3441394D01*
X9789706Y3441389D01*
X10051917Y3179178D01*
X10085402Y3117855D01*
X10080418Y3048163D01*
X10038546Y2992230D01*
X9973082Y2967813D01*
X9932143Y2971722D01*
X9913096Y2976826D01*
X9862809Y2990300D01*
X9744191Y2990300D01*
X9629614Y2959599D01*
X9629612Y2959599D01*
X9629612Y2959598D01*
X9526887Y2900289D01*
X9526884Y2900287D01*
X9443013Y2816416D01*
X9443011Y2816413D01*
X9383701Y2713686D01*
X9353000Y2599109D01*
X9353000Y2480491D01*
X9383701Y2365914D01*
X9443011Y2263187D01*
X9526887Y2179311D01*
X9629614Y2120001D01*
X9744191Y2089300D01*
X9744194Y2089300D01*
X9862807Y2089300D01*
X9862809Y2089300D01*
X9868403Y2090799D01*
X9938251Y2089140D01*
X9996115Y2049980D01*
X10023622Y1985752D01*
X10024500Y1971026D01*
X10024500Y1390232D01*
X10022873Y1382056D01*
X10023790Y1376977D01*
X10015061Y1342779D01*
X10008830Y1327736D01*
X10008829Y1327733D01*
X9992862Y1289188D01*
X9949019Y1234786D01*
X9910399Y1216870D01*
X9899272Y1213889D01*
X9899268Y1213887D01*
X9810230Y1162481D01*
X9810225Y1162477D01*
X9737523Y1089775D01*
X9737519Y1089770D01*
X9686113Y1000731D01*
X9686112Y1000728D01*
X9659500Y901410D01*
X9659500Y798591D01*
X9686112Y699273D01*
X9686113Y699270D01*
X9737519Y610231D01*
X9737521Y610228D01*
X9737522Y610227D01*
X9810227Y537522D01*
X9820852Y531388D01*
X9869068Y480822D01*
X9882292Y412215D01*
X9856325Y347350D01*
X9799411Y306820D01*
X9758853Y300000D01*
X424000Y300000D01*
X356961Y319685D01*
X311206Y372489D01*
X300000Y424000D01*
X300000Y2174409D01*
X2705900Y2174409D01*
X2705900Y2055791D01*
X2736601Y1941214D01*
X2795911Y1838487D01*
X2879787Y1754611D01*
X2982514Y1695301D01*
X3097091Y1664600D01*
X3097094Y1664600D01*
X3215706Y1664600D01*
X3215709Y1664600D01*
X3330286Y1695301D01*
X3433013Y1754611D01*
X3516889Y1838487D01*
X3576199Y1941214D01*
X3606900Y2055791D01*
X3606900Y2174409D01*
X3576199Y2288986D01*
X3516889Y2391713D01*
X3433013Y2475589D01*
X3330286Y2534899D01*
X3215709Y2565600D01*
X3097091Y2565600D01*
X2982514Y2534899D01*
X2982512Y2534899D01*
X2982512Y2534898D01*
X2879787Y2475589D01*
X2879784Y2475587D01*
X2795913Y2391716D01*
X2795911Y2391713D01*
X2736601Y2288986D01*
X2705900Y2174409D01*
X300000Y2174409D01*
X300000Y4096309D01*
X4348500Y4096309D01*
X4348500Y3977691D01*
X4379201Y3863114D01*
X4438511Y3760387D01*
X4522387Y3676511D01*
X4625114Y3617201D01*
X4739691Y3586500D01*
X4739694Y3586500D01*
X4858306Y3586500D01*
X4858309Y3586500D01*
X4972886Y3617201D01*
X5075613Y3676511D01*
X5159489Y3760387D01*
X5218799Y3863114D01*
X5249500Y3977691D01*
X5249500Y4096309D01*
X5218799Y4210886D01*
X5159489Y4313613D01*
X5075613Y4397489D01*
X4974683Y4455762D01*
X4974677Y4455766D01*
X4972888Y4456798D01*
X4972887Y4456799D01*
X4972886Y4456799D01*
X4858309Y4487500D01*
X4739691Y4487500D01*
X4625114Y4456799D01*
X4625112Y4456799D01*
X4625112Y4456798D01*
X4522387Y4397489D01*
X4522384Y4397487D01*
X4438513Y4313616D01*
X4438511Y4313613D01*
X4379201Y4210886D01*
X4348500Y4096309D01*
X300000Y4096309D01*
X300000Y5004309D01*
X5019500Y5004309D01*
X5019500Y4885691D01*
X5050201Y4771114D01*
X5109511Y4668387D01*
X5193387Y4584511D01*
X5294322Y4526236D01*
X5294327Y4526232D01*
X5296108Y4525204D01*
X5296109Y4525203D01*
X5296111Y4525203D01*
X5296114Y4525201D01*
X5410691Y4494500D01*
X5410694Y4494500D01*
X5529306Y4494500D01*
X5529309Y4494500D01*
X5643886Y4525201D01*
X5651595Y4529653D01*
X5719494Y4546128D01*
X5785522Y4523279D01*
X5828715Y4468360D01*
X5837600Y4422268D01*
X5837600Y4418909D01*
X5837600Y4300291D01*
X5868301Y4185714D01*
X5927611Y4082987D01*
X6011487Y3999111D01*
X6114214Y3939801D01*
X6228791Y3909100D01*
X6228794Y3909100D01*
X6347406Y3909100D01*
X6347409Y3909100D01*
X6461986Y3939801D01*
X6564713Y3999111D01*
X6648589Y4082987D01*
X6707899Y4185714D01*
X6738600Y4300291D01*
X6738600Y4418909D01*
X6707899Y4533486D01*
X6648589Y4636213D01*
X6584593Y4700209D01*
X7633600Y4700209D01*
X7633600Y4581591D01*
X7664301Y4467014D01*
X7723611Y4364287D01*
X7807487Y4280411D01*
X7910214Y4221101D01*
X8024791Y4190400D01*
X8024794Y4190400D01*
X8143406Y4190400D01*
X8143409Y4190400D01*
X8257986Y4221101D01*
X8360713Y4280411D01*
X8444589Y4364287D01*
X8503899Y4467014D01*
X8534600Y4581591D01*
X8534600Y4700209D01*
X8503899Y4814786D01*
X8444589Y4917513D01*
X8360713Y5001389D01*
X8257986Y5060699D01*
X8143409Y5091400D01*
X8024791Y5091400D01*
X7910214Y5060699D01*
X7910212Y5060699D01*
X7910212Y5060698D01*
X7807487Y5001389D01*
X7807484Y5001387D01*
X7723613Y4917516D01*
X7723611Y4917513D01*
X7664301Y4814786D01*
X7633600Y4700209D01*
X6584593Y4700209D01*
X6564713Y4720089D01*
X6461986Y4779399D01*
X6347409Y4810100D01*
X6228791Y4810100D01*
X6123605Y4781916D01*
X6114210Y4779398D01*
X6106500Y4774946D01*
X6038599Y4758473D01*
X5972573Y4781326D01*
X5929382Y4836247D01*
X5920500Y4882333D01*
X5920500Y5004307D01*
X5920500Y5004309D01*
X5889799Y5118886D01*
X5830489Y5221613D01*
X5746613Y5305489D01*
X5643886Y5364799D01*
X5529309Y5395500D01*
X5410691Y5395500D01*
X5296114Y5364799D01*
X5296112Y5364799D01*
X5296112Y5364798D01*
X5193387Y5305489D01*
X5193384Y5305487D01*
X5109513Y5221616D01*
X5109511Y5221613D01*
X5050201Y5118886D01*
X5019500Y5004309D01*
X300000Y5004309D01*
X300000Y15649309D01*
X4277800Y15649309D01*
X4277800Y15530691D01*
X4308501Y15416114D01*
X4367811Y15313387D01*
X4451687Y15229511D01*
X4554414Y15170201D01*
X4668991Y15139500D01*
X4668994Y15139500D01*
X4787606Y15139500D01*
X4787609Y15139500D01*
X4902186Y15170201D01*
X5004913Y15229511D01*
X5088789Y15313387D01*
X5148099Y15416114D01*
X5178800Y15530691D01*
X5178800Y15649309D01*
X5148099Y15763886D01*
X5088789Y15866613D01*
X5004913Y15950489D01*
X4902186Y16009799D01*
X4787609Y16040500D01*
X4668991Y16040500D01*
X4554414Y16009799D01*
X4554412Y16009799D01*
X4554412Y16009798D01*
X4451687Y15950489D01*
X4451684Y15950487D01*
X4367813Y15866616D01*
X4367811Y15866613D01*
X4325362Y15793089D01*
X4308501Y15763886D01*
X4277800Y15649309D01*
X300000Y15649309D01*
X300000Y17265609D01*
X18263300Y17265609D01*
X18263300Y17146991D01*
X18294001Y17032414D01*
X18353311Y16929687D01*
X18437187Y16845811D01*
X18539914Y16786501D01*
X18654491Y16755800D01*
X18654494Y16755800D01*
X18773106Y16755800D01*
X18773109Y16755800D01*
X18887686Y16786501D01*
X18990413Y16845811D01*
X19074289Y16929687D01*
X19133599Y17032414D01*
X19164300Y17146991D01*
X19164300Y17265609D01*
X19133599Y17380186D01*
X19074289Y17482913D01*
X18990413Y17566789D01*
X18887686Y17626099D01*
X18773109Y17656800D01*
X18654491Y17656800D01*
X18539914Y17626099D01*
X18539912Y17626099D01*
X18539912Y17626098D01*
X18437187Y17566789D01*
X18437184Y17566787D01*
X18353313Y17482916D01*
X18353311Y17482913D01*
X18294001Y17380186D01*
X18263300Y17265609D01*
X300000Y17265609D01*
X300000Y19031005D01*
X14899499Y19031005D01*
X14926418Y18895678D01*
X14926421Y18895668D01*
X14979221Y18768196D01*
X14979228Y18768183D01*
X15055885Y18653459D01*
X15055888Y18653455D01*
X15153454Y18555889D01*
X15153458Y18555886D01*
X15268182Y18479229D01*
X15268195Y18479222D01*
X15395667Y18426422D01*
X15395672Y18426420D01*
X15395676Y18426420D01*
X15395677Y18426419D01*
X15531004Y18399500D01*
X15531007Y18399500D01*
X15668995Y18399500D01*
X15760041Y18417611D01*
X15804328Y18426420D01*
X15931811Y18479225D01*
X16046542Y18555886D01*
X16144114Y18653458D01*
X16220775Y18768189D01*
X16273580Y18895672D01*
X16300500Y19031007D01*
X16300500Y19168993D01*
X16300500Y19168996D01*
X16273581Y19304323D01*
X16273580Y19304324D01*
X16273580Y19304328D01*
X16273578Y19304333D01*
X16220778Y19431805D01*
X16220771Y19431818D01*
X16144114Y19546542D01*
X16144111Y19546546D01*
X16046545Y19644112D01*
X16046541Y19644115D01*
X15931817Y19720772D01*
X15931804Y19720779D01*
X15804332Y19773579D01*
X15804322Y19773582D01*
X15668995Y19800500D01*
X15668993Y19800500D01*
X15531007Y19800500D01*
X15531005Y19800500D01*
X15395677Y19773582D01*
X15395667Y19773579D01*
X15268195Y19720779D01*
X15268182Y19720772D01*
X15153458Y19644115D01*
X15153454Y19644112D01*
X15055888Y19546546D01*
X15055885Y19546542D01*
X14979228Y19431818D01*
X14979221Y19431805D01*
X14926421Y19304333D01*
X14926418Y19304323D01*
X14899500Y19168996D01*
X14899500Y19168993D01*
X14899500Y19031007D01*
X14899500Y19031005D01*
X14899499Y19031005D01*
X300000Y19031005D01*
X300000Y20676000D01*
X319685Y20743039D01*
X372489Y20788794D01*
X424000Y20800000D01*
X35876000Y20800000D01*
X35943039Y20780315D01*
G37*
%TD.AperFunction*%
%TD*%
M02*
