%TF.GenerationSoftware,KiCad,Pcbnew,9.0.7*%
%TF.CreationDate,2026-09-28T17:22:57+02:00*%
%TF.ProjectId,main,6d61696e-2e6b-4696-9361-645f70636258,I*%
%TF.SameCoordinates,Original*%
%TF.FileFunction,Copper,L2,Inr*%
%TF.FilePolarity,Positive*%
%FSLAX46Y46*%
G04 Gerber Fmt 4.6, Leading zero omitted, Abs format (unit mm)*
G04 Created by KiCad (PCBNEW 9.0.7) date 2026-09-28 17:22:57*
%MOMM*%
%LPD*%
G01*
G04 APERTURE LIST*
%TA.AperFunction,ComponentPad*%
%ADD10C,1.100000*%
%TD*%
%TA.AperFunction,ViaPad*%
%ADD11C,0.600000*%
%TD*%
%TA.AperFunction,ViaPad*%
%ADD12C,0.480000*%
%TD*%
%TA.AperFunction,Conductor*%
%ADD13C,0.200000*%
%TD*%
%TA.AperFunction,Conductor*%
%ADD14C,0.300000*%
%TD*%
%TA.AperFunction,Conductor*%
%ADD15C,0.150000*%
%TD*%
G04 APERTURE END LIST*
D10*
%TO.N,/SYS_5V*%
%TO.C,J5*%
X15600000Y19100000D03*
%TO.N,/GND*%
X15600000Y17830000D03*
%TO.N,/+3V3*%
X15600000Y16560000D03*
%TO.N,/UART_TX_MCU*%
X15600000Y15290000D03*
%TO.N,/UART_RX_MCU*%
X15600000Y14020000D03*
%TD*%
D11*
%TO.N,/UART_RX_MCU*%
X20930800Y14704400D03*
X15775100Y1404000D03*
%TO.N,/+3V3*%
X7825000Y15581900D03*
X11600000Y1819800D03*
X6288100Y4359600D03*
X3156400Y2115100D03*
X34278000Y12128000D03*
%TO.N,/GND*%
X9677000Y1499000D03*
X2353000Y4921000D03*
X2075000Y18046000D03*
X26344000Y6210000D03*
X35190000Y14685000D03*
X14503000Y10202000D03*
%TO.N,/SD_D1*%
X12445000Y15574900D03*
X8084100Y4640900D03*
X18713800Y17206300D03*
%TO.N,/SD_D2*%
X4728300Y15590000D03*
X15124900Y11902300D03*
X10018300Y4571900D03*
%TO.N,/SD_D3*%
X15734000Y11205500D03*
X5873000Y15590000D03*
X11819800Y4553400D03*
%TO.N,/SD_CMD*%
X6846400Y15432600D03*
X33904400Y3893800D03*
X9803500Y2539800D03*
D12*
%TO.N,/SD_D0*%
X10050000Y850000D03*
D11*
X11125000Y15585600D03*
X33907200Y6246500D03*
%TO.N,/SD_CLK_MCU*%
X32013000Y7658000D03*
X5470000Y4945000D03*
%TO.N,/SYS_5V*%
X23545000Y6558000D03*
%TO.N,/SD_CLK*%
X9487000Y15466000D03*
X4799000Y4037000D03*
%TD*%
D13*
%TO.N,/UART_RX_MCU*%
X15600000Y14020000D02*
X13918700Y12338700D01*
X13918700Y3260400D02*
X15775100Y1404000D01*
X13918700Y12338700D02*
X13918700Y3260400D01*
%TO.N,/SD_D1*%
X15261700Y19987700D02*
X15932400Y19987700D01*
X12445000Y9001800D02*
X12445000Y15574900D01*
X12445000Y15574900D02*
X12445000Y17171000D01*
X8084100Y4640900D02*
X12445000Y9001800D01*
X12445000Y17171000D02*
X15261700Y19987700D01*
X15932400Y19987700D02*
X18713800Y17206300D01*
%TO.N,/SD_CMD*%
X4213300Y3759500D02*
X4213300Y12799500D01*
X9803500Y2539800D02*
X5433000Y2539800D01*
X5433000Y2539800D02*
X4213300Y3759500D01*
X4213300Y12799500D02*
X6846400Y15432600D01*
D14*
%TO.N,/SYS_5V*%
X23545000Y11155000D02*
X23545000Y6558000D01*
X15600000Y19100000D02*
X23545000Y11155000D01*
D15*
%TO.N,/SD_CLK*%
X9487000Y15466000D02*
X4799000Y10778000D01*
X4799000Y10778000D02*
X4799000Y4037000D01*
%TD*%
%TA.AperFunction,Conductor*%
%TO.N,/GND*%
G36*
X35893039Y20730315D02*
G01*
X35938794Y20677511D01*
X35950000Y20626000D01*
X35950000Y474000D01*
X35930315Y406961D01*
X35877511Y361206D01*
X35826000Y350000D01*
X10472323Y350000D01*
X10405284Y369685D01*
X10359529Y422489D01*
X10349585Y491647D01*
X10378610Y555203D01*
X10384642Y561681D01*
X10402488Y579527D01*
X10460481Y679973D01*
X10490500Y792007D01*
X10490500Y907993D01*
X10460481Y1020027D01*
X10402488Y1120473D01*
X10320473Y1202488D01*
X10270250Y1231485D01*
X10220028Y1260481D01*
X10164010Y1275491D01*
X10107993Y1290500D01*
X9992007Y1290500D01*
X9879971Y1260481D01*
X9779527Y1202488D01*
X9779524Y1202486D01*
X9697514Y1120476D01*
X9697512Y1120473D01*
X9639519Y1020029D01*
X9609500Y907993D01*
X9609500Y792008D01*
X9639519Y679972D01*
X9668515Y629750D01*
X9697512Y579527D01*
X9697514Y579525D01*
X9715358Y561681D01*
X9748843Y500358D01*
X9743859Y430666D01*
X9701987Y374733D01*
X9636523Y350316D01*
X9627677Y350000D01*
X474000Y350000D01*
X406961Y369685D01*
X361206Y422489D01*
X350000Y474000D01*
X350000Y2180992D01*
X2655900Y2180992D01*
X2655900Y2049209D01*
X2690008Y1921913D01*
X2700062Y1904500D01*
X2755900Y1807786D01*
X2849086Y1714600D01*
X2963214Y1648708D01*
X3090508Y1614600D01*
X3090510Y1614600D01*
X3222290Y1614600D01*
X3222292Y1614600D01*
X3349586Y1648708D01*
X3463714Y1714600D01*
X3556900Y1807786D01*
X3601879Y1885692D01*
X11099500Y1885692D01*
X11099500Y1753908D01*
X11110912Y1711317D01*
X11133608Y1626613D01*
X11140544Y1614600D01*
X11199500Y1512486D01*
X11292686Y1419300D01*
X11406814Y1353408D01*
X11534108Y1319300D01*
X11534110Y1319300D01*
X11665890Y1319300D01*
X11665892Y1319300D01*
X11793186Y1353408D01*
X11907314Y1419300D01*
X12000500Y1512486D01*
X12066392Y1626614D01*
X12100500Y1753908D01*
X12100500Y1885692D01*
X12066392Y2012986D01*
X12000500Y2127114D01*
X11907314Y2220300D01*
X11838928Y2259783D01*
X11793187Y2286192D01*
X11710722Y2308288D01*
X11665892Y2320300D01*
X11534108Y2320300D01*
X11406812Y2286192D01*
X11292686Y2220300D01*
X11292683Y2220298D01*
X11199502Y2127117D01*
X11199500Y2127114D01*
X11133608Y2012988D01*
X11103994Y1902464D01*
X11099500Y1885692D01*
X3601879Y1885692D01*
X3622792Y1921914D01*
X3656900Y2049208D01*
X3656900Y2180992D01*
X3622792Y2308286D01*
X3556900Y2422414D01*
X3463714Y2515600D01*
X3406650Y2548546D01*
X3349587Y2581492D01*
X3259277Y2605690D01*
X3222292Y2615600D01*
X3090508Y2615600D01*
X2963212Y2581492D01*
X2849086Y2515600D01*
X2849083Y2515598D01*
X2755902Y2422417D01*
X2755900Y2422414D01*
X2690008Y2308288D01*
X2655900Y2180992D01*
X350000Y2180992D01*
X350000Y12839062D01*
X3912800Y12839062D01*
X3912800Y3719938D01*
X3933279Y3643511D01*
X3933280Y3643509D01*
X3933279Y3643509D01*
X3937324Y3636504D01*
X3937325Y3636503D01*
X3937327Y3636500D01*
X3972840Y3574989D01*
X5192540Y2355289D01*
X5248489Y2299340D01*
X5248491Y2299339D01*
X5248495Y2299336D01*
X5317004Y2259783D01*
X5317011Y2259779D01*
X5393438Y2239300D01*
X5472562Y2239300D01*
X9344824Y2239300D01*
X9411863Y2219615D01*
X9432505Y2202981D01*
X9496186Y2139300D01*
X9610314Y2073408D01*
X9737608Y2039300D01*
X9737610Y2039300D01*
X9869390Y2039300D01*
X9869392Y2039300D01*
X9996686Y2073408D01*
X10110814Y2139300D01*
X10204000Y2232486D01*
X10269892Y2346614D01*
X10304000Y2473908D01*
X10304000Y2605692D01*
X10269892Y2732986D01*
X10204000Y2847114D01*
X10110814Y2940300D01*
X10053750Y2973246D01*
X9996687Y3006192D01*
X9933039Y3023246D01*
X9869392Y3040300D01*
X9737608Y3040300D01*
X9610312Y3006192D01*
X9496186Y2940300D01*
X9496183Y2940298D01*
X9432505Y2876619D01*
X9371182Y2843134D01*
X9344824Y2840300D01*
X5608833Y2840300D01*
X5541794Y2859985D01*
X5521152Y2876619D01*
X5001834Y3395937D01*
X4968349Y3457260D01*
X4973333Y3526952D01*
X5015205Y3582885D01*
X5027515Y3591005D01*
X5040560Y3598538D01*
X5106314Y3636500D01*
X5199500Y3729686D01*
X5265392Y3843814D01*
X5299500Y3971108D01*
X5299500Y4102892D01*
X5265392Y4230186D01*
X5259495Y4240400D01*
X5243307Y4268439D01*
X5226834Y4336339D01*
X5249686Y4402366D01*
X5304607Y4445556D01*
X5374161Y4452198D01*
X5382765Y4450219D01*
X5404108Y4444500D01*
X5404110Y4444500D01*
X5535889Y4444500D01*
X5535892Y4444500D01*
X5631511Y4470121D01*
X5701356Y4468458D01*
X5759218Y4429296D01*
X5786723Y4365068D01*
X5787600Y4350346D01*
X5787600Y4293709D01*
X5821708Y4166413D01*
X5836727Y4140400D01*
X5887600Y4052286D01*
X5980786Y3959100D01*
X6094914Y3893208D01*
X6222208Y3859100D01*
X6222210Y3859100D01*
X6353990Y3859100D01*
X6353992Y3859100D01*
X6481286Y3893208D01*
X6595414Y3959100D01*
X6688600Y4052286D01*
X6754492Y4166414D01*
X6788600Y4293708D01*
X6788600Y4425492D01*
X6754492Y4552786D01*
X6688600Y4666914D01*
X6648722Y4706792D01*
X7583600Y4706792D01*
X7583600Y4575009D01*
X7617708Y4447713D01*
X7630538Y4425492D01*
X7683600Y4333586D01*
X7776786Y4240400D01*
X7890914Y4174508D01*
X8018208Y4140400D01*
X8018210Y4140400D01*
X8149990Y4140400D01*
X8149992Y4140400D01*
X8277286Y4174508D01*
X8391414Y4240400D01*
X8484600Y4333586D01*
X8550492Y4447714D01*
X8584600Y4575008D01*
X8584600Y4637792D01*
X9517800Y4637792D01*
X9517800Y4506008D01*
X9531235Y4455868D01*
X9551908Y4378713D01*
X9568286Y4350346D01*
X9617800Y4264586D01*
X9710986Y4171400D01*
X9825114Y4105508D01*
X9952408Y4071400D01*
X9952410Y4071400D01*
X10084190Y4071400D01*
X10084192Y4071400D01*
X10211486Y4105508D01*
X10325614Y4171400D01*
X10418800Y4264586D01*
X10484692Y4378714D01*
X10518800Y4506008D01*
X10518800Y4619292D01*
X11319300Y4619292D01*
X11319300Y4487508D01*
X11334898Y4429296D01*
X11353408Y4360213D01*
X11368783Y4333584D01*
X11419300Y4246086D01*
X11512486Y4152900D01*
X11626614Y4087008D01*
X11753908Y4052900D01*
X11753910Y4052900D01*
X11885690Y4052900D01*
X11885692Y4052900D01*
X12012986Y4087008D01*
X12127114Y4152900D01*
X12220300Y4246086D01*
X12286192Y4360214D01*
X12320300Y4487508D01*
X12320300Y4619292D01*
X12286192Y4746586D01*
X12220300Y4860714D01*
X12127114Y4953900D01*
X12028405Y5010890D01*
X12012987Y5019792D01*
X11943942Y5038292D01*
X11885692Y5053900D01*
X11753908Y5053900D01*
X11626612Y5019792D01*
X11512486Y4953900D01*
X11512483Y4953898D01*
X11419302Y4860717D01*
X11419300Y4860714D01*
X11353408Y4746588D01*
X11328310Y4652918D01*
X11319300Y4619292D01*
X10518800Y4619292D01*
X10518800Y4637792D01*
X10484692Y4765086D01*
X10418800Y4879214D01*
X10325614Y4972400D01*
X10243529Y5019792D01*
X10211487Y5038292D01*
X10147839Y5055346D01*
X10084192Y5072400D01*
X9952408Y5072400D01*
X9825112Y5038292D01*
X9710986Y4972400D01*
X9710983Y4972398D01*
X9617802Y4879217D01*
X9617800Y4879214D01*
X9551908Y4765088D01*
X9521853Y4652920D01*
X9517800Y4637792D01*
X8584600Y4637792D01*
X8584600Y4665068D01*
X8604285Y4732107D01*
X8620919Y4752749D01*
X10619358Y6751188D01*
X12685460Y8817289D01*
X12725021Y8885811D01*
X12745500Y8962238D01*
X12745500Y12378262D01*
X13618200Y12378262D01*
X13618200Y3220838D01*
X13631852Y3169887D01*
X13638679Y3144410D01*
X13638682Y3144405D01*
X13678235Y3075896D01*
X13678241Y3075888D01*
X15238281Y1515848D01*
X15271766Y1454525D01*
X15274600Y1428167D01*
X15274600Y1338109D01*
X15308708Y1210813D01*
X15313515Y1202488D01*
X15374600Y1096686D01*
X15467786Y1003500D01*
X15581914Y937608D01*
X15709208Y903500D01*
X15709210Y903500D01*
X15840990Y903500D01*
X15840992Y903500D01*
X15968286Y937608D01*
X16082414Y1003500D01*
X16175600Y1096686D01*
X16241492Y1210814D01*
X16275600Y1338108D01*
X16275600Y1469892D01*
X16241492Y1597186D01*
X16175600Y1711314D01*
X16082414Y1804500D01*
X16025350Y1837446D01*
X15968287Y1870392D01*
X15904639Y1887446D01*
X15840992Y1904500D01*
X15750933Y1904500D01*
X15683894Y1924185D01*
X15663252Y1940819D01*
X14255519Y3348552D01*
X14222034Y3409875D01*
X14219200Y3436233D01*
X14219200Y3959692D01*
X33403900Y3959692D01*
X33403900Y3827909D01*
X33438008Y3700613D01*
X33470954Y3643550D01*
X33503900Y3586486D01*
X33597086Y3493300D01*
X33711214Y3427408D01*
X33838508Y3393300D01*
X33838510Y3393300D01*
X33970290Y3393300D01*
X33970292Y3393300D01*
X34097586Y3427408D01*
X34211714Y3493300D01*
X34304900Y3586486D01*
X34370792Y3700614D01*
X34404900Y3827908D01*
X34404900Y3959692D01*
X34370792Y4086986D01*
X34304900Y4201114D01*
X34211714Y4294300D01*
X34138901Y4336339D01*
X34097587Y4360192D01*
X34028460Y4378714D01*
X33970292Y4394300D01*
X33838508Y4394300D01*
X33711212Y4360192D01*
X33597086Y4294300D01*
X33597083Y4294298D01*
X33503902Y4201117D01*
X33503900Y4201114D01*
X33438008Y4086988D01*
X33403900Y3959692D01*
X14219200Y3959692D01*
X14219200Y11968192D01*
X14624400Y11968192D01*
X14624400Y11836408D01*
X14628613Y11820686D01*
X14658508Y11709113D01*
X14674693Y11681081D01*
X14724400Y11594986D01*
X14817586Y11501800D01*
X14931714Y11435908D01*
X15059008Y11401800D01*
X15059010Y11401800D01*
X15109500Y11401800D01*
X15176539Y11382115D01*
X15222294Y11329311D01*
X15233500Y11277800D01*
X15233500Y11139609D01*
X15267608Y11012313D01*
X15269049Y11009818D01*
X15333500Y10898186D01*
X15426686Y10805000D01*
X15540814Y10739108D01*
X15668108Y10705000D01*
X15668110Y10705000D01*
X15799890Y10705000D01*
X15799892Y10705000D01*
X15927186Y10739108D01*
X16041314Y10805000D01*
X16134500Y10898186D01*
X16200392Y11012314D01*
X16234500Y11139608D01*
X16234500Y11271392D01*
X16200392Y11398686D01*
X16134500Y11512814D01*
X16041314Y11606000D01*
X15984250Y11638946D01*
X15927187Y11671892D01*
X15863539Y11688946D01*
X15799892Y11706000D01*
X15749400Y11706000D01*
X15682361Y11725685D01*
X15636606Y11778489D01*
X15625400Y11830000D01*
X15625400Y11968190D01*
X15625400Y11968192D01*
X15591292Y12095486D01*
X15525400Y12209614D01*
X15432214Y12302800D01*
X15375150Y12335746D01*
X15318087Y12368692D01*
X15254439Y12385746D01*
X15190792Y12402800D01*
X15059008Y12402800D01*
X14931712Y12368692D01*
X14817586Y12302800D01*
X14817583Y12302798D01*
X14724402Y12209617D01*
X14724400Y12209614D01*
X14658508Y12095488D01*
X14649564Y12062108D01*
X14624400Y11968192D01*
X14219200Y11968192D01*
X14219200Y12162868D01*
X14238885Y12229907D01*
X14255514Y12250545D01*
X15269350Y13264381D01*
X15330671Y13297864D01*
X15381221Y13298315D01*
X15526079Y13269500D01*
X15526082Y13269500D01*
X15673920Y13269500D01*
X15771462Y13288904D01*
X15818913Y13298342D01*
X15955495Y13354916D01*
X16078416Y13437049D01*
X16182951Y13541584D01*
X16265084Y13664505D01*
X16321658Y13801087D01*
X16350500Y13946082D01*
X16350500Y14093918D01*
X16350500Y14093921D01*
X16321659Y14238908D01*
X16321658Y14238909D01*
X16321658Y14238913D01*
X16294739Y14303901D01*
X16265087Y14375489D01*
X16265080Y14375502D01*
X16182951Y14498416D01*
X16182948Y14498420D01*
X16114049Y14567319D01*
X16080564Y14628642D01*
X16085548Y14698334D01*
X16114049Y14742681D01*
X16182948Y14811581D01*
X16182951Y14811584D01*
X16265084Y14934505D01*
X16321658Y15071087D01*
X16343601Y15181400D01*
X16350500Y15216080D01*
X16350500Y15363921D01*
X16321659Y15508908D01*
X16321658Y15508909D01*
X16321658Y15508913D01*
X16267033Y15640790D01*
X16265087Y15645489D01*
X16265080Y15645502D01*
X16182951Y15768416D01*
X16182948Y15768420D01*
X16114049Y15837319D01*
X16080564Y15898642D01*
X16085548Y15968334D01*
X16114049Y16012681D01*
X16182948Y16081581D01*
X16182951Y16081584D01*
X16265084Y16204505D01*
X16321658Y16341087D01*
X16350500Y16486082D01*
X16350500Y16633918D01*
X16350500Y16633921D01*
X16321659Y16778908D01*
X16321658Y16778909D01*
X16321658Y16778913D01*
X16310520Y16805803D01*
X16265087Y16915489D01*
X16265080Y16915502D01*
X16182951Y17038416D01*
X16182948Y17038420D01*
X16078419Y17142949D01*
X16078415Y17142952D01*
X15955501Y17225081D01*
X15955488Y17225088D01*
X15818917Y17281657D01*
X15818907Y17281660D01*
X15673920Y17310500D01*
X15673918Y17310500D01*
X15526082Y17310500D01*
X15526080Y17310500D01*
X15381092Y17281660D01*
X15381082Y17281657D01*
X15244511Y17225088D01*
X15244498Y17225081D01*
X15121584Y17142952D01*
X15121580Y17142949D01*
X15017051Y17038420D01*
X15017048Y17038416D01*
X14934919Y16915502D01*
X14934912Y16915489D01*
X14878343Y16778918D01*
X14878340Y16778908D01*
X14849500Y16633921D01*
X14849500Y16633918D01*
X14849500Y16486082D01*
X14849500Y16486080D01*
X14849499Y16486080D01*
X14878340Y16341093D01*
X14878343Y16341083D01*
X14934912Y16204512D01*
X14934919Y16204499D01*
X15017048Y16081585D01*
X15017051Y16081581D01*
X15085951Y16012681D01*
X15119436Y15951358D01*
X15114452Y15881666D01*
X15085951Y15837319D01*
X15017051Y15768420D01*
X15017048Y15768416D01*
X14934919Y15645502D01*
X14934912Y15645489D01*
X14878343Y15508918D01*
X14878340Y15508908D01*
X14849500Y15363921D01*
X14849500Y15363918D01*
X14849500Y15216082D01*
X14849500Y15216080D01*
X14849499Y15216080D01*
X14878340Y15071093D01*
X14878343Y15071083D01*
X14934912Y14934512D01*
X14934919Y14934499D01*
X15017048Y14811585D01*
X15017051Y14811581D01*
X15085951Y14742681D01*
X15119436Y14681358D01*
X15114452Y14611666D01*
X15085951Y14567319D01*
X15017051Y14498420D01*
X15017048Y14498416D01*
X14934919Y14375502D01*
X14934912Y14375489D01*
X14878343Y14238918D01*
X14878340Y14238908D01*
X14849500Y14093921D01*
X14849500Y14093918D01*
X14849500Y13946082D01*
X14849500Y13946080D01*
X14849499Y13946080D01*
X14878314Y13801224D01*
X14872087Y13731632D01*
X14844378Y13689351D01*
X13734189Y12579160D01*
X13678241Y12523213D01*
X13678235Y12523205D01*
X13638682Y12454696D01*
X13638679Y12454691D01*
X13633488Y12435317D01*
X13618200Y12378262D01*
X12745500Y12378262D01*
X12745500Y15116224D01*
X12765185Y15183263D01*
X12781819Y15203905D01*
X12805968Y15228054D01*
X12845500Y15267586D01*
X12911392Y15381714D01*
X12945500Y15509008D01*
X12945500Y15640792D01*
X12911392Y15768086D01*
X12911201Y15768416D01*
X12891525Y15802497D01*
X12845500Y15882214D01*
X12781818Y15945896D01*
X12748334Y16007220D01*
X12745500Y16033577D01*
X12745500Y16995167D01*
X12765185Y17062206D01*
X12781819Y17082848D01*
X13442090Y17743119D01*
X14664815Y18965845D01*
X14726136Y18999328D01*
X14795828Y18994344D01*
X14851761Y18952472D01*
X14874111Y18902355D01*
X14878340Y18881092D01*
X14878343Y18881083D01*
X14934912Y18744512D01*
X14934919Y18744499D01*
X15017048Y18621585D01*
X15017051Y18621581D01*
X15121580Y18517052D01*
X15121584Y18517049D01*
X15244498Y18434920D01*
X15244511Y18434913D01*
X15376092Y18380411D01*
X15381087Y18378342D01*
X15381091Y18378342D01*
X15381092Y18378341D01*
X15526079Y18349500D01*
X15526082Y18349500D01*
X15673919Y18349500D01*
X15759798Y18366583D01*
X15829389Y18360356D01*
X15871671Y18332647D01*
X23158181Y11046137D01*
X23191666Y10984814D01*
X23194500Y10958456D01*
X23194500Y6966676D01*
X23174815Y6899637D01*
X23158181Y6878995D01*
X23144502Y6865317D01*
X23144500Y6865314D01*
X23078608Y6751188D01*
X23044500Y6623892D01*
X23044500Y6492109D01*
X23078608Y6364813D01*
X23108874Y6312392D01*
X23144500Y6250686D01*
X23237686Y6157500D01*
X23351814Y6091608D01*
X23479108Y6057500D01*
X23479110Y6057500D01*
X23610890Y6057500D01*
X23610892Y6057500D01*
X23738186Y6091608D01*
X23852314Y6157500D01*
X23945500Y6250686D01*
X23981126Y6312392D01*
X33406700Y6312392D01*
X33406700Y6180608D01*
X33412892Y6157500D01*
X33440808Y6053313D01*
X33473754Y5996250D01*
X33506700Y5939186D01*
X33599886Y5846000D01*
X33714014Y5780108D01*
X33841308Y5746000D01*
X33841310Y5746000D01*
X33973090Y5746000D01*
X33973092Y5746000D01*
X34100386Y5780108D01*
X34214514Y5846000D01*
X34307700Y5939186D01*
X34373592Y6053314D01*
X34407700Y6180608D01*
X34407700Y6312392D01*
X34373592Y6439686D01*
X34307700Y6553814D01*
X34214514Y6647000D01*
X34157450Y6679946D01*
X34100387Y6712892D01*
X34036739Y6729946D01*
X33973092Y6747000D01*
X33841308Y6747000D01*
X33714012Y6712892D01*
X33599886Y6647000D01*
X33599883Y6646998D01*
X33506702Y6553817D01*
X33506700Y6553814D01*
X33440808Y6439688D01*
X33420746Y6364814D01*
X33406700Y6312392D01*
X23981126Y6312392D01*
X24011392Y6364814D01*
X24045500Y6492108D01*
X24045500Y6623892D01*
X24011392Y6751186D01*
X23945500Y6865314D01*
X23931819Y6878995D01*
X23898334Y6940318D01*
X23895500Y6966676D01*
X23895500Y7723892D01*
X31512500Y7723892D01*
X31512500Y7592109D01*
X31546608Y7464813D01*
X31579554Y7407750D01*
X31612500Y7350686D01*
X31705686Y7257500D01*
X31819814Y7191608D01*
X31947108Y7157500D01*
X31947110Y7157500D01*
X32078890Y7157500D01*
X32078892Y7157500D01*
X32206186Y7191608D01*
X32320314Y7257500D01*
X32413500Y7350686D01*
X32479392Y7464814D01*
X32513500Y7592108D01*
X32513500Y7723892D01*
X32479392Y7851186D01*
X32413500Y7965314D01*
X32320314Y8058500D01*
X32263250Y8091446D01*
X32206187Y8124392D01*
X32142539Y8141446D01*
X32078892Y8158500D01*
X31947108Y8158500D01*
X31819812Y8124392D01*
X31705686Y8058500D01*
X31705683Y8058498D01*
X31612502Y7965317D01*
X31612500Y7965314D01*
X31546608Y7851188D01*
X31512500Y7723892D01*
X23895500Y7723892D01*
X23895500Y11201142D01*
X23895500Y11201144D01*
X23871614Y11290288D01*
X23825470Y11370212D01*
X23001790Y12193892D01*
X33777500Y12193892D01*
X33777500Y12062109D01*
X33811608Y11934813D01*
X33844554Y11877750D01*
X33877500Y11820686D01*
X33970686Y11727500D01*
X34084814Y11661608D01*
X34212108Y11627500D01*
X34212110Y11627500D01*
X34343890Y11627500D01*
X34343892Y11627500D01*
X34471186Y11661608D01*
X34585314Y11727500D01*
X34678500Y11820686D01*
X34744392Y11934814D01*
X34778500Y12062108D01*
X34778500Y12193892D01*
X34744392Y12321186D01*
X34678500Y12435314D01*
X34585314Y12528500D01*
X34497569Y12579160D01*
X34471187Y12594392D01*
X34361925Y12623668D01*
X34343892Y12628500D01*
X34212108Y12628500D01*
X34084812Y12594392D01*
X33970686Y12528500D01*
X33970683Y12528498D01*
X33877502Y12435317D01*
X33877500Y12435314D01*
X33811608Y12321188D01*
X33777500Y12193892D01*
X23001790Y12193892D01*
X21132816Y14062866D01*
X21099331Y14124189D01*
X21104315Y14193881D01*
X21146187Y14249814D01*
X21158480Y14257924D01*
X21238114Y14303900D01*
X21331300Y14397086D01*
X21397192Y14511214D01*
X21431300Y14638508D01*
X21431300Y14770292D01*
X21397192Y14897586D01*
X21331300Y15011714D01*
X21238114Y15104900D01*
X21144958Y15158684D01*
X21123987Y15170792D01*
X21042660Y15192583D01*
X20996692Y15204900D01*
X20864908Y15204900D01*
X20737612Y15170792D01*
X20623486Y15104900D01*
X20623483Y15104898D01*
X20530302Y15011717D01*
X20530300Y15011714D01*
X20484333Y14932097D01*
X20433765Y14883882D01*
X20365158Y14870660D01*
X20300294Y14896628D01*
X20289265Y14906417D01*
X18701397Y16494285D01*
X18667912Y16555608D01*
X18672896Y16625300D01*
X18714768Y16681233D01*
X18772892Y16704905D01*
X18779683Y16705800D01*
X18779692Y16705800D01*
X18906986Y16739908D01*
X19021114Y16805800D01*
X19114300Y16898986D01*
X19180192Y17013114D01*
X19214300Y17140408D01*
X19214300Y17272192D01*
X19180192Y17399486D01*
X19114300Y17513614D01*
X19021114Y17606800D01*
X18964050Y17639746D01*
X18906987Y17672692D01*
X18843339Y17689746D01*
X18779692Y17706800D01*
X18689633Y17706800D01*
X18622594Y17726485D01*
X18601952Y17743119D01*
X16116912Y20228159D01*
X16116904Y20228165D01*
X16048395Y20267718D01*
X16048390Y20267721D01*
X16022913Y20274548D01*
X15971962Y20288200D01*
X15222138Y20288200D01*
X15183924Y20277961D01*
X15145709Y20267721D01*
X15145704Y20267718D01*
X15077195Y20228165D01*
X15077187Y20228159D01*
X12204541Y17355513D01*
X12204535Y17355505D01*
X12164982Y17286996D01*
X12164979Y17286991D01*
X12151326Y17236038D01*
X12148391Y17225081D01*
X12144500Y17210561D01*
X12144500Y16033577D01*
X12124815Y15966538D01*
X12108182Y15945896D01*
X12044500Y15882214D01*
X11978608Y15768088D01*
X11949429Y15659188D01*
X11944500Y15640792D01*
X11944500Y15509008D01*
X11944527Y15508908D01*
X11978608Y15381713D01*
X12003015Y15339440D01*
X12044500Y15267586D01*
X12044502Y15267584D01*
X12108181Y15203905D01*
X12141666Y15142582D01*
X12144500Y15116224D01*
X12144500Y9177634D01*
X12124815Y9110595D01*
X12108181Y9089953D01*
X8195947Y5177719D01*
X8134624Y5144234D01*
X8108266Y5141400D01*
X8018208Y5141400D01*
X7890912Y5107292D01*
X7776786Y5041400D01*
X7776783Y5041398D01*
X7683602Y4948217D01*
X7683600Y4948214D01*
X7617708Y4834088D01*
X7583600Y4706792D01*
X6648722Y4706792D01*
X6595414Y4760100D01*
X6538350Y4793046D01*
X6481287Y4825992D01*
X6417639Y4843046D01*
X6353992Y4860100D01*
X6222208Y4860100D01*
X6126592Y4834481D01*
X6056743Y4836143D01*
X5998881Y4875306D01*
X5971377Y4939534D01*
X5970500Y4954255D01*
X5970500Y5010890D01*
X5970500Y5010892D01*
X5936392Y5138186D01*
X5934536Y5141400D01*
X5927563Y5153479D01*
X5870500Y5252314D01*
X5777314Y5345500D01*
X5708029Y5385502D01*
X5663187Y5411392D01*
X5599539Y5428446D01*
X5535892Y5445500D01*
X5404108Y5445500D01*
X5276811Y5411392D01*
X5260499Y5401973D01*
X5192599Y5385502D01*
X5126572Y5408354D01*
X5083382Y5463276D01*
X5074500Y5509361D01*
X5074500Y10612523D01*
X5094185Y10679562D01*
X5110819Y10700204D01*
X9339796Y14929181D01*
X9401119Y14962666D01*
X9427477Y14965500D01*
X9552890Y14965500D01*
X9552892Y14965500D01*
X9680186Y14999608D01*
X9794314Y15065500D01*
X9887500Y15158686D01*
X9953392Y15272814D01*
X9987500Y15400108D01*
X9987500Y15531892D01*
X9955454Y15651492D01*
X10624500Y15651492D01*
X10624500Y15519708D01*
X10627394Y15508908D01*
X10658608Y15392413D01*
X10675058Y15363921D01*
X10724500Y15278286D01*
X10817686Y15185100D01*
X10931814Y15119208D01*
X11059108Y15085100D01*
X11059110Y15085100D01*
X11190890Y15085100D01*
X11190892Y15085100D01*
X11318186Y15119208D01*
X11432314Y15185100D01*
X11525500Y15278286D01*
X11591392Y15392414D01*
X11625500Y15519708D01*
X11625500Y15651492D01*
X11591392Y15778786D01*
X11588850Y15783188D01*
X11560035Y15833097D01*
X11525500Y15892914D01*
X11432314Y15986100D01*
X11324595Y16048292D01*
X11318187Y16051992D01*
X11207757Y16081581D01*
X11190892Y16086100D01*
X11059108Y16086100D01*
X10931812Y16051992D01*
X10817686Y15986100D01*
X10817683Y15986098D01*
X10724502Y15892917D01*
X10724500Y15892914D01*
X10658608Y15778788D01*
X10626562Y15659188D01*
X10624500Y15651492D01*
X9955454Y15651492D01*
X9953392Y15659186D01*
X9887500Y15773314D01*
X9794314Y15866500D01*
X9737250Y15899446D01*
X9680187Y15932392D01*
X9609403Y15951358D01*
X9552892Y15966500D01*
X9421108Y15966500D01*
X9293812Y15932392D01*
X9179686Y15866500D01*
X9179683Y15866498D01*
X9086502Y15773317D01*
X9086500Y15773314D01*
X9020608Y15659188D01*
X8986500Y15531892D01*
X8986500Y15406479D01*
X8966815Y15339440D01*
X8950181Y15318798D01*
X4725481Y11094097D01*
X4664158Y11060612D01*
X4594466Y11065596D01*
X4538533Y11107468D01*
X4514116Y11172932D01*
X4513800Y11181778D01*
X4513800Y12623668D01*
X4533485Y12690707D01*
X4550114Y12711344D01*
X6734551Y14895782D01*
X6795874Y14929266D01*
X6822232Y14932100D01*
X6912290Y14932100D01*
X6912292Y14932100D01*
X7039586Y14966208D01*
X7153714Y15032100D01*
X7246900Y15125286D01*
X7285754Y15192584D01*
X7336321Y15240799D01*
X7404928Y15254022D01*
X7469793Y15228054D01*
X7480822Y15218264D01*
X7517686Y15181400D01*
X7631814Y15115508D01*
X7759108Y15081400D01*
X7759110Y15081400D01*
X7890890Y15081400D01*
X7890892Y15081400D01*
X8018186Y15115508D01*
X8132314Y15181400D01*
X8225500Y15274586D01*
X8291392Y15388714D01*
X8325500Y15516008D01*
X8325500Y15647792D01*
X8291392Y15775086D01*
X8286715Y15783186D01*
X8267845Y15815870D01*
X8225500Y15889214D01*
X8132314Y15982400D01*
X8075250Y16015346D01*
X8018187Y16048292D01*
X7954539Y16065346D01*
X7890892Y16082400D01*
X7759108Y16082400D01*
X7631812Y16048292D01*
X7517686Y15982400D01*
X7517683Y15982398D01*
X7424502Y15889217D01*
X7424498Y15889211D01*
X7385644Y15821916D01*
X7335076Y15773701D01*
X7266469Y15760480D01*
X7201605Y15786449D01*
X7190577Y15796237D01*
X7153716Y15833098D01*
X7153714Y15833100D01*
X7084690Y15872951D01*
X7039587Y15898992D01*
X6975939Y15916046D01*
X6912292Y15933100D01*
X6780508Y15933100D01*
X6653212Y15898992D01*
X6539086Y15833100D01*
X6539082Y15833097D01*
X6508482Y15802497D01*
X6447158Y15769012D01*
X6377467Y15773998D01*
X6321534Y15815870D01*
X6313415Y15828179D01*
X6308138Y15837319D01*
X6273500Y15897314D01*
X6180314Y15990500D01*
X6080216Y16048292D01*
X6066187Y16056392D01*
X5972167Y16081584D01*
X5938892Y16090500D01*
X5807108Y16090500D01*
X5679812Y16056392D01*
X5565686Y15990500D01*
X5565683Y15990498D01*
X5472502Y15897317D01*
X5472500Y15897314D01*
X5408037Y15785662D01*
X5357469Y15737447D01*
X5288862Y15724225D01*
X5223997Y15750193D01*
X5193263Y15785662D01*
X5163438Y15837319D01*
X5128800Y15897314D01*
X5035614Y15990500D01*
X4935516Y16048292D01*
X4921487Y16056392D01*
X4827467Y16081584D01*
X4794192Y16090500D01*
X4662408Y16090500D01*
X4535112Y16056392D01*
X4420986Y15990500D01*
X4420983Y15990498D01*
X4327802Y15897317D01*
X4327800Y15897314D01*
X4261908Y15783188D01*
X4228683Y15659188D01*
X4227800Y15655892D01*
X4227800Y15524108D01*
X4231873Y15508908D01*
X4261908Y15396813D01*
X4294854Y15339750D01*
X4327800Y15282686D01*
X4420986Y15189500D01*
X4502250Y15142582D01*
X4532207Y15125286D01*
X4535114Y15123608D01*
X4662408Y15089500D01*
X4662410Y15089500D01*
X4794190Y15089500D01*
X4794192Y15089500D01*
X4921486Y15123608D01*
X5035614Y15189500D01*
X5128800Y15282686D01*
X5161567Y15339440D01*
X5193263Y15394338D01*
X5243830Y15442554D01*
X5312438Y15455776D01*
X5377302Y15429808D01*
X5408037Y15394338D01*
X5472497Y15282690D01*
X5472499Y15282688D01*
X5472500Y15282686D01*
X5565686Y15189500D01*
X5646950Y15142582D01*
X5676907Y15125286D01*
X5679814Y15123608D01*
X5807108Y15089500D01*
X5807111Y15089500D01*
X5813556Y15087773D01*
X5873217Y15051408D01*
X5903746Y14988562D01*
X5895452Y14919186D01*
X5869144Y14880317D01*
X4028789Y13039960D01*
X3972841Y12984013D01*
X3972835Y12984005D01*
X3933282Y12915496D01*
X3933279Y12915491D01*
X3919626Y12864538D01*
X3912800Y12839062D01*
X350000Y12839062D01*
X350000Y20626000D01*
X369685Y20693039D01*
X422489Y20738794D01*
X474000Y20750000D01*
X35826000Y20750000D01*
X35893039Y20730315D01*
G37*
%TD.AperFunction*%
%TD*%
M02*
