%TF.GenerationSoftware,KiCad,Pcbnew,9.0.7*%
%TF.CreationDate,2026-09-28T17:22:57+02:00*%
%TF.ProjectId,main,6d61696e-2e6b-4696-9361-645f70636258,I*%
%TF.SameCoordinates,Original*%
%TF.FileFunction,Legend,Bot*%
%TF.FilePolarity,Positive*%
%FSLAX46Y46*%
G04 Gerber Fmt 4.6, Leading zero omitted, Abs format (unit mm)*
G04 Created by KiCad (PCBNEW 9.0.7) date 2026-09-28 17:22:57*
%MOMM*%
%LPD*%
G01*
G04 APERTURE LIST*
%ADD10C,0.120000*%
%ADD11C,0.150000*%
%ADD12C,1.100000*%
G04 APERTURE END LIST*
D10*
X13652380Y19412055D02*
X14033332Y19412055D01*
X14033332Y19412055D02*
X14071428Y19031103D01*
X14071428Y19031103D02*
X14033332Y19069198D01*
X14033332Y19069198D02*
X13957142Y19107293D01*
X13957142Y19107293D02*
X13766666Y19107293D01*
X13766666Y19107293D02*
X13690475Y19069198D01*
X13690475Y19069198D02*
X13652380Y19031103D01*
X13652380Y19031103D02*
X13614285Y18954912D01*
X13614285Y18954912D02*
X13614285Y18764436D01*
X13614285Y18764436D02*
X13652380Y18688246D01*
X13652380Y18688246D02*
X13690475Y18650150D01*
X13690475Y18650150D02*
X13766666Y18612055D01*
X13766666Y18612055D02*
X13957142Y18612055D01*
X13957142Y18612055D02*
X14033332Y18650150D01*
X14033332Y18650150D02*
X14071428Y18688246D01*
X13385713Y19412055D02*
X13119046Y18612055D01*
X13119046Y18612055D02*
X12852380Y19412055D01*
X14109523Y18086005D02*
X14185713Y18124100D01*
X14185713Y18124100D02*
X14299999Y18124100D01*
X14299999Y18124100D02*
X14414285Y18086005D01*
X14414285Y18086005D02*
X14490475Y18009815D01*
X14490475Y18009815D02*
X14528570Y17933624D01*
X14528570Y17933624D02*
X14566666Y17781243D01*
X14566666Y17781243D02*
X14566666Y17666957D01*
X14566666Y17666957D02*
X14528570Y17514576D01*
X14528570Y17514576D02*
X14490475Y17438386D01*
X14490475Y17438386D02*
X14414285Y17362195D01*
X14414285Y17362195D02*
X14299999Y17324100D01*
X14299999Y17324100D02*
X14223808Y17324100D01*
X14223808Y17324100D02*
X14109523Y17362195D01*
X14109523Y17362195D02*
X14071427Y17400291D01*
X14071427Y17400291D02*
X14071427Y17666957D01*
X14071427Y17666957D02*
X14223808Y17666957D01*
X13728570Y17324100D02*
X13728570Y18124100D01*
X13728570Y18124100D02*
X13271427Y17324100D01*
X13271427Y17324100D02*
X13271427Y18124100D01*
X12890475Y17324100D02*
X12890475Y18124100D01*
X12890475Y18124100D02*
X12699999Y18124100D01*
X12699999Y18124100D02*
X12585713Y18086005D01*
X12585713Y18086005D02*
X12509523Y18009815D01*
X12509523Y18009815D02*
X12471428Y17933624D01*
X12471428Y17933624D02*
X12433332Y17781243D01*
X12433332Y17781243D02*
X12433332Y17666957D01*
X12433332Y17666957D02*
X12471428Y17514576D01*
X12471428Y17514576D02*
X12509523Y17438386D01*
X12509523Y17438386D02*
X12585713Y17362195D01*
X12585713Y17362195D02*
X12699999Y17324100D01*
X12699999Y17324100D02*
X12890475Y17324100D01*
X14490476Y16836145D02*
X13995238Y16836145D01*
X13995238Y16836145D02*
X14261904Y16531383D01*
X14261904Y16531383D02*
X14147619Y16531383D01*
X14147619Y16531383D02*
X14071428Y16493288D01*
X14071428Y16493288D02*
X14033333Y16455193D01*
X14033333Y16455193D02*
X13995238Y16379002D01*
X13995238Y16379002D02*
X13995238Y16188526D01*
X13995238Y16188526D02*
X14033333Y16112336D01*
X14033333Y16112336D02*
X14071428Y16074240D01*
X14071428Y16074240D02*
X14147619Y16036145D01*
X14147619Y16036145D02*
X14376190Y16036145D01*
X14376190Y16036145D02*
X14452381Y16074240D01*
X14452381Y16074240D02*
X14490476Y16112336D01*
X13766666Y16836145D02*
X13499999Y16036145D01*
X13499999Y16036145D02*
X13233333Y16836145D01*
X13042857Y16836145D02*
X12547619Y16836145D01*
X12547619Y16836145D02*
X12814285Y16531383D01*
X12814285Y16531383D02*
X12700000Y16531383D01*
X12700000Y16531383D02*
X12623809Y16493288D01*
X12623809Y16493288D02*
X12585714Y16455193D01*
X12585714Y16455193D02*
X12547619Y16379002D01*
X12547619Y16379002D02*
X12547619Y16188526D01*
X12547619Y16188526D02*
X12585714Y16112336D01*
X12585714Y16112336D02*
X12623809Y16074240D01*
X12623809Y16074240D02*
X12700000Y16036145D01*
X12700000Y16036145D02*
X12928571Y16036145D01*
X12928571Y16036145D02*
X13004762Y16074240D01*
X13004762Y16074240D02*
X13042857Y16112336D01*
X14109523Y15548190D02*
X13652380Y15548190D01*
X13880952Y14748190D02*
X13880952Y15548190D01*
X13461904Y15548190D02*
X12928570Y14748190D01*
X12928570Y15548190D02*
X13461904Y14748190D01*
X13633332Y13460235D02*
X13899999Y13841188D01*
X14090475Y13460235D02*
X14090475Y14260235D01*
X14090475Y14260235D02*
X13785713Y14260235D01*
X13785713Y14260235D02*
X13709523Y14222140D01*
X13709523Y14222140D02*
X13671428Y14184045D01*
X13671428Y14184045D02*
X13633332Y14107854D01*
X13633332Y14107854D02*
X13633332Y13993569D01*
X13633332Y13993569D02*
X13671428Y13917378D01*
X13671428Y13917378D02*
X13709523Y13879283D01*
X13709523Y13879283D02*
X13785713Y13841188D01*
X13785713Y13841188D02*
X14090475Y13841188D01*
X13366666Y14260235D02*
X12833332Y13460235D01*
X12833332Y14260235D02*
X13366666Y13460235D01*
D11*
%TO.C,J5*%
X15700000Y20200000D02*
G75*
G02*
X15500000Y20200000I-100000J0D01*
G01*
X15500000Y20200000D02*
G75*
G02*
X15700000Y20200000I100000J0D01*
G01*
%TD*%
%LPC*%
D12*
%TO.C,J5*%
X15600000Y19100000D03*
X15600000Y17830000D03*
X15600000Y16560000D03*
X15600000Y15290000D03*
X15600000Y14020000D03*
%TD*%
%LPD*%
M02*
