M48
; DRILL file {KiCad 9.0.7} date 2026-09-28T17:22:57+0200
; FORMAT={-:-/ absolute / metric / decimal}
; #@! TF.CreationDate,2026-09-28T17:22:57+02:00
; #@! TF.GenerationSoftware,Kicad,Pcbnew,9.0.7
; #@! TF.FileFunction,Plated,1,4,PTH
FMAT,2
METRIC
; #@! TA.AperFunction,Plated,PTH,ViaDrill
T1C0.200
; #@! TA.AperFunction,Plated,PTH,ViaDrill
T2C0.300
; #@! TA.AperFunction,Plated,PTH,ComponentDrill
T3C0.700
%
G90
G05
T1
X10.05Y0.85
T2
X2.075Y18.046
X2.353Y4.921
X3.156Y2.115
X4.728Y15.59
X4.799Y4.037
X5.47Y4.945
X5.873Y15.59
X6.288Y4.36
X6.846Y15.433
X7.825Y15.582
X8.084Y4.641
X9.487Y15.466
X9.677Y1.499
X9.803Y2.54
X10.018Y4.572
X11.125Y15.586
X11.6Y1.82
X11.82Y4.553
X12.445Y15.575
X14.503Y10.202
X15.125Y11.902
X15.734Y11.205
X15.775Y1.404
X18.714Y17.206
X20.931Y14.704
X23.545Y6.558
X26.344Y6.21
X32.013Y7.658
X33.904Y3.894
X33.907Y6.246
X34.278Y12.128
X35.19Y14.685
T3
X15.6Y19.1
X15.6Y17.83
X15.6Y16.56
X15.6Y15.29
X15.6Y14.02
M30
