%TF.GenerationSoftware,KiCad,Pcbnew,9.0.7*%
%TF.CreationDate,2026-09-28T17:22:57+02:00*%
%TF.ProjectId,interface,696e7465-7266-4616-9365-2e6b69636164,J*%
%TF.SameCoordinates,PX6b18fe0PY7de2900*%
%TF.FileFunction,Paste,Bot*%
%TF.FilePolarity,Positive*%
%FSLAX46Y46*%
G04 Gerber Fmt 4.6, Leading zero omitted, Abs format (unit mm)*
G04 Created by KiCad (PCBNEW 9.0.7) date 2026-09-28 17:22:57*
%MOMM*%
%LPD*%
G01*
G04 APERTURE LIST*
G04 Aperture macros list*
%AMRoundRect*
0 Rectangle with rounded corners*
0 $1 Rounding radius*
0 $2 $3 $4 $5 $6 $7 $8 $9 X,Y pos of 4 corners*
0 Add a 4 corners polygon primitive as box body*
4,1,4,$2,$3,$4,$5,$6,$7,$8,$9,$2,$3,0*
0 Add four circle primitives for the rounded corners*
1,1,$1+$1,$2,$3*
1,1,$1+$1,$4,$5*
1,1,$1+$1,$6,$7*
1,1,$1+$1,$8,$9*
0 Add four rect primitives between the rounded corners*
20,1,$1+$1,$2,$3,$4,$5,0*
20,1,$1+$1,$4,$5,$6,$7,0*
20,1,$1+$1,$6,$7,$8,$9,0*
20,1,$1+$1,$8,$9,$2,$3,0*%
G04 Aperture macros list end*
%ADD10RoundRect,0.225000X-0.225000X-0.250000X0.225000X-0.250000X0.225000X0.250000X-0.225000X0.250000X0*%
%ADD11RoundRect,0.250000X-0.250000X-0.475000X0.250000X-0.475000X0.250000X0.475000X-0.250000X0.475000X0*%
%ADD12RoundRect,0.200000X-0.200000X-0.275000X0.200000X-0.275000X0.200000X0.275000X-0.200000X0.275000X0*%
%ADD13RoundRect,0.225000X0.225000X0.250000X-0.225000X0.250000X-0.225000X-0.250000X0.225000X-0.250000X0*%
%ADD14R,0.640000X0.640000*%
%ADD15RoundRect,0.070000X-0.355000X-0.070000X0.355000X-0.070000X0.355000X0.070000X-0.355000X0.070000X0*%
%ADD16R,0.280000X0.700000*%
%ADD17RoundRect,0.200000X0.275000X-0.200000X0.275000X0.200000X-0.275000X0.200000X-0.275000X-0.200000X0*%
%ADD18RoundRect,0.150000X0.512500X0.150000X-0.512500X0.150000X-0.512500X-0.150000X0.512500X-0.150000X0*%
%ADD19RoundRect,0.100000X-0.562500X-0.100000X0.562500X-0.100000X0.562500X0.100000X-0.562500X0.100000X0*%
%ADD20RoundRect,0.250000X0.325000X1.100000X-0.325000X1.100000X-0.325000X-1.100000X0.325000X-1.100000X0*%
%ADD21R,1.500000X2.400000*%
G04 APERTURE END LIST*
D10*
%TO.C,C8*%
X9925000Y31100000D03*
X11475000Y31100000D03*
%TD*%
%TO.C,C9*%
X9925000Y24750000D03*
X11475000Y24750000D03*
%TD*%
%TO.C,C16*%
X9325000Y19200000D03*
X10875000Y19200000D03*
%TD*%
D11*
%TO.C,C4*%
X11550000Y17100000D03*
X13450000Y17100000D03*
%TD*%
D12*
%TO.C,R13*%
X13125000Y24750000D03*
X14775000Y24750000D03*
%TD*%
D13*
%TO.C,C3*%
X18775000Y28400000D03*
X17225000Y28400000D03*
%TD*%
D14*
%TO.C,U3*%
X10287500Y28800000D03*
X10287500Y28000000D03*
X10287500Y27200000D03*
X11112500Y28800000D03*
X11112500Y28000000D03*
X11112500Y27200000D03*
D15*
X9225000Y27000000D03*
X9225000Y27500000D03*
X9225000Y28000000D03*
X9225000Y28500000D03*
X9225000Y29000000D03*
X12175000Y29000000D03*
X12175000Y28500000D03*
X12175000Y28000000D03*
X12175000Y27500000D03*
X12175000Y27000000D03*
D16*
X10450000Y29550000D03*
X10450000Y26450000D03*
X10950000Y29550000D03*
X10950000Y26450000D03*
%TD*%
D17*
%TO.C,R11*%
X13950000Y26675000D03*
X13950000Y28325000D03*
%TD*%
D18*
%TO.C,U2*%
X21537499Y26350000D03*
X21537499Y25400000D03*
X21537499Y24450000D03*
X19262499Y24450000D03*
X19262499Y25400000D03*
X19262499Y26350000D03*
%TD*%
D19*
%TO.C,U7*%
X8612500Y20850000D03*
X8612500Y21500000D03*
X8612500Y22150000D03*
X10387500Y22150000D03*
X10387500Y21500000D03*
X10387500Y20850000D03*
%TD*%
D12*
%TO.C,R12*%
X6625000Y24750000D03*
X8275000Y24750000D03*
%TD*%
D20*
%TO.C,C1*%
X22575000Y21600000D03*
X19625000Y21600000D03*
%TD*%
D17*
%TO.C,R10*%
X7450000Y27175000D03*
X7450000Y28825000D03*
%TD*%
D13*
%TO.C,C2*%
X22475000Y28400000D03*
X20925000Y28400000D03*
%TD*%
D17*
%TO.C,R8*%
X1700000Y20675000D03*
X1700000Y22325000D03*
%TD*%
D11*
%TO.C,C5*%
X16250000Y17400000D03*
X18150000Y17400000D03*
%TD*%
D17*
%TO.C,R9*%
X1700000Y17075000D03*
X1700000Y18725000D03*
%TD*%
D21*
%TO.C,L1*%
X17550000Y21300000D03*
X13850000Y21300000D03*
%TD*%
M02*
