%TF.GenerationSoftware,KiCad,Pcbnew,9.0.7*%
%TF.CreationDate,2026-09-28T17:22:57+02:00*%
%TF.ProjectId,interface,696e7465-7266-4616-9365-2e6b69636164,J*%
%TF.SameCoordinates,PX6b18fe0PY7de2900*%
%TF.FileFunction,Copper,L1,Top*%
%TF.FilePolarity,Positive*%
%FSLAX46Y46*%
G04 Gerber Fmt 4.6, Leading zero omitted, Abs format (unit mm)*
G04 Created by KiCad (PCBNEW 9.0.7) date 2026-09-28 17:22:57*
%MOMM*%
%LPD*%
G01*
G04 APERTURE LIST*
%TA.AperFunction,ComponentPad*%
%ADD10C,1.100000*%
%TD*%
%TA.AperFunction,SMDPad,CuDef*%
%ADD11R,1.600000X10.600000*%
%TD*%
%TA.AperFunction,ViaPad*%
%ADD12C,0.480000*%
%TD*%
%TA.AperFunction,Conductor*%
%ADD13C,0.400000*%
%TD*%
%TA.AperFunction,Conductor*%
%ADD14C,0.150000*%
%TD*%
%TA.AperFunction,Conductor*%
%ADD15C,0.300000*%
%TD*%
G04 APERTURE END LIST*
D10*
%TO.P,J4,1*%
%TO.N,/SYS_5V*%
X3300000Y29700000D03*
%TO.P,J4,2*%
%TO.N,/GND*%
X3300000Y28430000D03*
%TO.P,J4,3*%
%TO.N,/+3V3*%
X3300000Y27160000D03*
%TO.P,J4,4*%
%TO.N,/UART_TX_MCU*%
X3300000Y25890000D03*
%TO.P,J4,5*%
%TO.N,/UART_RX_MCU*%
X3300000Y24620000D03*
%TD*%
D11*
%TO.P,J1,A1*%
%TO.N,unconnected-(J1-NC_top-PadA1)*%
X15510000Y4500000D03*
%TO.P,J1,A2*%
%TO.N,/GND*%
X12970000Y4500000D03*
%TO.P,J1,A3*%
%TO.N,unconnected-(J1-NC-PadA3)*%
X10430000Y4500000D03*
%TO.P,J1,A4*%
%TO.N,unconnected-(J1-NC-PadA4)*%
X7890000Y4500000D03*
%TO.P,J1,A5*%
%TO.N,/+24V*%
X5350000Y4500000D03*
%TD*%
D12*
%TO.N,/GND*%
X19625000Y20500000D03*
X20050000Y28400000D03*
X19000000Y17400000D03*
X13900000Y11500000D03*
X12800000Y29625000D03*
X19625000Y23000000D03*
X11475000Y23800000D03*
X13450000Y16350000D03*
%TO.N,/+24V*%
X5350000Y16400000D03*
%TO.N,/AS10_TX*%
X1700000Y17075000D03*
X14575000Y16225000D03*
%TO.N,/AS10_RX*%
X1700000Y22325000D03*
X7925000Y19125000D03*
%TO.N,/SYS_5V*%
X8600000Y22150000D03*
X10375000Y20875000D03*
%TO.N,/UVLO*%
X8600000Y27500000D03*
X13950000Y26675000D03*
%TO.N,/OVP*%
X8375000Y28600000D03*
X13325000Y28400000D03*
X6625000Y24750000D03*
%TO.N,/EF_RTN*%
X8475000Y24900000D03*
X9625000Y26050000D03*
%TO.N,/EF_ILIM*%
X13125000Y24750000D03*
X13025000Y28975000D03*
%TO.N,/EF_DVDT*%
X10450000Y30375000D03*
X12800000Y28000000D03*
%TO.N,/VIN*%
X12650000Y26050000D03*
X23200000Y25400000D03*
%TO.N,/+5V_RAW*%
X14250000Y19000000D03*
X21300000Y26125000D03*
X8925000Y20100000D03*
X11500000Y17350000D03*
%TD*%
D13*
%TO.N,/GND*%
X12970000Y5000000D02*
X12970000Y11500000D01*
X12970000Y11500000D02*
X13900000Y11500000D01*
%TO.N,/+24V*%
X5350000Y5000000D02*
X5350000Y16400000D01*
D14*
%TO.N,/AS10_TX*%
X11190976Y17000000D02*
X1775000Y17000000D01*
X13800000Y17000000D02*
X11809024Y17000000D01*
X11809024Y17000000D02*
X11693024Y16884000D01*
X14575000Y16225000D02*
X13800000Y17000000D01*
X11306976Y16884000D02*
X11190976Y17000000D01*
X11693024Y16884000D02*
X11306976Y16884000D01*
X1775000Y17000000D02*
X1700000Y17075000D01*
%TO.N,/AS10_RX*%
X7925000Y19125000D02*
X4775000Y22275000D01*
X1750000Y22275000D02*
X1700000Y22325000D01*
X4775000Y22275000D02*
X3400000Y22275000D01*
X3400000Y22275000D02*
X1750000Y22275000D01*
D15*
%TO.N,/SYS_5V*%
X4700000Y29000000D02*
X4700000Y27500000D01*
X3500000Y29500000D02*
X4200000Y29500000D01*
X8775000Y22025000D02*
X8725000Y22025000D01*
X4200000Y29500000D02*
X4700000Y29000000D01*
X3300000Y29700000D02*
X3500000Y29500000D01*
X10175000Y21075000D02*
X9725000Y21075000D01*
X8725000Y22025000D02*
X8600000Y22150000D01*
X9725000Y21075000D02*
X8775000Y22025000D01*
X10375000Y20875000D02*
X10175000Y21075000D01*
X8475000Y22275000D02*
X8600000Y22150000D01*
X4700000Y27500000D02*
X8475000Y23725000D01*
X8475000Y23725000D02*
X8475000Y22275000D01*
D14*
%TO.N,/UVLO*%
X8925000Y27500000D02*
X9700000Y26725000D01*
X9700000Y26725000D02*
X13900000Y26725000D01*
X13900000Y26725000D02*
X13950000Y26675000D01*
X8600000Y27500000D02*
X8925000Y27500000D01*
%TO.N,/EF_RTN*%
X9625000Y26050000D02*
X8475000Y24900000D01*
%TO.N,/EF_DVDT*%
X10450000Y30375000D02*
X10450000Y30350000D01*
X10450000Y30350000D02*
X12800000Y28000000D01*
D15*
%TO.N,/VIN*%
X14775000Y25500000D02*
X23100000Y25500000D01*
X12650000Y26050000D02*
X14225000Y26050000D01*
X23100000Y25500000D02*
X23200000Y25400000D01*
X14225000Y26050000D02*
X14775000Y25500000D01*
%TO.N,/+5V_RAW*%
X11475000Y17450000D02*
X11475000Y17425000D01*
X8925000Y20025000D02*
X10050000Y18900000D01*
X10050000Y18875000D02*
X11475000Y17450000D01*
X10050000Y18900000D02*
X10050000Y18875000D01*
X11475000Y17425000D02*
X11500000Y17400000D01*
X8925000Y20100000D02*
X8925000Y20025000D01*
X11500000Y17400000D02*
X11500000Y17350000D01*
%TD*%
M02*
