M48
; DRILL file {KiCad 9.0.7} date 2026-09-28T17:22:57+0200
; FORMAT={-:-/ absolute / metric / decimal}
; #@! TF.CreationDate,2026-09-28T17:22:57+02:00
; #@! TF.GenerationSoftware,Kicad,Pcbnew,9.0.7
; #@! TF.FileFunction,Plated,1,4,PTH
FMAT,2
METRIC
; #@! TA.AperFunction,Plated,PTH,ViaDrill
T1C0.200
; #@! TA.AperFunction,Plated,PTH,ComponentDrill
T2C0.700
%
G90
G05
T1
X1.7Y22.325
X1.7Y17.075
X5.35Y16.4
X6.625Y24.75
X7.925Y19.125
X8.375Y28.6
X8.475Y24.9
X8.6Y27.5
X8.6Y22.15
X8.925Y20.1
X9.625Y26.05
X10.375Y20.875
X10.45Y30.375
X11.475Y23.8
X11.5Y17.35
X12.65Y26.05
X12.8Y29.625
X12.8Y28.0
X13.025Y28.975
X13.125Y24.75
X13.325Y28.4
X13.45Y16.35
X13.9Y11.5
X13.95Y26.675
X14.25Y19.0
X14.575Y16.225
X19.0Y17.4
X19.625Y23.0
X19.625Y20.5
X20.05Y28.4
X21.3Y26.125
X23.2Y25.4
T2
X3.3Y29.7
X3.3Y28.43
X3.3Y27.16
X3.3Y25.89
X3.3Y24.62
M30
