%TF.GenerationSoftware,KiCad,Pcbnew,9.0.7*%
%TF.CreationDate,2026-09-28T17:22:57+02:00*%
%TF.ProjectId,interface,696e7465-7266-4616-9365-2e6b69636164,J*%
%TF.SameCoordinates,PX6b18fe0PY7de2900*%
%TF.FileFunction,Soldermask,Bot*%
%TF.FilePolarity,Negative*%
%FSLAX46Y46*%
G04 Gerber Fmt 4.6, Leading zero omitted, Abs format (unit mm)*
G04 Created by KiCad (PCBNEW 9.0.7) date 2026-09-28 17:22:57*
%MOMM*%
%LPD*%
G01*
G04 APERTURE LIST*
G04 Aperture macros list*
%AMRoundRect*
0 Rectangle with rounded corners*
0 $1 Rounding radius*
0 $2 $3 $4 $5 $6 $7 $8 $9 X,Y pos of 4 corners*
0 Add a 4 corners polygon primitive as box body*
4,1,4,$2,$3,$4,$5,$6,$7,$8,$9,$2,$3,0*
0 Add four circle primitives for the rounded corners*
1,1,$1+$1,$2,$3*
1,1,$1+$1,$4,$5*
1,1,$1+$1,$6,$7*
1,1,$1+$1,$8,$9*
0 Add four rect primitives between the rounded corners*
20,1,$1+$1,$2,$3,$4,$5,0*
20,1,$1+$1,$4,$5,$6,$7,0*
20,1,$1+$1,$6,$7,$8,$9,0*
20,1,$1+$1,$8,$9,$2,$3,0*%
%AMFreePoly0*
4,1,23,0.500000,-0.750000,0.000000,-0.750000,0.000000,-0.745722,-0.065263,-0.745722,-0.191342,-0.711940,-0.304381,-0.646677,-0.396677,-0.554381,-0.461940,-0.441342,-0.495722,-0.315263,-0.495722,-0.250000,-0.500000,-0.250000,-0.500000,0.250000,-0.495722,0.250000,-0.495722,0.315263,-0.461940,0.441342,-0.396677,0.554381,-0.304381,0.646677,-0.191342,0.711940,-0.065263,0.745722,0.000000,0.745722,
0.000000,0.750000,0.500000,0.750000,0.500000,-0.750000,0.500000,-0.750000,$1*%
%AMFreePoly1*
4,1,23,0.000000,0.745722,0.065263,0.745722,0.191342,0.711940,0.304381,0.646677,0.396677,0.554381,0.461940,0.441342,0.495722,0.315263,0.495722,0.250000,0.500000,0.250000,0.500000,-0.250000,0.495722,-0.250000,0.495722,-0.315263,0.461940,-0.441342,0.396677,-0.554381,0.304381,-0.646677,0.191342,-0.711940,0.065263,-0.745722,0.000000,-0.745722,0.000000,-0.750000,-0.500000,-0.750000,
-0.500000,0.750000,0.000000,0.750000,0.000000,0.745722,0.000000,0.745722,$1*%
G04 Aperture macros list end*
%ADD10C,1.100000*%
%ADD11R,1.600000X10.600000*%
%ADD12RoundRect,0.225000X-0.225000X-0.250000X0.225000X-0.250000X0.225000X0.250000X-0.225000X0.250000X0*%
%ADD13RoundRect,0.250000X-0.250000X-0.475000X0.250000X-0.475000X0.250000X0.475000X-0.250000X0.475000X0*%
%ADD14RoundRect,0.200000X-0.200000X-0.275000X0.200000X-0.275000X0.200000X0.275000X-0.200000X0.275000X0*%
%ADD15RoundRect,0.225000X0.225000X0.250000X-0.225000X0.250000X-0.225000X-0.250000X0.225000X-0.250000X0*%
%ADD16RoundRect,0.070000X-0.355000X-0.070000X0.355000X-0.070000X0.355000X0.070000X-0.355000X0.070000X0*%
%ADD17R,0.280000X0.700000*%
%ADD18R,1.650000X2.400000*%
%ADD19RoundRect,0.200000X0.275000X-0.200000X0.275000X0.200000X-0.275000X0.200000X-0.275000X-0.200000X0*%
%ADD20RoundRect,0.150000X0.512500X0.150000X-0.512500X0.150000X-0.512500X-0.150000X0.512500X-0.150000X0*%
%ADD21RoundRect,0.100000X-0.562500X-0.100000X0.562500X-0.100000X0.562500X0.100000X-0.562500X0.100000X0*%
%ADD22RoundRect,0.250000X0.325000X1.100000X-0.325000X1.100000X-0.325000X-1.100000X0.325000X-1.100000X0*%
%ADD23FreePoly0,0.000000*%
%ADD24FreePoly1,0.000000*%
%ADD25RoundRect,0.250000X-0.312500X-0.625000X0.312500X-0.625000X0.312500X0.625000X-0.312500X0.625000X0*%
%ADD26R,1.500000X2.400000*%
G04 APERTURE END LIST*
%TO.C,JP1*%
G36*
X5750000Y20650000D02*
G01*
X6050000Y20650000D01*
X6050000Y22150000D01*
X5750000Y22150000D01*
X5750000Y20650000D01*
G37*
%TD*%
D10*
%TO.C,J4*%
X3300000Y29700000D03*
X3300000Y28430000D03*
X3300000Y27160000D03*
X3300000Y25890000D03*
X3300000Y24620000D03*
%TD*%
D11*
%TO.C,J1*%
X15510000Y4500000D03*
X12970000Y4500000D03*
X10430000Y4500000D03*
X7890000Y4500000D03*
X5350000Y4500000D03*
%TD*%
D12*
%TO.C,C8*%
X9925000Y31100000D03*
X11475000Y31100000D03*
%TD*%
%TO.C,C9*%
X9925000Y24750000D03*
X11475000Y24750000D03*
%TD*%
%TO.C,C16*%
X9325000Y19200000D03*
X10875000Y19200000D03*
%TD*%
D13*
%TO.C,C4*%
X11550000Y17100000D03*
X13450000Y17100000D03*
%TD*%
D14*
%TO.C,R13*%
X13125000Y24750000D03*
X14775000Y24750000D03*
%TD*%
D15*
%TO.C,C3*%
X18775000Y28400000D03*
X17225000Y28400000D03*
%TD*%
D16*
%TO.C,U3*%
X9225000Y27000000D03*
X9225000Y27500000D03*
X9225000Y28000000D03*
X9225000Y28500000D03*
X9225000Y29000000D03*
X12175000Y29000000D03*
X12175000Y28500000D03*
X12175000Y28000000D03*
X12175000Y27500000D03*
X12175000Y27000000D03*
D17*
X10450000Y29550000D03*
X10450000Y26450000D03*
D18*
X10700000Y28000000D03*
D17*
X10950000Y29550000D03*
X10950000Y26450000D03*
%TD*%
D19*
%TO.C,R11*%
X13950000Y26675000D03*
X13950000Y28325000D03*
%TD*%
D20*
%TO.C,U2*%
X21537499Y26350000D03*
X21537499Y25400000D03*
X21537499Y24450000D03*
X19262499Y24450000D03*
X19262499Y25400000D03*
X19262499Y26350000D03*
%TD*%
D21*
%TO.C,U7*%
X8612500Y20850000D03*
X8612500Y21500000D03*
X8612500Y22150000D03*
X10387500Y22150000D03*
X10387500Y21500000D03*
X10387500Y20850000D03*
%TD*%
D14*
%TO.C,R12*%
X6625000Y24750000D03*
X8275000Y24750000D03*
%TD*%
D22*
%TO.C,C1*%
X22575000Y21600000D03*
X19625000Y21600000D03*
%TD*%
D19*
%TO.C,R10*%
X7450000Y27175000D03*
X7450000Y28825000D03*
%TD*%
D15*
%TO.C,C2*%
X22475000Y28400000D03*
X20925000Y28400000D03*
%TD*%
D23*
%TO.C,JP1*%
X5250000Y21400000D03*
D24*
X6550000Y21400000D03*
%TD*%
D25*
%TO.C,R30*%
X4437500Y17800000D03*
X7362500Y17800000D03*
%TD*%
D19*
%TO.C,R8*%
X1700000Y20675000D03*
X1700000Y22325000D03*
%TD*%
D13*
%TO.C,C5*%
X16250000Y17400000D03*
X18150000Y17400000D03*
%TD*%
D19*
%TO.C,R9*%
X1700000Y17075000D03*
X1700000Y18725000D03*
%TD*%
D26*
%TO.C,L1*%
X17550000Y21300000D03*
X13850000Y21300000D03*
%TD*%
M02*
