%TF.GenerationSoftware,KiCad,Pcbnew,9.0.7*%
%TF.CreationDate,2026-09-28T17:22:57+02:00*%
%TF.ProjectId,interface,696e7465-7266-4616-9365-2e6b69636164,J*%
%TF.SameCoordinates,PX6b18fe0PY7de2900*%
%TF.FileFunction,Copper,L3,Inr*%
%TF.FilePolarity,Positive*%
%FSLAX46Y46*%
G04 Gerber Fmt 4.6, Leading zero omitted, Abs format (unit mm)*
G04 Created by KiCad (PCBNEW 9.0.7) date 2026-09-28 17:22:57*
%MOMM*%
%LPD*%
G01*
G04 APERTURE LIST*
%TA.AperFunction,ComponentPad*%
%ADD10C,1.100000*%
%TD*%
%TA.AperFunction,ViaPad*%
%ADD11C,0.480000*%
%TD*%
%TA.AperFunction,Conductor*%
%ADD12C,0.150000*%
%TD*%
%TA.AperFunction,Conductor*%
%ADD13C,0.300000*%
%TD*%
G04 APERTURE END LIST*
D10*
%TO.N,/SYS_5V*%
%TO.C,J4*%
X3300000Y29700000D03*
%TO.N,/GND*%
X3300000Y28430000D03*
%TO.N,/+3V3*%
X3300000Y27160000D03*
%TO.N,/UART_TX_MCU*%
X3300000Y25890000D03*
%TO.N,/UART_RX_MCU*%
X3300000Y24620000D03*
%TD*%
D11*
%TO.N,/GND*%
X19625000Y20500000D03*
X20050000Y28400000D03*
X19000000Y17400000D03*
X13900000Y11500000D03*
X12800000Y29625000D03*
X19625000Y23000000D03*
X11475000Y23800000D03*
X13450000Y16350000D03*
%TO.N,/+24V*%
X5350000Y16400000D03*
%TO.N,/AS10_TX*%
X1700000Y17075000D03*
X14575000Y16225000D03*
%TO.N,/AS10_RX*%
X1700000Y22325000D03*
X7925000Y19125000D03*
%TO.N,/SYS_5V*%
X8600000Y22150000D03*
X10375000Y20875000D03*
%TO.N,/UVLO*%
X8600000Y27500000D03*
X13950000Y26675000D03*
%TO.N,/OVP*%
X8375000Y28600000D03*
X13325000Y28400000D03*
X6625000Y24750000D03*
%TO.N,/EF_RTN*%
X8475000Y24900000D03*
X9625000Y26050000D03*
%TO.N,/EF_ILIM*%
X13125000Y24750000D03*
X13025000Y28975000D03*
%TO.N,/EF_DVDT*%
X10450000Y30375000D03*
X12800000Y28000000D03*
%TO.N,/VIN*%
X12650000Y26050000D03*
X23200000Y25400000D03*
%TO.N,/+5V_RAW*%
X14250000Y19000000D03*
X21300000Y26125000D03*
X8925000Y20100000D03*
X11500000Y17350000D03*
%TD*%
D12*
%TO.N,/OVP*%
X13075000Y28425000D02*
X13050000Y28425000D01*
X8475000Y28500000D02*
X8375000Y28600000D01*
X13000000Y28450000D02*
X12975000Y28475000D01*
X13100000Y28400000D02*
X13075000Y28425000D01*
X6750000Y24875000D02*
X6625000Y24750000D01*
X12975000Y28475000D02*
X12900000Y28475000D01*
X6750000Y26975000D02*
X6750000Y24875000D01*
X8375000Y28600000D02*
X6750000Y26975000D01*
X13325000Y28400000D02*
X13100000Y28400000D01*
X13050000Y28425000D02*
X13025000Y28450000D01*
X12875000Y28500000D02*
X8475000Y28500000D01*
X13025000Y28450000D02*
X13000000Y28450000D01*
X12900000Y28475000D02*
X12875000Y28500000D01*
D13*
%TO.N,/+5V_RAW*%
X20850000Y25650000D02*
X19725000Y24525000D01*
X19725000Y24500000D02*
X14375000Y19150000D01*
X19725000Y24525000D02*
X19725000Y24500000D01*
X14375000Y19125000D02*
X14250000Y19000000D01*
X20850000Y25675000D02*
X20850000Y25650000D01*
X14375000Y19150000D02*
X14375000Y19125000D01*
X21300000Y26125000D02*
X20850000Y25675000D01*
%TD*%
%TA.AperFunction,Conductor*%
%TO.N,/GND*%
G36*
X23593039Y31780315D02*
G01*
X23638794Y31727511D01*
X23650000Y31676000D01*
X23650000Y25863613D01*
X23630315Y25796574D01*
X23577511Y25750819D01*
X23508353Y25740875D01*
X23464000Y25756226D01*
X23370030Y25810480D01*
X23370027Y25810481D01*
X23257993Y25840500D01*
X23142007Y25840500D01*
X23029971Y25810481D01*
X22929527Y25752488D01*
X22929524Y25752486D01*
X22847514Y25670476D01*
X22847512Y25670473D01*
X22789519Y25570029D01*
X22759500Y25457993D01*
X22759500Y25342008D01*
X22789519Y25229972D01*
X22805120Y25202951D01*
X22847512Y25129527D01*
X22929527Y25047512D01*
X23029973Y24989519D01*
X23142007Y24959500D01*
X23142009Y24959500D01*
X23257991Y24959500D01*
X23257993Y24959500D01*
X23370027Y24989519D01*
X23464001Y25043776D01*
X23531899Y25060248D01*
X23597926Y25037396D01*
X23641117Y24982475D01*
X23650000Y24936388D01*
X23650000Y16074000D01*
X23630315Y16006961D01*
X23577511Y15961206D01*
X23526000Y15950000D01*
X17610000Y15950000D01*
X17610000Y11124000D01*
X17590315Y11056961D01*
X17537511Y11011206D01*
X17486000Y11000000D01*
X3374000Y11000000D01*
X3306961Y11019685D01*
X3261206Y11072489D01*
X3250000Y11124000D01*
X3250000Y15950000D01*
X474000Y15950000D01*
X406961Y15969685D01*
X361206Y16022489D01*
X350000Y16074000D01*
X350000Y16457993D01*
X4909500Y16457993D01*
X4909500Y16342008D01*
X4939519Y16229972D01*
X4968515Y16179750D01*
X4997512Y16129527D01*
X5079527Y16047512D01*
X5179973Y15989519D01*
X5292007Y15959500D01*
X5292009Y15959500D01*
X5407991Y15959500D01*
X5407993Y15959500D01*
X5520027Y15989519D01*
X5620473Y16047512D01*
X5702488Y16129527D01*
X5760481Y16229973D01*
X5774687Y16282993D01*
X14134500Y16282993D01*
X14134500Y16167008D01*
X14164519Y16054972D01*
X14183274Y16022489D01*
X14222512Y15954527D01*
X14304527Y15872512D01*
X14404973Y15814519D01*
X14517007Y15784500D01*
X14517009Y15784500D01*
X14632991Y15784500D01*
X14632993Y15784500D01*
X14745027Y15814519D01*
X14845473Y15872512D01*
X14927488Y15954527D01*
X14985481Y16054973D01*
X15015500Y16167007D01*
X15015500Y16282993D01*
X14985481Y16395027D01*
X14927488Y16495473D01*
X14845473Y16577488D01*
X14795250Y16606485D01*
X14745028Y16635481D01*
X14689010Y16650491D01*
X14632993Y16665500D01*
X14517007Y16665500D01*
X14404971Y16635481D01*
X14304527Y16577488D01*
X14304524Y16577486D01*
X14222514Y16495476D01*
X14222512Y16495473D01*
X14164519Y16395029D01*
X14134500Y16282993D01*
X5774687Y16282993D01*
X5790500Y16342007D01*
X5790500Y16457993D01*
X5760481Y16570027D01*
X5702488Y16670473D01*
X5620473Y16752488D01*
X5570250Y16781485D01*
X5520028Y16810481D01*
X5464010Y16825491D01*
X5407993Y16840500D01*
X5292007Y16840500D01*
X5179971Y16810481D01*
X5079527Y16752488D01*
X5079524Y16752486D01*
X4997514Y16670476D01*
X4997512Y16670473D01*
X4939519Y16570029D01*
X4909500Y16457993D01*
X350000Y16457993D01*
X350000Y17132993D01*
X1259500Y17132993D01*
X1259500Y17017007D01*
X1264724Y16997512D01*
X1289519Y16904972D01*
X1318515Y16854750D01*
X1347512Y16804527D01*
X1429527Y16722512D01*
X1529973Y16664519D01*
X1642007Y16634500D01*
X1642009Y16634500D01*
X1757991Y16634500D01*
X1757993Y16634500D01*
X1870027Y16664519D01*
X1970473Y16722512D01*
X2052488Y16804527D01*
X2110481Y16904973D01*
X2140500Y17017007D01*
X2140500Y17132993D01*
X2110481Y17245027D01*
X2052488Y17345473D01*
X1989968Y17407993D01*
X11059500Y17407993D01*
X11059500Y17292008D01*
X11089519Y17179972D01*
X11116643Y17132993D01*
X11147512Y17079527D01*
X11229527Y16997512D01*
X11329973Y16939519D01*
X11442007Y16909500D01*
X11442009Y16909500D01*
X11557991Y16909500D01*
X11557993Y16909500D01*
X11670027Y16939519D01*
X11770473Y16997512D01*
X11852488Y17079527D01*
X11910481Y17179973D01*
X11940500Y17292007D01*
X11940500Y17407993D01*
X11910481Y17520027D01*
X11852488Y17620473D01*
X11770473Y17702488D01*
X11720250Y17731485D01*
X11670028Y17760481D01*
X11614010Y17775491D01*
X11557993Y17790500D01*
X11442007Y17790500D01*
X11329971Y17760481D01*
X11229527Y17702488D01*
X11229524Y17702486D01*
X11147514Y17620476D01*
X11147512Y17620473D01*
X11089519Y17520029D01*
X11059500Y17407993D01*
X1989968Y17407993D01*
X1970473Y17427488D01*
X1920250Y17456485D01*
X1870028Y17485481D01*
X1814010Y17500491D01*
X1757993Y17515500D01*
X1642007Y17515500D01*
X1529971Y17485481D01*
X1429527Y17427488D01*
X1429524Y17427486D01*
X1347514Y17345476D01*
X1347512Y17345473D01*
X1289519Y17245029D01*
X1272088Y17179973D01*
X1259500Y17132993D01*
X350000Y17132993D01*
X350000Y19182993D01*
X7484500Y19182993D01*
X7484500Y19067008D01*
X7514519Y18954972D01*
X7518600Y18947904D01*
X7572512Y18854527D01*
X7654527Y18772512D01*
X7754973Y18714519D01*
X7867007Y18684500D01*
X7867009Y18684500D01*
X7982991Y18684500D01*
X7982993Y18684500D01*
X8095027Y18714519D01*
X8195473Y18772512D01*
X8277488Y18854527D01*
X8335481Y18954973D01*
X8363085Y19057993D01*
X13809500Y19057993D01*
X13809500Y18942008D01*
X13839519Y18829972D01*
X13868515Y18779750D01*
X13897512Y18729527D01*
X13979527Y18647512D01*
X14079973Y18589519D01*
X14192007Y18559500D01*
X14192009Y18559500D01*
X14307991Y18559500D01*
X14307993Y18559500D01*
X14420027Y18589519D01*
X14520473Y18647512D01*
X14602488Y18729527D01*
X14660481Y18829973D01*
X14690500Y18942007D01*
X14690500Y18942011D01*
X14692079Y18947904D01*
X14724171Y19003490D01*
X20005470Y24284788D01*
X20031458Y24329804D01*
X20051161Y24355481D01*
X21130469Y25434788D01*
X21156457Y25479803D01*
X21176156Y25505476D01*
X21330662Y25659981D01*
X21386243Y25692070D01*
X21470027Y25714519D01*
X21570473Y25772512D01*
X21652488Y25854527D01*
X21710481Y25954973D01*
X21740500Y26067007D01*
X21740500Y26182993D01*
X21710481Y26295027D01*
X21652488Y26395473D01*
X21570473Y26477488D01*
X21520250Y26506485D01*
X21470028Y26535481D01*
X21410772Y26551358D01*
X21357993Y26565500D01*
X21242007Y26565500D01*
X21129971Y26535481D01*
X21029527Y26477488D01*
X21029524Y26477486D01*
X20947514Y26395476D01*
X20947512Y26395473D01*
X20889519Y26295029D01*
X20867070Y26211246D01*
X20834976Y26155659D01*
X20569531Y25890214D01*
X20569527Y25890209D01*
X20543543Y25845202D01*
X20523837Y25819521D01*
X19444531Y24740214D01*
X19444527Y24740209D01*
X19418543Y24695202D01*
X19398837Y24669521D01*
X14185190Y19455874D01*
X14129605Y19423781D01*
X14079974Y19410482D01*
X14079973Y19410482D01*
X13979527Y19352488D01*
X13979524Y19352486D01*
X13897514Y19270476D01*
X13897512Y19270473D01*
X13839519Y19170029D01*
X13809500Y19057993D01*
X8363085Y19057993D01*
X8365500Y19067007D01*
X8365500Y19182993D01*
X8335481Y19295027D01*
X8277488Y19395473D01*
X8195473Y19477488D01*
X8145250Y19506485D01*
X8095028Y19535481D01*
X8039010Y19550491D01*
X7982993Y19565500D01*
X7867007Y19565500D01*
X7754971Y19535481D01*
X7654527Y19477488D01*
X7654524Y19477486D01*
X7572514Y19395476D01*
X7572512Y19395473D01*
X7514519Y19295029D01*
X7484500Y19182993D01*
X350000Y19182993D01*
X350000Y20157993D01*
X8484500Y20157993D01*
X8484500Y20042008D01*
X8514519Y19929972D01*
X8543515Y19879750D01*
X8572512Y19829527D01*
X8654527Y19747512D01*
X8754973Y19689519D01*
X8867007Y19659500D01*
X8867009Y19659500D01*
X8982991Y19659500D01*
X8982993Y19659500D01*
X9095027Y19689519D01*
X9195473Y19747512D01*
X9277488Y19829527D01*
X9335481Y19929973D01*
X9365500Y20042007D01*
X9365500Y20157993D01*
X9335481Y20270027D01*
X9277488Y20370473D01*
X9195473Y20452488D01*
X9145250Y20481485D01*
X9095028Y20510481D01*
X9039010Y20525491D01*
X8982993Y20540500D01*
X8867007Y20540500D01*
X8754971Y20510481D01*
X8654527Y20452488D01*
X8654524Y20452486D01*
X8572514Y20370476D01*
X8572512Y20370473D01*
X8514519Y20270029D01*
X8484500Y20157993D01*
X350000Y20157993D01*
X350000Y20932993D01*
X9934500Y20932993D01*
X9934500Y20817008D01*
X9964519Y20704972D01*
X9993515Y20654750D01*
X10022512Y20604527D01*
X10104527Y20522512D01*
X10204973Y20464519D01*
X10317007Y20434500D01*
X10317009Y20434500D01*
X10432991Y20434500D01*
X10432993Y20434500D01*
X10545027Y20464519D01*
X10645473Y20522512D01*
X10727488Y20604527D01*
X10785481Y20704973D01*
X10815500Y20817007D01*
X10815500Y20932993D01*
X10785481Y21045027D01*
X10727488Y21145473D01*
X10645473Y21227488D01*
X10595250Y21256485D01*
X10545028Y21285481D01*
X10489010Y21300491D01*
X10432993Y21315500D01*
X10317007Y21315500D01*
X10204971Y21285481D01*
X10104527Y21227488D01*
X10104524Y21227486D01*
X10022514Y21145476D01*
X10022512Y21145473D01*
X9964519Y21045029D01*
X9934500Y20932993D01*
X350000Y20932993D01*
X350000Y22382993D01*
X1259500Y22382993D01*
X1259500Y22267008D01*
X1289519Y22154972D01*
X1318515Y22104750D01*
X1347512Y22054527D01*
X1429527Y21972512D01*
X1529973Y21914519D01*
X1642007Y21884500D01*
X1642009Y21884500D01*
X1757991Y21884500D01*
X1757993Y21884500D01*
X1870027Y21914519D01*
X1970473Y21972512D01*
X2052488Y22054527D01*
X2110481Y22154973D01*
X2124687Y22207993D01*
X8159500Y22207993D01*
X8159500Y22092008D01*
X8189519Y21979972D01*
X8218515Y21929750D01*
X8247512Y21879527D01*
X8329527Y21797512D01*
X8429973Y21739519D01*
X8542007Y21709500D01*
X8542009Y21709500D01*
X8657991Y21709500D01*
X8657993Y21709500D01*
X8770027Y21739519D01*
X8870473Y21797512D01*
X8952488Y21879527D01*
X9010481Y21979973D01*
X9040500Y22092007D01*
X9040500Y22207993D01*
X9010481Y22320027D01*
X8952488Y22420473D01*
X8870473Y22502488D01*
X8820250Y22531485D01*
X8770028Y22560481D01*
X8714010Y22575491D01*
X8657993Y22590500D01*
X8542007Y22590500D01*
X8429971Y22560481D01*
X8329527Y22502488D01*
X8329524Y22502486D01*
X8247514Y22420476D01*
X8247512Y22420473D01*
X8189519Y22320029D01*
X8159500Y22207993D01*
X2124687Y22207993D01*
X2140500Y22267007D01*
X2140500Y22382993D01*
X2110481Y22495027D01*
X2052488Y22595473D01*
X1970473Y22677488D01*
X1920250Y22706485D01*
X1870028Y22735481D01*
X1814010Y22750491D01*
X1757993Y22765500D01*
X1642007Y22765500D01*
X1529971Y22735481D01*
X1429527Y22677488D01*
X1429524Y22677486D01*
X1347514Y22595476D01*
X1347512Y22595473D01*
X1289519Y22495029D01*
X1259500Y22382993D01*
X350000Y22382993D01*
X350000Y27086080D01*
X2549499Y27086080D01*
X2578340Y26941093D01*
X2578343Y26941083D01*
X2634912Y26804512D01*
X2634919Y26804499D01*
X2717048Y26681585D01*
X2717051Y26681581D01*
X2785951Y26612681D01*
X2819436Y26551358D01*
X2814452Y26481666D01*
X2785951Y26437319D01*
X2717051Y26368420D01*
X2717048Y26368416D01*
X2634919Y26245502D01*
X2634912Y26245489D01*
X2578343Y26108918D01*
X2578340Y26108908D01*
X2549500Y25963921D01*
X2549500Y25963918D01*
X2549500Y25816082D01*
X2549500Y25816080D01*
X2549499Y25816080D01*
X2578340Y25671093D01*
X2578343Y25671083D01*
X2634912Y25534512D01*
X2634919Y25534499D01*
X2717048Y25411585D01*
X2717051Y25411581D01*
X2785951Y25342681D01*
X2819436Y25281358D01*
X2814452Y25211666D01*
X2785951Y25167319D01*
X2717051Y25098420D01*
X2717048Y25098416D01*
X2634919Y24975502D01*
X2634912Y24975489D01*
X2578343Y24838918D01*
X2578340Y24838908D01*
X2549500Y24693921D01*
X2549500Y24693918D01*
X2549500Y24546082D01*
X2549500Y24546080D01*
X2549499Y24546080D01*
X2578340Y24401093D01*
X2578343Y24401083D01*
X2634912Y24264512D01*
X2634919Y24264499D01*
X2717048Y24141585D01*
X2717051Y24141581D01*
X2821580Y24037052D01*
X2821584Y24037049D01*
X2944498Y23954920D01*
X2944511Y23954913D01*
X3081082Y23898344D01*
X3081087Y23898342D01*
X3081091Y23898342D01*
X3081092Y23898341D01*
X3226079Y23869500D01*
X3226082Y23869500D01*
X3373920Y23869500D01*
X3471462Y23888904D01*
X3518913Y23898342D01*
X3655495Y23954916D01*
X3778416Y24037049D01*
X3882951Y24141584D01*
X3965084Y24264505D01*
X3973486Y24284788D01*
X3977902Y24295453D01*
X4021658Y24401087D01*
X4050500Y24546082D01*
X4050500Y24693918D01*
X4050500Y24693921D01*
X4050499Y24693923D01*
X4031005Y24791929D01*
X4027809Y24807993D01*
X6184500Y24807993D01*
X6184500Y24692007D01*
X6190525Y24669521D01*
X6214519Y24579972D01*
X6234086Y24546082D01*
X6272512Y24479527D01*
X6354527Y24397512D01*
X6454973Y24339519D01*
X6567007Y24309500D01*
X6567009Y24309500D01*
X6682991Y24309500D01*
X6682993Y24309500D01*
X6795027Y24339519D01*
X6895473Y24397512D01*
X6977488Y24479527D01*
X7035481Y24579973D01*
X7065500Y24692007D01*
X7065500Y24807993D01*
X7035481Y24920027D01*
X7035478Y24920032D01*
X7034937Y24921340D01*
X7034385Y24924115D01*
X7033377Y24927877D01*
X7033623Y24927944D01*
X7027647Y24957993D01*
X8034500Y24957993D01*
X8034500Y24842007D01*
X8047918Y24791929D01*
X8064519Y24729972D01*
X8086438Y24692009D01*
X8122512Y24629527D01*
X8204527Y24547512D01*
X8304973Y24489519D01*
X8417007Y24459500D01*
X8417009Y24459500D01*
X8532991Y24459500D01*
X8532993Y24459500D01*
X8645027Y24489519D01*
X8745473Y24547512D01*
X8827488Y24629527D01*
X8885481Y24729973D01*
X8906386Y24807993D01*
X12684500Y24807993D01*
X12684500Y24692007D01*
X12690525Y24669521D01*
X12714519Y24579972D01*
X12734086Y24546082D01*
X12772512Y24479527D01*
X12854527Y24397512D01*
X12954973Y24339519D01*
X13067007Y24309500D01*
X13067009Y24309500D01*
X13182991Y24309500D01*
X13182993Y24309500D01*
X13295027Y24339519D01*
X13395473Y24397512D01*
X13477488Y24479527D01*
X13535481Y24579973D01*
X13565500Y24692007D01*
X13565500Y24807993D01*
X13535481Y24920027D01*
X13477488Y25020473D01*
X13395473Y25102488D01*
X13337497Y25135961D01*
X13295028Y25160481D01*
X13235959Y25176308D01*
X13182993Y25190500D01*
X13067007Y25190500D01*
X12954971Y25160481D01*
X12854527Y25102488D01*
X12854524Y25102486D01*
X12772514Y25020476D01*
X12772512Y25020473D01*
X12714519Y24920029D01*
X12684500Y24807993D01*
X8906386Y24807993D01*
X8915500Y24842007D01*
X8915500Y24957993D01*
X8885481Y25070027D01*
X8827488Y25170473D01*
X8745473Y25252488D01*
X8695250Y25281485D01*
X8645028Y25310481D01*
X8589010Y25325491D01*
X8532993Y25340500D01*
X8417007Y25340500D01*
X8304971Y25310481D01*
X8204527Y25252488D01*
X8204524Y25252486D01*
X8122514Y25170476D01*
X8122512Y25170473D01*
X8064519Y25070029D01*
X8039188Y24975489D01*
X8034500Y24957993D01*
X7027647Y24957993D01*
X7025500Y24968788D01*
X7025500Y26107993D01*
X9184500Y26107993D01*
X9184500Y25992008D01*
X9214519Y25879972D01*
X9234594Y25845202D01*
X9272512Y25779527D01*
X9354527Y25697512D01*
X9454973Y25639519D01*
X9567007Y25609500D01*
X9567009Y25609500D01*
X9682991Y25609500D01*
X9682993Y25609500D01*
X9795027Y25639519D01*
X9895473Y25697512D01*
X9977488Y25779527D01*
X10035481Y25879973D01*
X10065500Y25992007D01*
X10065500Y26107993D01*
X12209500Y26107993D01*
X12209500Y25992008D01*
X12239519Y25879972D01*
X12259594Y25845202D01*
X12297512Y25779527D01*
X12379527Y25697512D01*
X12479973Y25639519D01*
X12592007Y25609500D01*
X12592009Y25609500D01*
X12707991Y25609500D01*
X12707993Y25609500D01*
X12820027Y25639519D01*
X12920473Y25697512D01*
X13002488Y25779527D01*
X13060481Y25879973D01*
X13090500Y25992007D01*
X13090500Y26107993D01*
X13060481Y26220027D01*
X13002488Y26320473D01*
X12920473Y26402488D01*
X12870250Y26431485D01*
X12820028Y26460481D01*
X12764010Y26475491D01*
X12707993Y26490500D01*
X12592007Y26490500D01*
X12479971Y26460481D01*
X12379527Y26402488D01*
X12379524Y26402486D01*
X12297514Y26320476D01*
X12297512Y26320473D01*
X12239519Y26220029D01*
X12209500Y26107993D01*
X10065500Y26107993D01*
X10035481Y26220027D01*
X9977488Y26320473D01*
X9895473Y26402488D01*
X9845250Y26431485D01*
X9795028Y26460481D01*
X9739010Y26475491D01*
X9682993Y26490500D01*
X9567007Y26490500D01*
X9454971Y26460481D01*
X9354527Y26402488D01*
X9354524Y26402486D01*
X9272514Y26320476D01*
X9272512Y26320473D01*
X9214519Y26220029D01*
X9184500Y26107993D01*
X7025500Y26107993D01*
X7025500Y26732993D01*
X13509500Y26732993D01*
X13509500Y26617008D01*
X13539519Y26504972D01*
X13558007Y26472951D01*
X13597512Y26404527D01*
X13679527Y26322512D01*
X13779973Y26264519D01*
X13892007Y26234500D01*
X13892009Y26234500D01*
X14007991Y26234500D01*
X14007993Y26234500D01*
X14120027Y26264519D01*
X14220473Y26322512D01*
X14302488Y26404527D01*
X14360481Y26504973D01*
X14390500Y26617007D01*
X14390500Y26732993D01*
X14360481Y26845027D01*
X14302488Y26945473D01*
X14220473Y27027488D01*
X14165025Y27059501D01*
X14120028Y27085481D01*
X14064010Y27100491D01*
X14007993Y27115500D01*
X13892007Y27115500D01*
X13779971Y27085481D01*
X13679527Y27027488D01*
X13679524Y27027486D01*
X13597514Y26945476D01*
X13597512Y26945473D01*
X13539519Y26845029D01*
X13509500Y26732993D01*
X7025500Y26732993D01*
X7025500Y26809523D01*
X7045185Y26876562D01*
X7061819Y26897204D01*
X7494588Y27329973D01*
X8008287Y27843673D01*
X8069608Y27877156D01*
X8139299Y27872172D01*
X8195233Y27830300D01*
X8219650Y27764836D01*
X8204798Y27696563D01*
X8203354Y27693991D01*
X8189519Y27670030D01*
X8159500Y27557993D01*
X8159500Y27442008D01*
X8189519Y27329972D01*
X8218515Y27279750D01*
X8247512Y27229527D01*
X8329527Y27147512D01*
X8429973Y27089519D01*
X8542007Y27059500D01*
X8542009Y27059500D01*
X8657991Y27059500D01*
X8657993Y27059500D01*
X8770027Y27089519D01*
X8870473Y27147512D01*
X8952488Y27229527D01*
X9010481Y27329973D01*
X9040500Y27442007D01*
X9040500Y27557993D01*
X9010481Y27670027D01*
X8952488Y27770473D01*
X8870473Y27852488D01*
X8819946Y27881660D01*
X8770028Y27910481D01*
X8707428Y27927254D01*
X8657993Y27940500D01*
X8557547Y27940500D01*
X8490508Y27960185D01*
X8444753Y28012989D01*
X8434809Y28082147D01*
X8463834Y28145703D01*
X8507339Y28177880D01*
X8516148Y28181782D01*
X8545027Y28189519D01*
X8582569Y28211195D01*
X8588634Y28213880D01*
X8609480Y28216633D01*
X8638842Y28224500D01*
X12242516Y28224500D01*
X12309555Y28204815D01*
X12355310Y28152011D01*
X12365254Y28082853D01*
X12362294Y28068424D01*
X12359500Y28057993D01*
X12359500Y28057990D01*
X12359500Y27942008D01*
X12389519Y27829972D01*
X12392343Y27825081D01*
X12447512Y27729527D01*
X12529527Y27647512D01*
X12629973Y27589519D01*
X12742007Y27559500D01*
X12742009Y27559500D01*
X12857991Y27559500D01*
X12857993Y27559500D01*
X12970027Y27589519D01*
X13070473Y27647512D01*
X13152488Y27729527D01*
X13210481Y27829973D01*
X13220561Y27867596D01*
X13256926Y27927254D01*
X13319773Y27957783D01*
X13340336Y27959500D01*
X13382991Y27959500D01*
X13382993Y27959500D01*
X13495027Y27989519D01*
X13595473Y28047512D01*
X13677488Y28129527D01*
X13735481Y28229973D01*
X13765500Y28342007D01*
X13765500Y28457993D01*
X13735481Y28570027D01*
X13677488Y28670473D01*
X13595473Y28752488D01*
X13526303Y28792424D01*
X13478089Y28842991D01*
X13464867Y28911598D01*
X13465368Y28916009D01*
X13465498Y28917004D01*
X13465500Y28917007D01*
X13465500Y29032993D01*
X13435481Y29145027D01*
X13377488Y29245473D01*
X13295473Y29327488D01*
X13245250Y29356485D01*
X13195028Y29385481D01*
X13139010Y29400491D01*
X13082993Y29415500D01*
X12967007Y29415500D01*
X12854971Y29385481D01*
X12754527Y29327488D01*
X12754524Y29327486D01*
X12672514Y29245476D01*
X12672512Y29245473D01*
X12614519Y29145029D01*
X12584500Y29032993D01*
X12584500Y28917009D01*
X12584674Y28915687D01*
X12584500Y28914572D01*
X12584500Y28908880D01*
X12583613Y28908880D01*
X12573909Y28846651D01*
X12527529Y28794395D01*
X12461735Y28775500D01*
X8853912Y28775500D01*
X8786873Y28795185D01*
X8746525Y28837500D01*
X8743355Y28842991D01*
X8727488Y28870473D01*
X8645473Y28952488D01*
X8595250Y28981485D01*
X8545028Y29010481D01*
X8461017Y29032991D01*
X8432993Y29040500D01*
X8317007Y29040500D01*
X8204971Y29010481D01*
X8104527Y28952488D01*
X8104524Y28952486D01*
X8022514Y28870476D01*
X8022512Y28870473D01*
X7964519Y28770029D01*
X7934500Y28657993D01*
X7934500Y28600477D01*
X7914815Y28533438D01*
X7898181Y28512796D01*
X6516444Y27131060D01*
X6474500Y27029801D01*
X6474500Y25243347D01*
X6454815Y25176308D01*
X6412502Y25135961D01*
X6354530Y25102490D01*
X6354524Y25102486D01*
X6272514Y25020476D01*
X6272512Y25020473D01*
X6214519Y24920029D01*
X6184500Y24807993D01*
X4027809Y24807993D01*
X4021659Y24838909D01*
X4021656Y24838918D01*
X3965087Y24975489D01*
X3965080Y24975502D01*
X3882951Y25098416D01*
X3882948Y25098420D01*
X3814049Y25167319D01*
X3780564Y25228642D01*
X3785548Y25298334D01*
X3814049Y25342681D01*
X3882948Y25411581D01*
X3882951Y25411584D01*
X3965084Y25534505D01*
X4021658Y25671087D01*
X4041833Y25772512D01*
X4050500Y25816080D01*
X4050500Y25963921D01*
X4021659Y26108908D01*
X4021658Y26108909D01*
X4021658Y26108913D01*
X4002295Y26155659D01*
X3965087Y26245489D01*
X3965080Y26245502D01*
X3882951Y26368416D01*
X3882948Y26368420D01*
X3814049Y26437319D01*
X3780564Y26498642D01*
X3785548Y26568334D01*
X3814049Y26612681D01*
X3882948Y26681581D01*
X3882951Y26681584D01*
X3965084Y26804505D01*
X4021658Y26941087D01*
X4039305Y27029801D01*
X4050500Y27086080D01*
X4050500Y27233921D01*
X4021659Y27378908D01*
X4021658Y27378909D01*
X4021658Y27378913D01*
X3995524Y27442007D01*
X3965087Y27515489D01*
X3965080Y27515502D01*
X3882951Y27638416D01*
X3882948Y27638420D01*
X3778419Y27742949D01*
X3778415Y27742952D01*
X3655501Y27825081D01*
X3655488Y27825088D01*
X3518917Y27881657D01*
X3518907Y27881660D01*
X3373920Y27910500D01*
X3373918Y27910500D01*
X3226082Y27910500D01*
X3226080Y27910500D01*
X3081092Y27881660D01*
X3081082Y27881657D01*
X2944511Y27825088D01*
X2944498Y27825081D01*
X2821584Y27742952D01*
X2821580Y27742949D01*
X2717051Y27638420D01*
X2717048Y27638416D01*
X2634919Y27515502D01*
X2634912Y27515489D01*
X2578343Y27378918D01*
X2578340Y27378908D01*
X2549500Y27233921D01*
X2549500Y27233918D01*
X2549500Y27086082D01*
X2549500Y27086080D01*
X2549499Y27086080D01*
X350000Y27086080D01*
X350000Y29626080D01*
X2549499Y29626080D01*
X2578340Y29481093D01*
X2578343Y29481083D01*
X2634912Y29344512D01*
X2634919Y29344499D01*
X2717048Y29221585D01*
X2717051Y29221581D01*
X2821580Y29117052D01*
X2821584Y29117049D01*
X2944498Y29034920D01*
X2944511Y29034913D01*
X3003496Y29010481D01*
X3081087Y28978342D01*
X3081091Y28978342D01*
X3081092Y28978341D01*
X3226079Y28949500D01*
X3226082Y28949500D01*
X3373920Y28949500D01*
X3471462Y28968904D01*
X3518913Y28978342D01*
X3650848Y29032991D01*
X3655488Y29034913D01*
X3655488Y29034914D01*
X3655495Y29034916D01*
X3778416Y29117049D01*
X3882951Y29221584D01*
X3965084Y29344505D01*
X4021658Y29481087D01*
X4050500Y29626082D01*
X4050500Y29773918D01*
X4050500Y29773921D01*
X4021659Y29918908D01*
X4021658Y29918909D01*
X4021658Y29918913D01*
X4015201Y29934501D01*
X3965087Y30055489D01*
X3965080Y30055502D01*
X3882951Y30178416D01*
X3882948Y30178420D01*
X3778419Y30282949D01*
X3778415Y30282952D01*
X3696003Y30338018D01*
X3655501Y30365081D01*
X3655488Y30365088D01*
X3518917Y30421657D01*
X3518907Y30421660D01*
X3461933Y30432993D01*
X10009500Y30432993D01*
X10009500Y30317008D01*
X10039519Y30204972D01*
X10054852Y30178416D01*
X10097512Y30104527D01*
X10179527Y30022512D01*
X10279973Y29964519D01*
X10392007Y29934500D01*
X10392009Y29934500D01*
X10507991Y29934500D01*
X10507993Y29934500D01*
X10620027Y29964519D01*
X10720473Y30022512D01*
X10802488Y30104527D01*
X10860481Y30204973D01*
X10890500Y30317007D01*
X10890500Y30432993D01*
X10860481Y30545027D01*
X10802488Y30645473D01*
X10720473Y30727488D01*
X10670250Y30756485D01*
X10620028Y30785481D01*
X10564010Y30800491D01*
X10507993Y30815500D01*
X10392007Y30815500D01*
X10279971Y30785481D01*
X10179527Y30727488D01*
X10179524Y30727486D01*
X10097514Y30645476D01*
X10097512Y30645473D01*
X10039519Y30545029D01*
X10009500Y30432993D01*
X3461933Y30432993D01*
X3373920Y30450500D01*
X3373918Y30450500D01*
X3226082Y30450500D01*
X3226080Y30450500D01*
X3081092Y30421660D01*
X3081082Y30421657D01*
X2944511Y30365088D01*
X2944498Y30365081D01*
X2821584Y30282952D01*
X2821580Y30282949D01*
X2717051Y30178420D01*
X2717048Y30178416D01*
X2634919Y30055502D01*
X2634912Y30055489D01*
X2578343Y29918918D01*
X2578340Y29918908D01*
X2549500Y29773921D01*
X2549500Y29773918D01*
X2549500Y29626082D01*
X2549500Y29626080D01*
X2549499Y29626080D01*
X350000Y29626080D01*
X350000Y31676000D01*
X369685Y31743039D01*
X422489Y31788794D01*
X474000Y31800000D01*
X23526000Y31800000D01*
X23593039Y31780315D01*
G37*
%TD.AperFunction*%
%TD*%
M02*
