%TF.GenerationSoftware,KiCad,Pcbnew,9.0.7*%
%TF.CreationDate,2026-09-28T17:22:57+02:00*%
%TF.ProjectId,main,6d61696e-2e6b-4696-9361-645f70636258,J*%
%TF.SameCoordinates,PX5f5e100PY73c6ac0*%
%TF.FileFunction,Copper,L4,Bot*%
%TF.FilePolarity,Positive*%
%FSLAX46Y46*%
G04 Gerber Fmt 4.6, Leading zero omitted, Abs format (unit mm)*
G04 Created by KiCad (PCBNEW 9.0.7) date 2026-09-28 17:22:57*
%MOMM*%
%LPD*%
G01*
G04 APERTURE LIST*
G04 Aperture macros list*
%AMRoundRect*
0 Rectangle with rounded corners*
0 $1 Rounding radius*
0 $2 $3 $4 $5 $6 $7 $8 $9 X,Y pos of 4 corners*
0 Add a 4 corners polygon primitive as box body*
4,1,4,$2,$3,$4,$5,$6,$7,$8,$9,$2,$3,0*
0 Add four circle primitives for the rounded corners*
1,1,$1+$1,$2,$3*
1,1,$1+$1,$4,$5*
1,1,$1+$1,$6,$7*
1,1,$1+$1,$8,$9*
0 Add four rect primitives between the rounded corners*
20,1,$1+$1,$2,$3,$4,$5,0*
20,1,$1+$1,$4,$5,$6,$7,0*
20,1,$1+$1,$6,$7,$8,$9,0*
20,1,$1+$1,$8,$9,$2,$3,0*%
G04 Aperture macros list end*
%TA.AperFunction,HeatsinkPad*%
%ADD10C,0.600000*%
%TD*%
%TA.AperFunction,ComponentPad*%
%ADD11C,1.100000*%
%TD*%
%TA.AperFunction,SMDPad,CuDef*%
%ADD12RoundRect,0.225000X0.225000X0.375000X-0.225000X0.375000X-0.225000X-0.375000X0.225000X-0.375000X0*%
%TD*%
%TA.AperFunction,SMDPad,CuDef*%
%ADD13RoundRect,0.225000X0.250000X-0.225000X0.250000X0.225000X-0.250000X0.225000X-0.250000X-0.225000X0*%
%TD*%
%TA.AperFunction,SMDPad,CuDef*%
%ADD14RoundRect,0.200000X0.275000X-0.200000X0.275000X0.200000X-0.275000X0.200000X-0.275000X-0.200000X0*%
%TD*%
%TA.AperFunction,SMDPad,CuDef*%
%ADD15RoundRect,0.250000X0.250000X0.475000X-0.250000X0.475000X-0.250000X-0.475000X0.250000X-0.475000X0*%
%TD*%
%TA.AperFunction,SMDPad,CuDef*%
%ADD16RoundRect,0.200000X0.200000X0.275000X-0.200000X0.275000X-0.200000X-0.275000X0.200000X-0.275000X0*%
%TD*%
%TA.AperFunction,SMDPad,CuDef*%
%ADD17R,0.800000X0.500000*%
%TD*%
%TA.AperFunction,SMDPad,CuDef*%
%ADD18R,0.800000X0.400000*%
%TD*%
%TA.AperFunction,SMDPad,CuDef*%
%ADD19RoundRect,0.225000X0.225000X0.250000X-0.225000X0.250000X-0.225000X-0.250000X0.225000X-0.250000X0*%
%TD*%
%TA.AperFunction,SMDPad,CuDef*%
%ADD20RoundRect,0.250000X0.475000X-0.250000X0.475000X0.250000X-0.475000X0.250000X-0.475000X-0.250000X0*%
%TD*%
%TA.AperFunction,SMDPad,CuDef*%
%ADD21RoundRect,0.150000X0.512500X0.150000X-0.512500X0.150000X-0.512500X-0.150000X0.512500X-0.150000X0*%
%TD*%
%TA.AperFunction,SMDPad,CuDef*%
%ADD22RoundRect,0.250000X0.300000X0.300000X-0.300000X0.300000X-0.300000X-0.300000X0.300000X-0.300000X0*%
%TD*%
%TA.AperFunction,SMDPad,CuDef*%
%ADD23RoundRect,0.150000X-0.150000X-0.425000X0.150000X-0.425000X0.150000X0.425000X-0.150000X0.425000X0*%
%TD*%
%TA.AperFunction,SMDPad,CuDef*%
%ADD24RoundRect,0.075000X-0.075000X-0.500000X0.075000X-0.500000X0.075000X0.500000X-0.075000X0.500000X0*%
%TD*%
%TA.AperFunction,SMDPad,CuDef*%
%ADD25RoundRect,0.250000X-0.840000X-0.750000X0.840000X-0.750000X0.840000X0.750000X-0.840000X0.750000X0*%
%TD*%
%TA.AperFunction,SMDPad,CuDef*%
%ADD26RoundRect,0.150000X0.150000X-0.512500X0.150000X0.512500X-0.150000X0.512500X-0.150000X-0.512500X0*%
%TD*%
%TA.AperFunction,SMDPad,CuDef*%
%ADD27R,1.500000X2.400000*%
%TD*%
%TA.AperFunction,ViaPad*%
%ADD28C,0.600000*%
%TD*%
%TA.AperFunction,ViaPad*%
%ADD29C,0.480000*%
%TD*%
%TA.AperFunction,Conductor*%
%ADD30C,0.150000*%
%TD*%
%TA.AperFunction,Conductor*%
%ADD31C,0.300000*%
%TD*%
%TA.AperFunction,Conductor*%
%ADD32C,0.225000*%
%TD*%
G04 APERTURE END LIST*
D10*
%TO.P,U1,41*%
%TO.N,/GND*%
X23000000Y12090000D03*
X23000000Y10690000D03*
X23700000Y12790000D03*
X23700000Y11390000D03*
X23700000Y9990000D03*
X24400000Y12090000D03*
X24400000Y10690000D03*
X25100000Y12790000D03*
X25100000Y11390000D03*
X25100000Y9990000D03*
X25800000Y12090000D03*
X25800000Y10690000D03*
%TD*%
D11*
%TO.P,J5,1*%
%TO.N,/SYS_5V*%
X15600000Y19100000D03*
%TO.P,J5,2*%
%TO.N,/GND*%
X15600000Y17830000D03*
%TO.P,J5,3*%
%TO.N,/+3V3*%
X15600000Y16560000D03*
%TO.P,J5,4*%
%TO.N,/UART_TX_MCU*%
X15600000Y15290000D03*
%TO.P,J5,5*%
%TO.N,/UART_RX_MCU*%
X15600000Y14020000D03*
%TD*%
D12*
%TO.P,D2,1*%
%TO.N,/USB_LIMITED*%
X24650000Y6400000D03*
%TO.P,D2,2*%
%TO.N,/GND*%
X21350000Y6400000D03*
%TD*%
D13*
%TO.P,C15,1*%
%TO.N,/+3V3*%
X30800000Y5625000D03*
%TO.P,C15,2*%
%TO.N,/GND*%
X30800000Y7175000D03*
%TD*%
%TO.P,C18,1*%
%TO.N,/SYS_5V*%
X13700000Y14125000D03*
%TO.P,C18,2*%
%TO.N,/GND*%
X13700000Y15675000D03*
%TD*%
D14*
%TO.P,R19,1*%
%TO.N,/USB_DN*%
X26900000Y7375000D03*
%TO.P,R19,2*%
%TO.N,/USB_DN_MCU*%
X26900000Y9025000D03*
%TD*%
D15*
%TO.P,C21,1*%
%TO.N,/+3V3*%
X13450000Y6650000D03*
%TO.P,C21,2*%
%TO.N,/GND*%
X11550000Y6650000D03*
%TD*%
D16*
%TO.P,R14,1*%
%TO.N,/USB_ILIM*%
X18475000Y18200000D03*
%TO.P,R14,2*%
%TO.N,/USB_ILIM_MID*%
X16825000Y18200000D03*
%TD*%
%TO.P,R21,1*%
%TO.N,/USB_VBUS*%
X34625000Y7900000D03*
%TO.P,R21,2*%
%TO.N,/USB_SENSE*%
X32975000Y7900000D03*
%TD*%
%TO.P,R23,1*%
%TO.N,/+3V3*%
X2625000Y15150000D03*
%TO.P,R23,2*%
%TO.N,/ESP_EN*%
X975000Y15150000D03*
%TD*%
D17*
%TO.P,RN1,1*%
%TO.N,/SD_D2*%
X20100000Y11800000D03*
D18*
%TO.P,RN1,2*%
%TO.N,/SD_D3*%
X20100000Y11000000D03*
%TO.P,RN1,3*%
%TO.N,/SD_CMD*%
X20100000Y10200000D03*
D17*
%TO.P,RN1,4*%
%TO.N,/SD_D0*%
X20100000Y9400000D03*
%TO.P,RN1,5*%
%TO.N,/+3V3*%
X18300000Y9400000D03*
D18*
%TO.P,RN1,6*%
X18300000Y10200000D03*
%TO.P,RN1,7*%
X18300000Y11000000D03*
D17*
%TO.P,RN1,8*%
X18300000Y11800000D03*
%TD*%
D16*
%TO.P,R16,1*%
%TO.N,/USB_LIMITED*%
X23825000Y9000000D03*
%TO.P,R16,2*%
%TO.N,/GND*%
X22175000Y9000000D03*
%TD*%
D15*
%TO.P,C14,1*%
%TO.N,/+3V3*%
X28550000Y5400000D03*
%TO.P,C14,2*%
%TO.N,/GND*%
X26650000Y5400000D03*
%TD*%
D19*
%TO.P,C12,1*%
%TO.N,/ESP_EN*%
X5575000Y15150000D03*
%TO.P,C12,2*%
%TO.N,/GND*%
X4025000Y15150000D03*
%TD*%
D15*
%TO.P,C17,1*%
%TO.N,/SYS_5V*%
X17450000Y6900000D03*
%TO.P,C17,2*%
%TO.N,/GND*%
X15550000Y6900000D03*
%TD*%
D20*
%TO.P,C20,1*%
%TO.N,/+3V3*%
X4500000Y9450000D03*
%TO.P,C20,2*%
%TO.N,/GND*%
X4500000Y11350000D03*
%TD*%
D16*
%TO.P,R18,1*%
%TO.N,/CC2*%
X34625000Y10400000D03*
%TO.P,R18,2*%
%TO.N,/GND*%
X32975000Y10400000D03*
%TD*%
%TO.P,R17,1*%
%TO.N,/CC1*%
X2625000Y12400000D03*
%TO.P,R17,2*%
%TO.N,/GND*%
X975000Y12400000D03*
%TD*%
D21*
%TO.P,U5,1*%
%TO.N,/USB_DN*%
X30637500Y13450000D03*
%TO.P,U5,2*%
%TO.N,/GND*%
X30637500Y12500000D03*
%TO.P,U5,3*%
%TO.N,/USB_DP*%
X30637500Y11550000D03*
%TO.P,U5,4*%
X28362500Y11550000D03*
%TO.P,U5,5*%
%TO.N,/USB_VBUS*%
X28362500Y12500000D03*
%TO.P,U5,6*%
%TO.N,/USB_DN*%
X28362500Y13450000D03*
%TD*%
D16*
%TO.P,R20,1*%
%TO.N,/USB_DP*%
X31225000Y8800000D03*
%TO.P,R20,2*%
%TO.N,/USB_DP_MCU*%
X29575000Y8800000D03*
%TD*%
D19*
%TO.P,C19,1*%
%TO.N,/BST_MAIN*%
X11975000Y14900000D03*
%TO.P,C19,2*%
%TO.N,/SW_MAIN*%
X10425000Y14900000D03*
%TD*%
D16*
%TO.P,R28,1*%
%TO.N,/UART_RX_MCU*%
X12825000Y18400000D03*
%TO.P,R28,2*%
%TO.N,/+3V3*%
X11175000Y18400000D03*
%TD*%
%TO.P,R22,1*%
%TO.N,/USB_SENSE*%
X34625000Y5800000D03*
%TO.P,R22,2*%
%TO.N,/GND*%
X32975000Y5800000D03*
%TD*%
D21*
%TO.P,U8,1*%
%TO.N,/+3V3*%
X14637500Y12350000D03*
%TO.P,U8,2*%
%TO.N,/SYS_5V*%
X14637500Y11400000D03*
%TO.P,U8,3*%
X14637500Y10450000D03*
%TO.P,U8,4*%
%TO.N,/GND*%
X12362500Y10450000D03*
%TO.P,U8,5*%
%TO.N,/SW_MAIN*%
X12362500Y11400000D03*
%TO.P,U8,6*%
%TO.N,/BST_MAIN*%
X12362500Y12350000D03*
%TD*%
D16*
%TO.P,R24,1*%
%TO.N,/+3V3*%
X2625000Y6900000D03*
%TO.P,R24,2*%
%TO.N,/ESP_BOOT*%
X975000Y6900000D03*
%TD*%
D22*
%TO.P,D1,1*%
%TO.N,/SYS_5V*%
X4400000Y19200000D03*
%TO.P,D1,2*%
%TO.N,/USB_LIMITED*%
X1600000Y19200000D03*
%TD*%
D16*
%TO.P,R15,1*%
%TO.N,/USB_ILIM_MID*%
X18475000Y15900000D03*
%TO.P,R15,2*%
%TO.N,/GND*%
X16825000Y15900000D03*
%TD*%
D23*
%TO.P,J3,A1*%
%TO.N,/GND*%
X26300000Y15370000D03*
%TO.P,J3,A4*%
%TO.N,/USB_VBUS*%
X27100000Y15370000D03*
D24*
%TO.P,J3,A5*%
%TO.N,/CC1*%
X28250000Y15370000D03*
%TO.P,J3,A6*%
%TO.N,/USB_DP*%
X29250000Y15370000D03*
%TO.P,J3,A7*%
%TO.N,/USB_DN*%
X29750000Y15370000D03*
%TO.P,J3,A8*%
%TO.N,unconnected-(J3-SBU1-PadA8)*%
X30750000Y15370000D03*
D23*
%TO.P,J3,A9*%
%TO.N,/USB_VBUS*%
X31900000Y15370000D03*
%TO.P,J3,A12*%
%TO.N,/GND*%
X32700000Y15370000D03*
%TO.P,J3,B1*%
X32700000Y15370000D03*
%TO.P,J3,B4*%
%TO.N,/USB_VBUS*%
X31900000Y15370000D03*
D24*
%TO.P,J3,B5*%
%TO.N,/CC2*%
X31250000Y15370000D03*
%TO.P,J3,B6*%
%TO.N,/USB_DP*%
X30250000Y15370000D03*
%TO.P,J3,B7*%
%TO.N,/USB_DN*%
X28750000Y15370000D03*
%TO.P,J3,B8*%
%TO.N,unconnected-(J3-SBU2-PadB8)*%
X27750000Y15370000D03*
D23*
%TO.P,J3,B9*%
%TO.N,/USB_VBUS*%
X27100000Y15370000D03*
%TO.P,J3,B12*%
%TO.N,/GND*%
X26300000Y15370000D03*
D25*
%TO.P,J3,S1*%
X24390000Y19875000D03*
X24390000Y15945000D03*
X34610000Y19875000D03*
X34610000Y15945000D03*
%TD*%
D26*
%TO.P,U4,1*%
%TO.N,/USB_VBUS*%
X21900000Y17862500D03*
%TO.P,U4,2*%
%TO.N,/GND*%
X20950000Y17862500D03*
%TO.P,U4,3*%
%TO.N,/USB_VBUS*%
X20000000Y17862500D03*
%TO.P,U4,4*%
%TO.N,unconnected-(U4-FAULT-Pad4)*%
X20000000Y20137500D03*
%TO.P,U4,5*%
%TO.N,/USB_ILIM*%
X20950000Y20137500D03*
%TO.P,U4,6*%
%TO.N,/USB_LIMITED*%
X21900000Y20137500D03*
%TD*%
D19*
%TO.P,C10,1*%
%TO.N,/USB_VBUS*%
X21575000Y14600000D03*
%TO.P,C10,2*%
%TO.N,/GND*%
X20025000Y14600000D03*
%TD*%
%TO.P,C11,1*%
%TO.N,/USB_VBUS*%
X34575000Y12900000D03*
%TO.P,C11,2*%
%TO.N,/GND*%
X33025000Y12900000D03*
%TD*%
D27*
%TO.P,L2,1*%
%TO.N,/SW_MAIN*%
X10350000Y10100000D03*
%TO.P,L2,2*%
%TO.N,/+3V3*%
X6650000Y10100000D03*
%TD*%
D28*
%TO.N,/GND*%
X33056700Y19601300D03*
X22792900Y18782500D03*
X2075000Y14293300D03*
X15766400Y10621800D03*
X9674400Y1498800D03*
X1203500Y5148300D03*
X32589600Y9338000D03*
%TO.N,/+3V3*%
X2737600Y1887400D03*
X27689000Y6261000D03*
X7074600Y2955900D03*
X3575400Y14199600D03*
X8407300Y15621400D03*
%TO.N,/ESP_EN*%
X18367200Y16830000D03*
%TO.N,/USB_DN_MCU*%
X26900000Y9885800D03*
X18764600Y3893800D03*
%TO.N,/USB_DP_MCU*%
X28871300Y8096300D03*
X18366000Y3194800D03*
%TO.N,/SD_CMD*%
X23944200Y2562600D03*
X7234300Y15306500D03*
%TO.N,/SD_D0*%
X11207400Y14229500D03*
X25265000Y2552300D03*
X20726700Y8695900D03*
%TO.N,/SD_CLK_MCU*%
X26535000Y2563200D03*
X4644000Y4117400D03*
%TO.N,/USB_SENSE*%
X31405000Y2578400D03*
%TO.N,/ESP_BOOT*%
X32912800Y3372200D03*
X2738100Y4650200D03*
%TO.N,/SD_D1*%
X9545500Y4620500D03*
X12636000Y14124600D03*
X32155000Y7307600D03*
%TO.N,/SD_D2*%
X32084900Y9897500D03*
X18760100Y12513200D03*
X6133200Y14238500D03*
%TO.N,/SD_D3*%
X31028400Y10793700D03*
X20965600Y10742300D03*
X6478100Y15315200D03*
%TO.N,/UART_RX_MCU*%
X32568900Y17485300D03*
X13526200Y19101200D03*
%TO.N,/UART_TX_MCU*%
X33445400Y17612100D03*
%TO.N,/SD_CLK*%
X7834200Y14289100D03*
X6283200Y4109800D03*
%TO.N,/USB_DN*%
X27616600Y8091600D03*
X29500000Y13450000D03*
%TO.N,/USB_DP*%
X27561800Y10814800D03*
X29285400Y16426300D03*
%TO.N,/SYS_5V*%
X13500000Y11615500D03*
X18392700Y6092000D03*
X5463200Y19601300D03*
%TO.N,/USB_VBUS*%
X27100000Y14142000D03*
X31937400Y14329900D03*
X34728700Y1654200D03*
D29*
%TO.N,/USB_LIMITED*%
X22450000Y19400000D03*
D28*
X2431300Y18349500D03*
X23113300Y8288300D03*
%TO.N,/CC1*%
X3484700Y12400000D03*
X28250000Y16397700D03*
%TO.N,/CC2*%
X33435700Y14129300D03*
X31250000Y16400600D03*
%TD*%
D30*
%TO.N,/GND*%
X21602500Y18782500D02*
X20950000Y18130000D01*
X32700000Y15370000D02*
X32700000Y13225000D01*
X32589600Y9339600D02*
X32589600Y9338000D01*
X25100000Y9990000D02*
X25100000Y8097500D01*
X33056700Y19601300D02*
X34336300Y19601300D01*
X26300000Y15370000D02*
X25725000Y15945000D01*
X32700000Y13225000D02*
X33025000Y12900000D01*
X20950000Y18130000D02*
X20950000Y17862500D01*
X11550000Y5656000D02*
X14306000Y5656000D01*
X34035000Y15370000D02*
X34610000Y15945000D01*
X31551900Y7175000D02*
X31551900Y7089500D01*
X11550000Y9637500D02*
X12362500Y10450000D01*
X14306000Y5656000D02*
X15550000Y6900000D01*
X32975000Y9725000D02*
X32975000Y10400000D01*
X21350000Y8175000D02*
X21350000Y6400000D01*
X2705800Y13662500D02*
X4143700Y13662500D01*
X16825000Y16605000D02*
X16825000Y15900000D01*
X2075000Y14293300D02*
X2705800Y13662500D01*
X25326100Y6749000D02*
X26650000Y5425100D01*
X25100000Y8097500D02*
X25326100Y7871400D01*
X13700000Y15930000D02*
X13700000Y15675000D01*
X32700000Y15370000D02*
X34035000Y15370000D01*
X22175000Y9000000D02*
X21350000Y8175000D01*
X11550000Y5656000D02*
X11550000Y6650000D01*
X4143700Y15031300D02*
X4025000Y15150000D01*
X11550000Y6650000D02*
X11550000Y9637500D01*
X9674400Y1498800D02*
X11550000Y3374400D01*
X975000Y13193300D02*
X975000Y12400000D01*
X24390000Y18782500D02*
X24390000Y19875000D01*
X23000000Y9825000D02*
X22175000Y9000000D01*
X32841400Y5800000D02*
X32975000Y5800000D01*
X32975000Y9725000D02*
X32589600Y9339600D01*
X15600000Y17830000D02*
X16825000Y16605000D01*
X31851000Y8599400D02*
X32589600Y9338000D01*
X34336300Y19601300D02*
X34610000Y19875000D01*
X31851000Y7853500D02*
X31551900Y7554400D01*
X30800000Y7175000D02*
X31551900Y7175000D01*
X31551900Y7554400D02*
X31551900Y7175000D01*
X32975000Y10400000D02*
X32975000Y12500000D01*
X18125000Y14600000D02*
X20025000Y14600000D01*
X25326100Y7871400D02*
X25326100Y6749000D01*
X11550000Y3374400D02*
X11550000Y5656000D01*
X31551900Y7089500D02*
X32841400Y5800000D01*
X15600000Y17830000D02*
X13700000Y15930000D01*
X24390000Y18782500D02*
X22792900Y18782500D01*
X16825000Y15900000D02*
X18125000Y14600000D01*
X4500000Y13306200D02*
X4143700Y13662500D01*
X4500000Y11350000D02*
X4500000Y13306200D01*
X24390000Y15945000D02*
X24390000Y18782500D01*
X4143700Y13662500D02*
X4143700Y15031300D01*
X22792900Y18782500D02*
X21602500Y18782500D01*
X33025000Y12900000D02*
X33025000Y12550000D01*
X2075000Y14293300D02*
X975000Y13193300D01*
X25725000Y15945000D02*
X24390000Y15945000D01*
X26650000Y5425100D02*
X26650000Y5400000D01*
X31851000Y7853500D02*
X31851000Y8599400D01*
X33025000Y12550000D02*
X32975000Y12500000D01*
X30637500Y12500000D02*
X32975000Y12500000D01*
X23000000Y10690000D02*
X23000000Y9825000D01*
D31*
%TO.N,/+3V3*%
X27689000Y6261000D02*
X28550000Y5400000D01*
X18300000Y9400000D02*
X16200000Y9400000D01*
X5150000Y10100000D02*
X4500000Y9450000D01*
X19001700Y10200000D02*
X19001700Y9400000D01*
X16200000Y9400000D02*
X13450000Y6650000D01*
X18300000Y11800000D02*
X17598300Y11800000D01*
X17048300Y12350000D02*
X17598300Y11800000D01*
X4500000Y9450000D02*
X2625000Y7575000D01*
X30800000Y5625000D02*
X28775000Y5625000D01*
X6650000Y10100000D02*
X5150000Y10100000D01*
X19001700Y11376300D02*
X18578000Y11800000D01*
X19001700Y11000000D02*
X19001700Y10200000D01*
X15600000Y16560000D02*
X14637500Y15597500D01*
X7701700Y10100000D02*
X8435900Y10834200D01*
X2625000Y7575000D02*
X2625000Y6900000D01*
X18578000Y11800000D02*
X18300000Y11800000D01*
X8407300Y15632300D02*
X11175000Y18400000D01*
X6650000Y10100000D02*
X7701700Y10100000D01*
X18300000Y11000000D02*
X19001700Y11000000D01*
X19001700Y11000000D02*
X19001700Y11376300D01*
X8435900Y10834200D02*
X8435900Y15592800D01*
X14637500Y15597500D02*
X14637500Y12350000D01*
X18300000Y9400000D02*
X19001700Y9400000D01*
X2625000Y15150000D02*
X3575400Y14199600D01*
X8435900Y15592800D02*
X8407300Y15621400D01*
X28775000Y5625000D02*
X28550000Y5400000D01*
X14637500Y12350000D02*
X17048300Y12350000D01*
X8407300Y15621400D02*
X8407300Y15632300D01*
X18300000Y10200000D02*
X19001700Y10200000D01*
D30*
%TO.N,/ESP_EN*%
X17589000Y18546300D02*
X16221200Y19914100D01*
X11552700Y19914100D02*
X7851100Y16212500D01*
X17589000Y17608200D02*
X17589000Y18546300D01*
X1698800Y15873800D02*
X975000Y15150000D01*
X18367200Y16830000D02*
X17589000Y17608200D01*
X16221200Y19914100D02*
X11552700Y19914100D01*
X5959800Y14765200D02*
X5575000Y15150000D01*
X5575000Y15150000D02*
X4851200Y15873800D01*
X4851200Y15873800D02*
X1698800Y15873800D01*
X7851100Y15132300D02*
X7484000Y14765200D01*
X7851100Y16212500D02*
X7851100Y15132300D01*
X7484000Y14765200D02*
X5959800Y14765200D01*
%TO.N,/USB_DN_MCU*%
X26900000Y9885800D02*
X26900000Y9025000D01*
%TO.N,/USB_DP_MCU*%
X29575000Y8800000D02*
X28871300Y8096300D01*
%TO.N,/SD_CMD*%
X19474800Y10182700D02*
X19492100Y10200000D01*
X19474800Y7534900D02*
X19474800Y7032000D01*
X20100000Y10200000D02*
X19492100Y10200000D01*
X19474800Y7032000D02*
X23944200Y2562600D01*
X19474800Y7534900D02*
X19474800Y10182700D01*
%TO.N,/SD_D0*%
X20100000Y9400000D02*
X20726700Y9400000D01*
X20726700Y9400000D02*
X20726700Y8695900D01*
%TO.N,/USB_SENSE*%
X31405000Y2609200D02*
X31405000Y2578400D01*
X34625000Y5800000D02*
X34625000Y6250000D01*
X34595800Y5800000D02*
X31405000Y2609200D01*
X34625000Y6250000D02*
X32975000Y7900000D01*
X34625000Y5800000D02*
X34595800Y5800000D01*
%TO.N,/ESP_BOOT*%
X975000Y6900000D02*
X2738000Y5137000D01*
X2738000Y4650200D02*
X2738100Y4650200D01*
X2738000Y5137000D02*
X2738000Y4650200D01*
%TO.N,/SD_D2*%
X18760100Y12513200D02*
X19473300Y11800000D01*
X20100000Y11800000D02*
X19473300Y11800000D01*
%TO.N,/SD_D3*%
X20100000Y11000000D02*
X20707900Y11000000D01*
X20965600Y10742300D02*
X20707900Y11000000D01*
%TO.N,/UART_RX_MCU*%
X13526200Y19101200D02*
X12825000Y18400000D01*
%TO.N,/USB_DN*%
X28972800Y14558400D02*
X28972800Y14060300D01*
X29695800Y14391700D02*
X29695800Y14558400D01*
X27616600Y8091600D02*
X26900000Y7375000D01*
X28750000Y14781200D02*
X28972800Y14558400D01*
X28750000Y15370000D02*
X28750000Y14781200D01*
X30637500Y13450000D02*
X29695800Y14391700D01*
X29695800Y14558400D02*
X28972800Y14558400D01*
X28972800Y14060300D02*
X28362500Y13450000D01*
X29695800Y15315800D02*
X29750000Y15370000D01*
X29695800Y14558400D02*
X29695800Y15315800D01*
X28362500Y13450000D02*
X29500000Y13450000D01*
%TO.N,/USB_DP*%
X29285400Y16426300D02*
X29533000Y16178700D01*
X27561800Y10814800D02*
X28297000Y11550000D01*
X30250000Y15939700D02*
X30011000Y16178700D01*
X28362500Y11550000D02*
X30637500Y11550000D01*
X29250000Y15895700D02*
X29250000Y15370000D01*
X30011000Y16178700D02*
X29533000Y16178700D01*
X29533000Y16178700D02*
X29250000Y15895700D01*
X30250000Y15370000D02*
X30250000Y15939700D01*
X28297000Y11550000D02*
X28362500Y11550000D01*
X28475000Y11550000D02*
X31225000Y8800000D01*
X28362500Y11550000D02*
X28475000Y11550000D01*
D31*
%TO.N,/SYS_5V*%
X5463200Y19601300D02*
X4801300Y19601300D01*
X13612300Y14481700D02*
X12913400Y15180600D01*
X14637500Y11400000D02*
X14637500Y10450000D01*
D32*
X13524600Y11749200D02*
X13612300Y11749200D01*
D31*
X13612300Y14037300D02*
X13612300Y13859100D01*
X17450000Y6900000D02*
X17584700Y6900000D01*
D32*
X13612300Y11749200D02*
X14288300Y11749200D01*
D31*
X4801300Y19601300D02*
X4400000Y19200000D01*
X13612300Y13859100D02*
X13612300Y14481700D01*
X13500000Y11615500D02*
X13524600Y11640100D01*
X13524600Y11640100D02*
X13524600Y11749200D01*
X13612300Y13859100D02*
X13612300Y11749200D01*
X12913400Y15180600D02*
X12913400Y16413400D01*
X12913400Y16413400D02*
X15600000Y19100000D01*
X17584700Y6900000D02*
X18392700Y6092000D01*
D32*
X14288300Y11749200D02*
X14637500Y11400000D01*
D31*
X13700000Y14125000D02*
X13612300Y14037300D01*
D32*
%TO.N,/SW_MAIN*%
X10350000Y11050800D02*
X10425000Y11050800D01*
D31*
X10425000Y11050800D02*
X10425000Y11400000D01*
X10425000Y11400000D02*
X10425000Y14900000D01*
X10350000Y10100000D02*
X10350000Y11050800D01*
D32*
X10425000Y11400000D02*
X12362500Y11400000D01*
D30*
%TO.N,/BST_MAIN*%
X11975000Y14900000D02*
X11975000Y12737500D01*
X11975000Y12737500D02*
X12362500Y12350000D01*
D31*
%TO.N,/USB_VBUS*%
X21733600Y14441400D02*
X21575000Y14600000D01*
X21900000Y17193500D02*
X21575000Y16868500D01*
D32*
X28013300Y12849200D02*
X28362500Y12500000D01*
X35326000Y12829200D02*
X35326000Y9860600D01*
D31*
X34625000Y7590800D02*
X34625000Y7900000D01*
X21575000Y16604300D02*
X21479100Y16508400D01*
D32*
X35326000Y9860600D02*
X34349800Y8884400D01*
D31*
X21900000Y17862500D02*
X21900000Y17193500D01*
X21479100Y16508400D02*
X21479100Y16010200D01*
X27100000Y14441400D02*
X21733600Y14441400D01*
X31937400Y14329900D02*
X31937400Y15332600D01*
X34575000Y12900000D02*
X34645800Y12829200D01*
X31937400Y15332600D02*
X31900000Y15370000D01*
X34728700Y3079800D02*
X35326000Y3677100D01*
X21575000Y16868500D02*
X21575000Y16604300D01*
X21575000Y16868500D02*
X20593100Y16868500D01*
X21575000Y15914300D02*
X21575000Y14600000D01*
X27100000Y14142000D02*
X27100000Y14441400D01*
X27100000Y15370000D02*
X27100000Y14441400D01*
X27319700Y12849200D02*
X27100000Y13068900D01*
X20000000Y17461600D02*
X20000000Y17862500D01*
X34645800Y12829200D02*
X35326000Y12829200D01*
D32*
X35326000Y6889800D02*
X34625000Y7590800D01*
X35326000Y3677100D02*
X35326000Y6889800D01*
D31*
X34349800Y8884400D02*
X34625000Y8609200D01*
X27100000Y13068900D02*
X27100000Y14142000D01*
X34728700Y1654200D02*
X34728700Y3079800D01*
D32*
X27319700Y12849200D02*
X28013300Y12849200D01*
D31*
X21479100Y16010200D02*
X21575000Y15914300D01*
X20593100Y16868500D02*
X20000000Y17461600D01*
X34625000Y8609200D02*
X34625000Y7900000D01*
D30*
%TO.N,/USB_ILIM*%
X20080000Y19000000D02*
X20950000Y19870000D01*
X19275000Y19000000D02*
X20080000Y19000000D01*
X18475000Y18200000D02*
X19275000Y19000000D01*
X20950000Y19870000D02*
X20950000Y20137500D01*
D31*
%TO.N,/USB_LIMITED*%
X1600000Y19200000D02*
X1600000Y19180800D01*
X1600000Y19180800D02*
X2431300Y18349500D01*
X24650000Y6400000D02*
X24650000Y8175000D01*
X24650000Y8175000D02*
X23825000Y9000000D01*
X21925000Y20100000D02*
X21900000Y20137500D01*
X22450000Y19400000D02*
X22000000Y19850000D01*
X22000000Y20025000D02*
X21925000Y20100000D01*
X23113300Y8288300D02*
X23825000Y9000000D01*
X22000000Y19850000D02*
X22000000Y20025000D01*
D30*
%TO.N,/USB_ILIM_MID*%
X16825000Y17550000D02*
X18475000Y15900000D01*
X16825000Y18200000D02*
X16825000Y17550000D01*
%TO.N,/CC1*%
X2625000Y12400000D02*
X3484700Y12400000D01*
X28250000Y15370000D02*
X28250000Y16397700D01*
%TO.N,/CC2*%
X33435700Y14129300D02*
X33800000Y13765000D01*
X31250000Y15370000D02*
X31250000Y16400600D01*
X33800000Y13765000D02*
X33800000Y11225000D01*
X33800000Y11225000D02*
X34625000Y10400000D01*
%TD*%
%TA.AperFunction,Conductor*%
%TO.N,/GND*%
G36*
X35943039Y20780315D02*
G01*
X35988794Y20727511D01*
X36000000Y20676000D01*
X36000000Y424000D01*
X35980315Y356961D01*
X35927511Y311206D01*
X35876000Y300000D01*
X424000Y300000D01*
X356961Y319685D01*
X311206Y372489D01*
X300000Y424000D01*
X300000Y1946709D01*
X2287100Y1946709D01*
X2287100Y1828091D01*
X2317801Y1713514D01*
X2377111Y1610787D01*
X2460987Y1526911D01*
X2563714Y1467601D01*
X2678291Y1436900D01*
X2678294Y1436900D01*
X2796906Y1436900D01*
X2796909Y1436900D01*
X2911486Y1467601D01*
X3014213Y1526911D01*
X3098089Y1610787D01*
X3157399Y1713514D01*
X3188100Y1828091D01*
X3188100Y1946709D01*
X3157399Y2061286D01*
X3098089Y2164013D01*
X3014213Y2247889D01*
X2911486Y2307199D01*
X2796909Y2337900D01*
X2678291Y2337900D01*
X2563714Y2307199D01*
X2563712Y2307199D01*
X2563712Y2307198D01*
X2460987Y2247889D01*
X2460984Y2247887D01*
X2377113Y2164016D01*
X2377111Y2164013D01*
X2358919Y2132503D01*
X2317801Y2061286D01*
X2287100Y1946709D01*
X300000Y1946709D01*
X300000Y3015209D01*
X6624100Y3015209D01*
X6624100Y2896591D01*
X6654801Y2782014D01*
X6714111Y2679287D01*
X6797987Y2595411D01*
X6900714Y2536101D01*
X7015291Y2505400D01*
X7015294Y2505400D01*
X7133906Y2505400D01*
X7133909Y2505400D01*
X7248486Y2536101D01*
X7351213Y2595411D01*
X7435089Y2679287D01*
X7494399Y2782014D01*
X7525100Y2896591D01*
X7525100Y3015209D01*
X7494399Y3129786D01*
X7494397Y3129790D01*
X7453725Y3200236D01*
X7438473Y3226651D01*
X7435089Y3232513D01*
X7413493Y3254109D01*
X17915500Y3254109D01*
X17915500Y3135491D01*
X17946201Y3020914D01*
X18005511Y2918187D01*
X18089387Y2834311D01*
X18192114Y2775001D01*
X18306691Y2744300D01*
X18306694Y2744300D01*
X18425306Y2744300D01*
X18425309Y2744300D01*
X18539886Y2775001D01*
X18642613Y2834311D01*
X18726489Y2918187D01*
X18785799Y3020914D01*
X18816500Y3135491D01*
X18816500Y3254109D01*
X18801791Y3309004D01*
X18803454Y3378850D01*
X18842616Y3436712D01*
X18889470Y3460868D01*
X18938486Y3474001D01*
X19041213Y3533311D01*
X19125089Y3617187D01*
X19184399Y3719914D01*
X19215100Y3834491D01*
X19215100Y3953109D01*
X19184399Y4067686D01*
X19125089Y4170413D01*
X19041213Y4254289D01*
X18938486Y4313599D01*
X18823909Y4344300D01*
X18705291Y4344300D01*
X18590714Y4313599D01*
X18590712Y4313599D01*
X18590712Y4313598D01*
X18487987Y4254289D01*
X18487984Y4254287D01*
X18404113Y4170416D01*
X18404111Y4170413D01*
X18344801Y4067686D01*
X18314100Y3953109D01*
X18314100Y3834491D01*
X18323094Y3800926D01*
X18328808Y3779600D01*
X18327145Y3709750D01*
X18287982Y3651888D01*
X18241128Y3627733D01*
X18192114Y3614600D01*
X18089387Y3555289D01*
X18089384Y3555287D01*
X18005513Y3471416D01*
X18005511Y3471413D01*
X17946201Y3368686D01*
X17915500Y3254109D01*
X7413493Y3254109D01*
X7351213Y3316389D01*
X7248486Y3375699D01*
X7133909Y3406400D01*
X7015291Y3406400D01*
X6900714Y3375699D01*
X6900712Y3375699D01*
X6900712Y3375698D01*
X6797987Y3316389D01*
X6797984Y3316387D01*
X6714113Y3232516D01*
X6714111Y3232513D01*
X6658097Y3135494D01*
X6654801Y3129786D01*
X6624100Y3015209D01*
X300000Y3015209D01*
X300000Y4176709D01*
X4193500Y4176709D01*
X4193500Y4058091D01*
X4224201Y3943514D01*
X4283511Y3840787D01*
X4367387Y3756911D01*
X4470114Y3697601D01*
X4584691Y3666900D01*
X4584694Y3666900D01*
X4703306Y3666900D01*
X4703309Y3666900D01*
X4817886Y3697601D01*
X4920613Y3756911D01*
X5004489Y3840787D01*
X5063799Y3943514D01*
X5094500Y4058091D01*
X5094500Y4169109D01*
X5832700Y4169109D01*
X5832700Y4050491D01*
X5863401Y3935914D01*
X5922711Y3833187D01*
X6006587Y3749311D01*
X6109314Y3690001D01*
X6223891Y3659300D01*
X6223894Y3659300D01*
X6342506Y3659300D01*
X6342509Y3659300D01*
X6457086Y3690001D01*
X6559813Y3749311D01*
X6643689Y3833187D01*
X6702999Y3935914D01*
X6733700Y4050491D01*
X6733700Y4169109D01*
X6702999Y4283686D01*
X6643689Y4386413D01*
X6559813Y4470289D01*
X6457086Y4529599D01*
X6342509Y4560300D01*
X6223891Y4560300D01*
X6109314Y4529599D01*
X6109312Y4529599D01*
X6109312Y4529598D01*
X6006587Y4470289D01*
X6006584Y4470287D01*
X5922713Y4386416D01*
X5922711Y4386413D01*
X5866880Y4289711D01*
X5863401Y4283686D01*
X5832700Y4169109D01*
X5094500Y4169109D01*
X5094500Y4176709D01*
X5063799Y4291286D01*
X5004489Y4394013D01*
X4920613Y4477889D01*
X4817886Y4537199D01*
X4703309Y4567900D01*
X4584691Y4567900D01*
X4470114Y4537199D01*
X4470112Y4537199D01*
X4470112Y4537198D01*
X4367387Y4477889D01*
X4367384Y4477887D01*
X4283513Y4394016D01*
X4283511Y4394013D01*
X4237084Y4313599D01*
X4224201Y4291286D01*
X4193500Y4176709D01*
X300000Y4176709D01*
X300000Y6304956D01*
X319685Y6371995D01*
X372489Y6417750D01*
X441647Y6427694D01*
X505203Y6398669D01*
X511681Y6392637D01*
X568514Y6335804D01*
X568515Y6335804D01*
X568517Y6335802D01*
X673607Y6284427D01*
X693813Y6281483D01*
X741739Y6274500D01*
X741740Y6274500D01*
X1208255Y6274500D01*
X1208260Y6274500D01*
X1210700Y6274856D01*
X1211535Y6274738D01*
X1212732Y6274824D01*
X1212750Y6274565D01*
X1279875Y6265045D01*
X1316262Y6239833D01*
X2415765Y5140330D01*
X2449250Y5079007D01*
X2444266Y5009315D01*
X2415766Y4964969D01*
X2377614Y4926817D01*
X2377611Y4926813D01*
X2360464Y4897113D01*
X2318301Y4824086D01*
X2287600Y4709509D01*
X2287600Y4590891D01*
X2318301Y4476314D01*
X2377611Y4373587D01*
X2461487Y4289711D01*
X2564214Y4230401D01*
X2678791Y4199700D01*
X2678794Y4199700D01*
X2797406Y4199700D01*
X2797409Y4199700D01*
X2911986Y4230401D01*
X3014713Y4289711D01*
X3098589Y4373587D01*
X3157899Y4476314D01*
X3188600Y4590891D01*
X3188600Y4679809D01*
X9095000Y4679809D01*
X9095000Y4561191D01*
X9125701Y4446614D01*
X9185011Y4343887D01*
X9268887Y4260011D01*
X9371614Y4200701D01*
X9486191Y4170000D01*
X9486194Y4170000D01*
X9604806Y4170000D01*
X9604809Y4170000D01*
X9719386Y4200701D01*
X9822113Y4260011D01*
X9905989Y4343887D01*
X9965299Y4446614D01*
X9996000Y4561191D01*
X9996000Y4679809D01*
X9965299Y4794386D01*
X9905989Y4897113D01*
X9822113Y4980989D01*
X9719386Y5040299D01*
X9604809Y5071000D01*
X9486191Y5071000D01*
X9371614Y5040299D01*
X9371612Y5040299D01*
X9371612Y5040298D01*
X9268887Y4980989D01*
X9268884Y4980987D01*
X9185013Y4897116D01*
X9185011Y4897113D01*
X9125701Y4794386D01*
X9095000Y4679809D01*
X3188600Y4679809D01*
X3188600Y4709509D01*
X3157899Y4824086D01*
X3098589Y4926813D01*
X3014713Y5010689D01*
X3014707Y5010695D01*
X3012013Y5012762D01*
X3010316Y5015086D01*
X3008966Y5016436D01*
X3009176Y5016647D01*
X2970811Y5069190D01*
X2966339Y5084758D01*
X2963501Y5097794D01*
X2963501Y5181854D01*
X2929170Y5264735D01*
X2929170Y5264736D01*
X2865736Y5328170D01*
X2858671Y5335235D01*
X2858664Y5335241D01*
X1561819Y6632086D01*
X1528334Y6693409D01*
X1525500Y6719767D01*
X1525500Y7208261D01*
X1515814Y7274738D01*
X1515573Y7276393D01*
X1464198Y7381483D01*
X1464196Y7381485D01*
X1464196Y7381486D01*
X1381485Y7464197D01*
X1276391Y7515574D01*
X1208261Y7525500D01*
X1208260Y7525500D01*
X741740Y7525500D01*
X741739Y7525500D01*
X673608Y7515574D01*
X568514Y7464197D01*
X511681Y7407363D01*
X450358Y7373878D01*
X380666Y7378862D01*
X324733Y7420734D01*
X300316Y7486198D01*
X300000Y7495044D01*
X300000Y12708261D01*
X2074500Y12708261D01*
X2074500Y12091740D01*
X2084426Y12023609D01*
X2135803Y11918515D01*
X2218514Y11835804D01*
X2218515Y11835804D01*
X2218517Y11835802D01*
X2323607Y11784427D01*
X2357673Y11779464D01*
X2391739Y11774500D01*
X2391740Y11774500D01*
X2858261Y11774500D01*
X2880971Y11777809D01*
X2926393Y11784427D01*
X3031483Y11835802D01*
X3114198Y11918517D01*
X3122646Y11935799D01*
X3169772Y11987381D01*
X3237305Y12005297D01*
X3296050Y11988725D01*
X3310810Y11980203D01*
X3310811Y11980203D01*
X3310814Y11980201D01*
X3425391Y11949500D01*
X3425394Y11949500D01*
X3544006Y11949500D01*
X3544009Y11949500D01*
X3658586Y11980201D01*
X3761313Y12039511D01*
X3845189Y12123387D01*
X3904499Y12226114D01*
X3935200Y12340691D01*
X3935200Y12459309D01*
X3904499Y12573886D01*
X3845189Y12676613D01*
X3761313Y12760489D01*
X3658586Y12819799D01*
X3544009Y12850500D01*
X3425391Y12850500D01*
X3352262Y12830905D01*
X3310809Y12819798D01*
X3296047Y12811274D01*
X3228146Y12794801D01*
X3162120Y12817654D01*
X3122646Y12864202D01*
X3122298Y12864913D01*
X3114198Y12881483D01*
X3114197Y12881484D01*
X3114197Y12881485D01*
X3031485Y12964197D01*
X2926391Y13015574D01*
X2858261Y13025500D01*
X2858260Y13025500D01*
X2391740Y13025500D01*
X2391739Y13025500D01*
X2323608Y13015574D01*
X2218514Y12964197D01*
X2135803Y12881486D01*
X2084426Y12776392D01*
X2074500Y12708261D01*
X300000Y12708261D01*
X300000Y14554956D01*
X319685Y14621995D01*
X372489Y14667750D01*
X441647Y14677694D01*
X505203Y14648669D01*
X511681Y14642637D01*
X568514Y14585804D01*
X568515Y14585804D01*
X568517Y14585802D01*
X673607Y14534427D01*
X704238Y14529964D01*
X741739Y14524500D01*
X741740Y14524500D01*
X1208261Y14524500D01*
X1230971Y14527809D01*
X1276393Y14534427D01*
X1381483Y14585802D01*
X1464198Y14668517D01*
X1515573Y14773607D01*
X1525500Y14841740D01*
X1525500Y15330233D01*
X1545185Y15397272D01*
X1561819Y15417914D01*
X1755886Y15611981D01*
X1782813Y15626685D01*
X1808632Y15643277D01*
X1814832Y15644169D01*
X1817209Y15645466D01*
X1843567Y15648300D01*
X1958813Y15648300D01*
X2025852Y15628615D01*
X2071607Y15575811D01*
X2081551Y15506653D01*
X2081517Y15506422D01*
X2074500Y15458261D01*
X2074500Y14841740D01*
X2084426Y14773609D01*
X2084427Y14773607D01*
X2131784Y14676735D01*
X2135803Y14668515D01*
X2218514Y14585804D01*
X2218515Y14585804D01*
X2218517Y14585802D01*
X2323607Y14534427D01*
X2354238Y14529964D01*
X2391739Y14524500D01*
X2391740Y14524500D01*
X2774167Y14524500D01*
X2841206Y14504815D01*
X2861848Y14488181D01*
X3088581Y14261448D01*
X3122066Y14200125D01*
X3124900Y14173767D01*
X3124900Y14140291D01*
X3155601Y14025714D01*
X3214911Y13922987D01*
X3298787Y13839111D01*
X3401514Y13779801D01*
X3516091Y13749100D01*
X3516094Y13749100D01*
X3634706Y13749100D01*
X3634709Y13749100D01*
X3749286Y13779801D01*
X3852013Y13839111D01*
X3935889Y13922987D01*
X3995199Y14025714D01*
X4025900Y14140291D01*
X4025900Y14258909D01*
X3995199Y14373486D01*
X3935889Y14476213D01*
X3852013Y14560089D01*
X3749286Y14619399D01*
X3634709Y14650100D01*
X3634706Y14650100D01*
X3601233Y14650100D01*
X3534194Y14669785D01*
X3513552Y14686419D01*
X3211819Y14988152D01*
X3178334Y15049475D01*
X3175500Y15075833D01*
X3175500Y15458261D01*
X3168483Y15506422D01*
X3178296Y15575599D01*
X3223952Y15628489D01*
X3290954Y15648300D01*
X4706433Y15648300D01*
X4735873Y15639656D01*
X4765860Y15633132D01*
X4770875Y15629378D01*
X4773472Y15628615D01*
X4794114Y15611981D01*
X4938181Y15467914D01*
X4971666Y15406591D01*
X4974500Y15380233D01*
X4974500Y14864364D01*
X4985134Y14791375D01*
X4985134Y14791374D01*
X4985135Y14791372D01*
X5040172Y14678790D01*
X5128789Y14590173D01*
X5228609Y14541375D01*
X5241375Y14535134D01*
X5314364Y14524500D01*
X5581842Y14524500D01*
X5648881Y14504815D01*
X5694636Y14452011D01*
X5704580Y14382853D01*
X5701617Y14368411D01*
X5682700Y14297809D01*
X5682700Y14179191D01*
X5713401Y14064614D01*
X5772711Y13961887D01*
X5856587Y13878011D01*
X5959314Y13818701D01*
X6073891Y13788000D01*
X6073894Y13788000D01*
X6192506Y13788000D01*
X6192509Y13788000D01*
X6307086Y13818701D01*
X6409813Y13878011D01*
X6493689Y13961887D01*
X6552999Y14064614D01*
X6583700Y14179191D01*
X6583700Y14297809D01*
X6560710Y14383609D01*
X6562373Y14453456D01*
X6601535Y14511319D01*
X6665764Y14538823D01*
X6680485Y14539700D01*
X7273357Y14539700D01*
X7340396Y14520015D01*
X7386151Y14467211D01*
X7396095Y14398053D01*
X7393135Y14383621D01*
X7383700Y14348409D01*
X7383700Y14229791D01*
X7414401Y14115214D01*
X7473711Y14012487D01*
X7557587Y13928611D01*
X7660314Y13869301D01*
X7774891Y13838600D01*
X7774894Y13838600D01*
X7893506Y13838600D01*
X7893509Y13838600D01*
X7979308Y13861590D01*
X8049156Y13859927D01*
X8107019Y13820765D01*
X8134523Y13756536D01*
X8135400Y13741815D01*
X8135400Y11010033D01*
X8115715Y10942994D01*
X8099081Y10922352D01*
X7762181Y10585452D01*
X7700858Y10551967D01*
X7631166Y10556951D01*
X7575233Y10598823D01*
X7550816Y10664287D01*
X7550500Y10673133D01*
X7550500Y11314823D01*
X7541768Y11358718D01*
X7541767Y11358719D01*
X7541767Y11358722D01*
X7508504Y11408504D01*
X7497492Y11415862D01*
X7458724Y11441766D01*
X7458717Y11441769D01*
X7414822Y11450500D01*
X7414820Y11450500D01*
X5885180Y11450500D01*
X5885178Y11450500D01*
X5841282Y11441769D01*
X5841275Y11441766D01*
X5791496Y11408505D01*
X5791495Y11408504D01*
X5758234Y11358725D01*
X5758231Y11358718D01*
X5749500Y11314823D01*
X5749500Y10524500D01*
X5729815Y10457461D01*
X5677011Y10411706D01*
X5625500Y10400500D01*
X5110438Y10400500D01*
X5075619Y10391170D01*
X5034009Y10380021D01*
X5034008Y10380020D01*
X5006781Y10364300D01*
X4990926Y10355146D01*
X4983368Y10350783D01*
X4965489Y10340461D01*
X4761847Y10136819D01*
X4700524Y10103334D01*
X4674166Y10100500D01*
X3993482Y10100500D01*
X3912519Y10087677D01*
X3899696Y10085646D01*
X3786658Y10028050D01*
X3786657Y10028049D01*
X3786652Y10028046D01*
X3696954Y9938348D01*
X3696951Y9938343D01*
X3639352Y9825302D01*
X3624500Y9731525D01*
X3624500Y9168482D01*
X3637725Y9084982D01*
X3628769Y9015689D01*
X3602932Y8977905D01*
X2440489Y7815460D01*
X2384541Y7759513D01*
X2384535Y7759505D01*
X2344982Y7690996D01*
X2344979Y7690991D01*
X2324500Y7614561D01*
X2324500Y7593415D01*
X2304815Y7526376D01*
X2254961Y7482015D01*
X2218515Y7464198D01*
X2135803Y7381486D01*
X2084426Y7276392D01*
X2074500Y7208261D01*
X2074500Y6591740D01*
X2084426Y6523609D01*
X2135803Y6418515D01*
X2218514Y6335804D01*
X2218515Y6335804D01*
X2218517Y6335802D01*
X2323607Y6284427D01*
X2343813Y6281483D01*
X2391739Y6274500D01*
X2391740Y6274500D01*
X2858261Y6274500D01*
X2880971Y6277809D01*
X2926393Y6284427D01*
X3031483Y6335802D01*
X3114198Y6418517D01*
X3165573Y6523607D01*
X3175500Y6591740D01*
X3175500Y7208260D01*
X3165573Y7276393D01*
X3114198Y7381483D01*
X3114196Y7381485D01*
X3114196Y7381486D01*
X3073007Y7422675D01*
X3039522Y7483998D01*
X3044506Y7553690D01*
X3073007Y7598037D01*
X4238152Y8763182D01*
X4299475Y8796667D01*
X4325833Y8799501D01*
X5006517Y8799501D01*
X5006518Y8799501D01*
X5100304Y8814354D01*
X5213342Y8871950D01*
X5303050Y8961658D01*
X5360646Y9074696D01*
X5360646Y9074698D01*
X5360647Y9074699D01*
X5371282Y9141853D01*
X5375500Y9168481D01*
X5375499Y9675501D01*
X5378049Y9684187D01*
X5376761Y9693147D01*
X5387738Y9717184D01*
X5395183Y9742539D01*
X5402025Y9748468D01*
X5405786Y9756703D01*
X5428017Y9770990D01*
X5447987Y9788294D01*
X5458502Y9790582D01*
X5464564Y9794477D01*
X5499499Y9799500D01*
X5625500Y9799500D01*
X5692539Y9779815D01*
X5738294Y9727011D01*
X5749500Y9675500D01*
X5749500Y8885180D01*
X5749500Y8885178D01*
X5749499Y8885178D01*
X5758231Y8841283D01*
X5758234Y8841276D01*
X5770288Y8823236D01*
X5791496Y8791496D01*
X5841278Y8758233D01*
X5841281Y8758233D01*
X5841282Y8758232D01*
X5885177Y8749500D01*
X5885180Y8749500D01*
X7414822Y8749500D01*
X7458717Y8758232D01*
X7458717Y8758233D01*
X7458722Y8758233D01*
X7508504Y8791496D01*
X7541767Y8841278D01*
X7545768Y8861391D01*
X7550500Y8885178D01*
X7550500Y9675500D01*
X7570185Y9742539D01*
X7622989Y9788294D01*
X7674500Y9799500D01*
X7741260Y9799500D01*
X7741262Y9799500D01*
X7817689Y9819979D01*
X7886211Y9859540D01*
X7942160Y9915489D01*
X8676360Y10649689D01*
X8715922Y10718212D01*
X8736400Y10794638D01*
X8736400Y10873762D01*
X8736400Y15262036D01*
X8756085Y15329075D01*
X8763280Y15338005D01*
X8762842Y15338341D01*
X8767781Y15344780D01*
X8767789Y15344787D01*
X8827099Y15447514D01*
X8857800Y15562091D01*
X8857800Y15606467D01*
X8877485Y15673506D01*
X8894119Y15694148D01*
X10938152Y17738181D01*
X10999475Y17771666D01*
X11025833Y17774500D01*
X11408261Y17774500D01*
X11430971Y17777809D01*
X11476393Y17784427D01*
X11581483Y17835802D01*
X11664198Y17918517D01*
X11715573Y18023607D01*
X11725500Y18091740D01*
X11725500Y18708260D01*
X11725248Y18709987D01*
X11716607Y18769298D01*
X11715573Y18776393D01*
X11664198Y18881483D01*
X11664196Y18881485D01*
X11664196Y18881486D01*
X11581485Y18964197D01*
X11476391Y19015574D01*
X11408261Y19025500D01*
X11408260Y19025500D01*
X11282367Y19025500D01*
X11215328Y19045185D01*
X11169573Y19097989D01*
X11159629Y19167147D01*
X11188654Y19230703D01*
X11194686Y19237181D01*
X11609786Y19652281D01*
X11671109Y19685766D01*
X11697467Y19688600D01*
X13180011Y19688600D01*
X13247050Y19668915D01*
X13292805Y19616111D01*
X13302749Y19546953D01*
X13273724Y19483397D01*
X13255499Y19466226D01*
X13249588Y19461691D01*
X13165713Y19377816D01*
X13165711Y19377813D01*
X13132103Y19319602D01*
X13106401Y19275086D01*
X13075700Y19160509D01*
X13075700Y19160507D01*
X13075700Y19149500D01*
X13056015Y19082461D01*
X13003211Y19036706D01*
X12951700Y19025500D01*
X12591739Y19025500D01*
X12523608Y19015574D01*
X12418514Y18964197D01*
X12335803Y18881486D01*
X12284426Y18776392D01*
X12274500Y18708261D01*
X12274500Y18091740D01*
X12284426Y18023609D01*
X12335803Y17918515D01*
X12418514Y17835804D01*
X12418515Y17835804D01*
X12418517Y17835802D01*
X12523607Y17784427D01*
X12557673Y17779464D01*
X12591739Y17774500D01*
X12591740Y17774500D01*
X13058261Y17774500D01*
X13080971Y17777809D01*
X13126393Y17784427D01*
X13231483Y17835802D01*
X13314198Y17918517D01*
X13365573Y18023607D01*
X13375500Y18091740D01*
X13375500Y18526700D01*
X13395185Y18593739D01*
X13447989Y18639494D01*
X13499500Y18650700D01*
X13585506Y18650700D01*
X13585509Y18650700D01*
X13700086Y18681401D01*
X13802813Y18740711D01*
X13886689Y18824587D01*
X13945999Y18927314D01*
X13976700Y19041891D01*
X13976700Y19160509D01*
X13945999Y19275086D01*
X13886689Y19377813D01*
X13802813Y19461689D01*
X13802811Y19461691D01*
X13796901Y19466226D01*
X13755699Y19522654D01*
X13751546Y19592400D01*
X13785759Y19653320D01*
X13847477Y19686072D01*
X13872389Y19688600D01*
X14918818Y19688600D01*
X14985857Y19668915D01*
X15031612Y19616111D01*
X15041556Y19546953D01*
X15021920Y19495709D01*
X14979228Y19431818D01*
X14979221Y19431805D01*
X14926421Y19304333D01*
X14926418Y19304323D01*
X14899500Y19168996D01*
X14899500Y19031003D01*
X14920835Y18923744D01*
X14914608Y18854152D01*
X14886899Y18811872D01*
X12728889Y16653860D01*
X12672941Y16597913D01*
X12672935Y16597905D01*
X12633382Y16529396D01*
X12633379Y16529391D01*
X12624301Y16495511D01*
X12613985Y16457009D01*
X12612900Y16452961D01*
X12612900Y15563860D01*
X12593215Y15496821D01*
X12540411Y15451066D01*
X12471253Y15441122D01*
X12431330Y15457132D01*
X12430442Y15455314D01*
X12308628Y15514865D01*
X12308626Y15514866D01*
X12308625Y15514866D01*
X12235636Y15525500D01*
X11714364Y15525500D01*
X11641375Y15514866D01*
X11641373Y15514866D01*
X11641371Y15514865D01*
X11528789Y15459828D01*
X11440172Y15371211D01*
X11385135Y15258629D01*
X11385134Y15258627D01*
X11385134Y15258625D01*
X11374500Y15185636D01*
X11374500Y15185631D01*
X11374500Y14804000D01*
X11371949Y14795315D01*
X11373238Y14786353D01*
X11362259Y14762313D01*
X11354815Y14736961D01*
X11347974Y14731034D01*
X11344213Y14722797D01*
X11321978Y14708508D01*
X11302011Y14691206D01*
X11291496Y14688919D01*
X11285435Y14685023D01*
X11250500Y14680000D01*
X11149500Y14680000D01*
X11082461Y14699685D01*
X11036706Y14752489D01*
X11025500Y14804000D01*
X11025500Y15185631D01*
X11025500Y15185636D01*
X11014866Y15258625D01*
X10990501Y15308465D01*
X10959827Y15371211D01*
X10871210Y15459828D01*
X10758628Y15514865D01*
X10758626Y15514866D01*
X10758625Y15514866D01*
X10685636Y15525500D01*
X10164364Y15525500D01*
X10091375Y15514866D01*
X10091373Y15514866D01*
X10091371Y15514865D01*
X9978789Y15459828D01*
X9890172Y15371211D01*
X9835135Y15258629D01*
X9835134Y15258627D01*
X9835134Y15258625D01*
X9824500Y15185636D01*
X9824500Y14614364D01*
X9835134Y14541375D01*
X9835134Y14541374D01*
X9835135Y14541372D01*
X9890172Y14428790D01*
X9978786Y14340176D01*
X9978787Y14340176D01*
X9978789Y14340174D01*
X10054961Y14302936D01*
X10106542Y14255809D01*
X10124500Y14191536D01*
X10124500Y11574500D01*
X10104815Y11507461D01*
X10052011Y11461706D01*
X10000500Y11450500D01*
X9585178Y11450500D01*
X9541282Y11441769D01*
X9541275Y11441766D01*
X9491496Y11408505D01*
X9491495Y11408504D01*
X9458234Y11358725D01*
X9458231Y11358718D01*
X9449500Y11314823D01*
X9449500Y11314820D01*
X9449500Y8885180D01*
X9449500Y8885178D01*
X9449499Y8885178D01*
X9458231Y8841283D01*
X9458234Y8841276D01*
X9470288Y8823236D01*
X9491496Y8791496D01*
X9541278Y8758233D01*
X9541281Y8758233D01*
X9541282Y8758232D01*
X9585177Y8749500D01*
X9585180Y8749500D01*
X11114822Y8749500D01*
X11158717Y8758232D01*
X11158717Y8758233D01*
X11158722Y8758233D01*
X11208504Y8791496D01*
X11241767Y8841278D01*
X11245768Y8861391D01*
X11250500Y8885178D01*
X11250500Y11013000D01*
X11253050Y11021686D01*
X11251762Y11030647D01*
X11262740Y11054688D01*
X11270185Y11080039D01*
X11277025Y11085967D01*
X11280787Y11094203D01*
X11303021Y11108493D01*
X11322989Y11125794D01*
X11333503Y11128082D01*
X11339565Y11131977D01*
X11374500Y11137000D01*
X11491492Y11137000D01*
X11558531Y11117315D01*
X11593789Y11083081D01*
X11597793Y11077236D01*
X11597794Y11077235D01*
X11677235Y10997794D01*
X11780009Y10952415D01*
X11805135Y10949500D01*
X12919864Y10949501D01*
X12919879Y10949503D01*
X12919882Y10949503D01*
X12944987Y10952414D01*
X12944988Y10952415D01*
X12944991Y10952415D01*
X13047765Y10997794D01*
X13127206Y11077235D01*
X13153495Y11136774D01*
X13198580Y11190150D01*
X13265366Y11210678D01*
X13317837Y11196974D01*
X13318600Y11198813D01*
X13326109Y11195703D01*
X13326111Y11195703D01*
X13326114Y11195701D01*
X13440691Y11165000D01*
X13440694Y11165000D01*
X13559306Y11165000D01*
X13559309Y11165000D01*
X13673886Y11195701D01*
X13673888Y11195703D01*
X13673890Y11195703D01*
X13681400Y11198813D01*
X13682242Y11196780D01*
X13738939Y11210550D01*
X13804971Y11187715D01*
X13833647Y11159217D01*
X13841252Y11148671D01*
X13872794Y11077235D01*
X13944407Y11005622D01*
X13950244Y10997528D01*
X13958680Y10973613D01*
X13970833Y10951358D01*
X13970108Y10941222D01*
X13973489Y10931638D01*
X13967657Y10906961D01*
X13965849Y10881666D01*
X13959257Y10871411D01*
X13957422Y10863641D01*
X13949110Y10855621D01*
X13937348Y10837319D01*
X13872794Y10772766D01*
X13827415Y10669994D01*
X13827415Y10669992D01*
X13824500Y10644869D01*
X13824500Y10255144D01*
X13824502Y10255118D01*
X13827413Y10230013D01*
X13827415Y10230009D01*
X13872793Y10127236D01*
X13872794Y10127235D01*
X13952235Y10047794D01*
X14055009Y10002415D01*
X14080135Y9999500D01*
X15194864Y9999501D01*
X15194879Y9999503D01*
X15194882Y9999503D01*
X15219987Y10002414D01*
X15219988Y10002415D01*
X15219991Y10002415D01*
X15322765Y10047794D01*
X15402206Y10127235D01*
X15447585Y10230009D01*
X15450500Y10255135D01*
X15450499Y10644864D01*
X15450497Y10644883D01*
X15447586Y10669988D01*
X15447585Y10669990D01*
X15447585Y10669991D01*
X15402206Y10772765D01*
X15337652Y10837319D01*
X15304167Y10898642D01*
X15309151Y10968334D01*
X15337652Y11012681D01*
X15364533Y11039562D01*
X15402206Y11077235D01*
X15447585Y11180009D01*
X15450500Y11205135D01*
X15450499Y11594864D01*
X15450497Y11594883D01*
X15447586Y11619988D01*
X15447585Y11619990D01*
X15447585Y11619991D01*
X15402206Y11722765D01*
X15337652Y11787319D01*
X15333313Y11795265D01*
X15326066Y11800690D01*
X15316831Y11825450D01*
X15304167Y11848642D01*
X15304812Y11857672D01*
X15301649Y11866154D01*
X15307265Y11891975D01*
X15309151Y11918334D01*
X15314969Y11927388D01*
X15316501Y11934427D01*
X15337652Y11962681D01*
X15388152Y12013181D01*
X15449475Y12046666D01*
X15475833Y12049500D01*
X16872467Y12049500D01*
X16939506Y12029815D01*
X16960148Y12013181D01*
X17357840Y11615489D01*
X17413789Y11559540D01*
X17413791Y11559539D01*
X17413795Y11559536D01*
X17455982Y11535180D01*
X17482311Y11519979D01*
X17558738Y11499500D01*
X17637862Y11499500D01*
X17686460Y11499500D01*
X17694028Y11497278D01*
X17701815Y11498546D01*
X17727079Y11487573D01*
X17753499Y11479815D01*
X17760292Y11473147D01*
X17765901Y11470711D01*
X17789506Y11444474D01*
X17789841Y11443972D01*
X17810772Y11377314D01*
X17792342Y11309919D01*
X17789897Y11306112D01*
X17758233Y11258724D01*
X17758231Y11258718D01*
X17749500Y11214823D01*
X17749500Y11214820D01*
X17749500Y10785180D01*
X17749500Y10785178D01*
X17749499Y10785178D01*
X17758231Y10741283D01*
X17758234Y10741276D01*
X17791495Y10691497D01*
X17795311Y10687681D01*
X17828796Y10626358D01*
X17823812Y10556666D01*
X17795311Y10512319D01*
X17791495Y10508504D01*
X17758234Y10458725D01*
X17758231Y10458718D01*
X17749500Y10414823D01*
X17749500Y10414820D01*
X17749500Y9985180D01*
X17749500Y9985178D01*
X17749499Y9985178D01*
X17758231Y9941283D01*
X17758232Y9941280D01*
X17758232Y9941279D01*
X17758233Y9941278D01*
X17789897Y9893889D01*
X17795868Y9874820D01*
X17806372Y9857820D01*
X17806094Y9842160D01*
X17810774Y9827213D01*
X17805487Y9807943D01*
X17805133Y9787962D01*
X17793108Y9762821D01*
X17792289Y9759833D01*
X17789919Y9756145D01*
X17789569Y9755621D01*
X17735964Y9710810D01*
X17686460Y9700500D01*
X16160438Y9700500D01*
X16132997Y9693147D01*
X16084008Y9680021D01*
X16084007Y9680020D01*
X16034763Y9651588D01*
X16034762Y9651587D01*
X16015490Y9640461D01*
X16015487Y9640459D01*
X13922095Y7547068D01*
X13860772Y7513583D01*
X13815016Y7512276D01*
X13731524Y7525500D01*
X13168482Y7525500D01*
X13093241Y7513583D01*
X13074696Y7510646D01*
X12961658Y7453050D01*
X12961657Y7453049D01*
X12961652Y7453046D01*
X12871954Y7363348D01*
X12871951Y7363343D01*
X12814352Y7250302D01*
X12799500Y7156525D01*
X12799500Y6143483D01*
X12806870Y6096952D01*
X12814354Y6049696D01*
X12871950Y5936658D01*
X12871952Y5936656D01*
X12871954Y5936653D01*
X12961652Y5846955D01*
X12961654Y5846954D01*
X12961658Y5846950D01*
X13050160Y5801856D01*
X13074698Y5789353D01*
X13168475Y5774501D01*
X13168481Y5774500D01*
X13731518Y5774501D01*
X13825304Y5789354D01*
X13938342Y5846950D01*
X14028050Y5936658D01*
X14085646Y6049696D01*
X14085646Y6049698D01*
X14085647Y6049699D01*
X14100499Y6143476D01*
X14100500Y6143481D01*
X14100499Y6824169D01*
X14120183Y6891207D01*
X14136813Y6911844D01*
X14631494Y7406525D01*
X16799500Y7406525D01*
X16799500Y6393483D01*
X16808636Y6335802D01*
X16814354Y6299696D01*
X16871950Y6186658D01*
X16871952Y6186656D01*
X16871954Y6186653D01*
X16961652Y6096955D01*
X16961654Y6096954D01*
X16961658Y6096950D01*
X17054393Y6049699D01*
X17074698Y6039353D01*
X17168475Y6024501D01*
X17168481Y6024500D01*
X17731518Y6024501D01*
X17731522Y6024501D01*
X17788948Y6033597D01*
X17825304Y6039354D01*
X17825305Y6039355D01*
X17825453Y6039378D01*
X17894747Y6030423D01*
X17948199Y5985427D01*
X17964624Y5949003D01*
X17972901Y5918114D01*
X18032211Y5815387D01*
X18116087Y5731511D01*
X18218814Y5672201D01*
X18333391Y5641500D01*
X18333394Y5641500D01*
X18452006Y5641500D01*
X18452009Y5641500D01*
X18566586Y5672201D01*
X18669313Y5731511D01*
X18753189Y5815387D01*
X18812499Y5918114D01*
X18843200Y6032691D01*
X18843200Y6151309D01*
X18812499Y6265886D01*
X18753189Y6368613D01*
X18669313Y6452489D01*
X18566586Y6511799D01*
X18452009Y6542500D01*
X18452006Y6542500D01*
X18418533Y6542500D01*
X18351494Y6562185D01*
X18330852Y6578819D01*
X18136818Y6772853D01*
X18103333Y6834176D01*
X18100499Y6860534D01*
X18100499Y7406518D01*
X18098599Y7418517D01*
X18085646Y7500304D01*
X18028050Y7613342D01*
X18028046Y7613346D01*
X18028045Y7613348D01*
X17938347Y7703046D01*
X17938344Y7703048D01*
X17938342Y7703050D01*
X17845048Y7750586D01*
X17825301Y7760648D01*
X17731524Y7775500D01*
X17168482Y7775500D01*
X17087519Y7762677D01*
X17074696Y7760646D01*
X16961658Y7703050D01*
X16961657Y7703049D01*
X16961652Y7703046D01*
X16871954Y7613348D01*
X16871951Y7613343D01*
X16871950Y7613342D01*
X16852751Y7575663D01*
X16814352Y7500302D01*
X16799500Y7406525D01*
X14631494Y7406525D01*
X16288152Y9063181D01*
X16349475Y9096666D01*
X16375833Y9099500D01*
X17686460Y9099500D01*
X17753499Y9079815D01*
X17789562Y9044390D01*
X17791496Y9041496D01*
X17841278Y9008233D01*
X17841281Y9008233D01*
X17841282Y9008232D01*
X17885177Y8999500D01*
X17885180Y8999500D01*
X18714822Y8999500D01*
X18758717Y9008232D01*
X18758717Y9008233D01*
X18758722Y9008233D01*
X18808504Y9041496D01*
X18810438Y9044390D01*
X18812383Y9046017D01*
X18813237Y9048406D01*
X18839050Y9068304D01*
X18864050Y9089196D01*
X18867187Y9089991D01*
X18868575Y9091060D01*
X18879538Y9093118D01*
X18902954Y9099047D01*
X18908241Y9099500D01*
X18962138Y9099500D01*
X19041262Y9099500D01*
X19103796Y9116257D01*
X19114714Y9117192D01*
X19138642Y9112339D01*
X19163054Y9111758D01*
X19172275Y9105517D01*
X19183189Y9103303D01*
X19200697Y9086281D01*
X19220917Y9072596D01*
X19225300Y9062362D01*
X19233285Y9054598D01*
X19238810Y9030815D01*
X19248423Y9008369D01*
X19249300Y8993645D01*
X19249300Y7086858D01*
X19249299Y7086844D01*
X19249299Y6987143D01*
X19265881Y6947112D01*
X19283629Y6904266D01*
X19283631Y6904263D01*
X19364500Y6823394D01*
X19364506Y6823389D01*
X23458869Y2729026D01*
X23492354Y2667703D01*
X23494128Y2625169D01*
X23493700Y2621917D01*
X23493700Y2621909D01*
X23493700Y2503291D01*
X23524401Y2388714D01*
X23583711Y2285987D01*
X23667587Y2202111D01*
X23770314Y2142801D01*
X23884891Y2112100D01*
X23884894Y2112100D01*
X24003506Y2112100D01*
X24003509Y2112100D01*
X24118086Y2142801D01*
X24220813Y2202111D01*
X24304689Y2285987D01*
X24363999Y2388714D01*
X24394700Y2503291D01*
X24394700Y2611609D01*
X24814500Y2611609D01*
X24814500Y2492991D01*
X24845201Y2378414D01*
X24904511Y2275687D01*
X24988387Y2191811D01*
X25091114Y2132501D01*
X25205691Y2101800D01*
X25205694Y2101800D01*
X25324306Y2101800D01*
X25324309Y2101800D01*
X25438886Y2132501D01*
X25541613Y2191811D01*
X25625489Y2275687D01*
X25684799Y2378414D01*
X25715500Y2492991D01*
X25715500Y2611609D01*
X25712579Y2622509D01*
X26084500Y2622509D01*
X26084500Y2503891D01*
X26115201Y2389314D01*
X26174511Y2286587D01*
X26258387Y2202711D01*
X26361114Y2143401D01*
X26475691Y2112700D01*
X26475694Y2112700D01*
X26594306Y2112700D01*
X26594309Y2112700D01*
X26708886Y2143401D01*
X26811613Y2202711D01*
X26895489Y2286587D01*
X26954799Y2389314D01*
X26985500Y2503891D01*
X26985500Y2622509D01*
X26981427Y2637709D01*
X30954500Y2637709D01*
X30954500Y2519091D01*
X30985201Y2404514D01*
X31044511Y2301787D01*
X31128387Y2217911D01*
X31231114Y2158601D01*
X31345691Y2127900D01*
X31345694Y2127900D01*
X31464306Y2127900D01*
X31464309Y2127900D01*
X31578886Y2158601D01*
X31681613Y2217911D01*
X31765489Y2301787D01*
X31824799Y2404514D01*
X31855500Y2519091D01*
X31855500Y2637709D01*
X31852244Y2649861D01*
X31853905Y2719705D01*
X31884335Y2769632D01*
X32312855Y3198151D01*
X32374177Y3231635D01*
X32443869Y3226651D01*
X32499802Y3184779D01*
X32507921Y3172470D01*
X32532566Y3129786D01*
X32552311Y3095587D01*
X32636187Y3011711D01*
X32738914Y2952401D01*
X32853491Y2921700D01*
X32853494Y2921700D01*
X32972106Y2921700D01*
X32972109Y2921700D01*
X33086686Y2952401D01*
X33189413Y3011711D01*
X33273289Y3095587D01*
X33332599Y3198314D01*
X33363300Y3312891D01*
X33363300Y3431509D01*
X33332599Y3546086D01*
X33273289Y3648813D01*
X33189413Y3732689D01*
X33186786Y3734206D01*
X33112530Y3777079D01*
X33064315Y3827646D01*
X33051093Y3896253D01*
X33077061Y3961118D01*
X33086842Y3972139D01*
X34258252Y5143549D01*
X34319573Y5177032D01*
X34363806Y5178570D01*
X34391740Y5174500D01*
X34391742Y5174500D01*
X34858261Y5174500D01*
X34921122Y5183659D01*
X34990299Y5173846D01*
X35043189Y5128191D01*
X35063000Y5061189D01*
X35063000Y3890433D01*
X35043315Y3823394D01*
X35026681Y3802752D01*
X34488241Y3264313D01*
X34488235Y3264305D01*
X34448682Y3195796D01*
X34448679Y3195791D01*
X34428200Y3119361D01*
X34428200Y2042164D01*
X34408515Y1975125D01*
X34391881Y1954483D01*
X34368213Y1930816D01*
X34368211Y1930813D01*
X34308906Y1828094D01*
X34308901Y1828086D01*
X34278200Y1713509D01*
X34278200Y1594891D01*
X34308901Y1480314D01*
X34368211Y1377587D01*
X34452087Y1293711D01*
X34554814Y1234401D01*
X34669391Y1203700D01*
X34669394Y1203700D01*
X34788006Y1203700D01*
X34788009Y1203700D01*
X34902586Y1234401D01*
X35005313Y1293711D01*
X35089189Y1377587D01*
X35148499Y1480314D01*
X35179200Y1594891D01*
X35179200Y1713509D01*
X35148499Y1828086D01*
X35089189Y1930813D01*
X35065519Y1954483D01*
X35032034Y2015806D01*
X35029200Y2042164D01*
X35029200Y2903967D01*
X35048885Y2971006D01*
X35065519Y2991648D01*
X35306387Y3232516D01*
X35566460Y3492589D01*
X35606022Y3561112D01*
X35626500Y3637538D01*
X35626500Y3716662D01*
X35606022Y3793088D01*
X35605611Y3793800D01*
X35605399Y3794592D01*
X35602911Y3800598D01*
X35603701Y3800926D01*
X35589000Y3855797D01*
X35589000Y6942113D01*
X35589000Y6942114D01*
X35558400Y7015988D01*
X35548961Y7038777D01*
X35548960Y7038778D01*
X35548960Y7038779D01*
X35194489Y7393249D01*
X35161004Y7454572D01*
X35163699Y7517544D01*
X35165571Y7523604D01*
X35165573Y7523607D01*
X35175500Y7591740D01*
X35175500Y8208260D01*
X35172479Y8228991D01*
X35166477Y8270188D01*
X35165573Y8276393D01*
X35114198Y8381483D01*
X35114196Y8381485D01*
X35114196Y8381486D01*
X35031484Y8464198D01*
X34995039Y8482015D01*
X34988522Y8487969D01*
X34980112Y8490647D01*
X34963126Y8511173D01*
X34943457Y8529143D01*
X34940021Y8539091D01*
X34935567Y8544474D01*
X34931742Y8563068D01*
X34926394Y8578556D01*
X34925500Y8585963D01*
X34925500Y8648762D01*
X34913984Y8691740D01*
X34905022Y8725188D01*
X34865460Y8793711D01*
X34835935Y8823236D01*
X34802450Y8884559D01*
X34807434Y8954251D01*
X34835935Y8998598D01*
X35145598Y9308261D01*
X35548960Y9711622D01*
X35575005Y9774500D01*
X35589000Y9808286D01*
X35589000Y12650504D01*
X35603702Y12705372D01*
X35602910Y12705700D01*
X35605404Y12711723D01*
X35605615Y12712508D01*
X35605767Y12712771D01*
X35606021Y12713211D01*
X35626500Y12789638D01*
X35626500Y12868762D01*
X35606021Y12945189D01*
X35593921Y12966147D01*
X35566464Y13013705D01*
X35566458Y13013713D01*
X35510512Y13069659D01*
X35510504Y13069665D01*
X35441995Y13109218D01*
X35441990Y13109221D01*
X35416513Y13116048D01*
X35365562Y13129700D01*
X35365560Y13129700D01*
X35290892Y13129700D01*
X35223853Y13149385D01*
X35178098Y13202189D01*
X35168188Y13235820D01*
X35164866Y13258625D01*
X35164865Y13258627D01*
X35164865Y13258629D01*
X35109827Y13371211D01*
X35021210Y13459828D01*
X34908628Y13514865D01*
X34908626Y13514866D01*
X34908625Y13514866D01*
X34835636Y13525500D01*
X34314364Y13525500D01*
X34259622Y13517525D01*
X34241373Y13514866D01*
X34203960Y13496575D01*
X34202289Y13496290D01*
X34201011Y13495182D01*
X34167983Y13490434D01*
X34135087Y13484817D01*
X34133530Y13485480D01*
X34131853Y13485238D01*
X34101483Y13499108D01*
X34070790Y13512160D01*
X34069837Y13513560D01*
X34068297Y13514263D01*
X34050245Y13542352D01*
X34031483Y13569925D01*
X34031145Y13572073D01*
X34030523Y13573041D01*
X34025500Y13607976D01*
X34025500Y13705703D01*
X34025501Y13705712D01*
X34025501Y13809854D01*
X34025501Y13809855D01*
X33991170Y13892735D01*
X33991170Y13892736D01*
X33927736Y13956170D01*
X33921030Y13962876D01*
X33887545Y14024199D01*
X33885772Y14066747D01*
X33886198Y14069985D01*
X33886200Y14069991D01*
X33886200Y14188609D01*
X33855499Y14303186D01*
X33796189Y14405913D01*
X33712313Y14489789D01*
X33609586Y14549099D01*
X33495009Y14579800D01*
X33376391Y14579800D01*
X33261814Y14549099D01*
X33261812Y14549099D01*
X33261812Y14549098D01*
X33159087Y14489789D01*
X33159084Y14489787D01*
X33075213Y14405916D01*
X33075211Y14405913D01*
X33023235Y14315888D01*
X33015901Y14303186D01*
X32985200Y14188609D01*
X32985200Y14069991D01*
X33015901Y13955414D01*
X33075211Y13852687D01*
X33159087Y13768811D01*
X33261814Y13709501D01*
X33376391Y13678800D01*
X33376394Y13678800D01*
X33450500Y13678800D01*
X33517539Y13659115D01*
X33563294Y13606311D01*
X33574500Y13554800D01*
X33574500Y11279858D01*
X33574499Y11279844D01*
X33574499Y11180145D01*
X33596208Y11127736D01*
X33596207Y11127736D01*
X33608829Y11097266D01*
X33608831Y11097263D01*
X33689700Y11016394D01*
X33689706Y11016389D01*
X34038181Y10667914D01*
X34071666Y10606591D01*
X34074500Y10580233D01*
X34074500Y10091740D01*
X34084426Y10023609D01*
X34135803Y9918515D01*
X34218514Y9835804D01*
X34218515Y9835804D01*
X34218517Y9835802D01*
X34323607Y9784427D01*
X34355261Y9779815D01*
X34391739Y9774500D01*
X34568599Y9774500D01*
X34635638Y9754815D01*
X34681393Y9702011D01*
X34691337Y9632853D01*
X34662312Y9569297D01*
X34656280Y9562819D01*
X34290186Y9196726D01*
X34240988Y9168318D01*
X34241315Y9167529D01*
X34235326Y9165049D01*
X34234610Y9164635D01*
X34233810Y9164421D01*
X34233806Y9164420D01*
X34165295Y9124865D01*
X34165287Y9124859D01*
X34109339Y9068911D01*
X34069779Y9000389D01*
X34069779Y9000388D01*
X34049300Y8923962D01*
X34049300Y8844838D01*
X34067982Y8775119D01*
X34069779Y8768413D01*
X34069779Y8768412D01*
X34109339Y8699890D01*
X34194092Y8615137D01*
X34227577Y8553814D01*
X34222593Y8484122D01*
X34194093Y8439775D01*
X34135802Y8381484D01*
X34084426Y8276392D01*
X34074500Y8208261D01*
X34074500Y7591740D01*
X34084426Y7523609D01*
X34135803Y7418515D01*
X34218514Y7335804D01*
X34218515Y7335804D01*
X34218517Y7335802D01*
X34323607Y7284427D01*
X34357673Y7279464D01*
X34391739Y7274500D01*
X34391740Y7274500D01*
X34518000Y7274500D01*
X34585039Y7254815D01*
X34605681Y7238181D01*
X35026681Y6817181D01*
X35041384Y6790254D01*
X35057977Y6764435D01*
X35058868Y6758235D01*
X35060166Y6755858D01*
X35063000Y6729500D01*
X35063000Y6539046D01*
X35043315Y6472007D01*
X34990511Y6426252D01*
X34921353Y6416308D01*
X34921124Y6416341D01*
X34899525Y6419488D01*
X34858260Y6425500D01*
X34858256Y6425500D01*
X34819768Y6425500D01*
X34752729Y6445185D01*
X34732087Y6461819D01*
X33561819Y7632087D01*
X33528334Y7693410D01*
X33525500Y7719768D01*
X33525500Y8208261D01*
X33516477Y8270188D01*
X33515573Y8276393D01*
X33464198Y8381483D01*
X33464196Y8381485D01*
X33464196Y8381486D01*
X33381485Y8464197D01*
X33276391Y8515574D01*
X33208261Y8525500D01*
X33208260Y8525500D01*
X32741740Y8525500D01*
X32741739Y8525500D01*
X32673608Y8515574D01*
X32568514Y8464197D01*
X32485803Y8381486D01*
X32434426Y8276392D01*
X32424500Y8208261D01*
X32424500Y7863380D01*
X32404815Y7796341D01*
X32352011Y7750586D01*
X32282853Y7740642D01*
X32268408Y7743605D01*
X32214310Y7758100D01*
X32214309Y7758100D01*
X32095691Y7758100D01*
X31981114Y7727399D01*
X31981112Y7727399D01*
X31981112Y7727398D01*
X31878387Y7668089D01*
X31878384Y7668087D01*
X31794513Y7584216D01*
X31794511Y7584213D01*
X31746065Y7500302D01*
X31735201Y7481486D01*
X31704500Y7366909D01*
X31704500Y7248291D01*
X31735201Y7133714D01*
X31794511Y7030987D01*
X31878387Y6947111D01*
X31981114Y6887801D01*
X32095691Y6857100D01*
X32095694Y6857100D01*
X32214306Y6857100D01*
X32214309Y6857100D01*
X32328886Y6887801D01*
X32431613Y6947111D01*
X32515489Y7030987D01*
X32574799Y7133714D01*
X32588839Y7186114D01*
X32625203Y7245771D01*
X32688049Y7276301D01*
X32726489Y7276722D01*
X32741740Y7274500D01*
X32741742Y7274500D01*
X33208255Y7274500D01*
X33208260Y7274500D01*
X33210700Y7274856D01*
X33211535Y7274738D01*
X33212732Y7274824D01*
X33212750Y7274565D01*
X33279875Y7265045D01*
X33316262Y7239833D01*
X34119362Y6436732D01*
X34152847Y6375409D01*
X34147863Y6305717D01*
X34139978Y6290879D01*
X34140315Y6290714D01*
X34135802Y6281484D01*
X34135802Y6281483D01*
X34120920Y6251044D01*
X34084426Y6176392D01*
X34074500Y6108261D01*
X34074500Y5648968D01*
X34054815Y5581929D01*
X34038181Y5561287D01*
X31542113Y3065219D01*
X31480790Y3031734D01*
X31454432Y3028900D01*
X31345691Y3028900D01*
X31231114Y2998199D01*
X31231112Y2998199D01*
X31231112Y2998198D01*
X31128387Y2938889D01*
X31128384Y2938887D01*
X31044513Y2855016D01*
X31044511Y2855013D01*
X31035391Y2839216D01*
X30985201Y2752286D01*
X30954500Y2637709D01*
X26981427Y2637709D01*
X26954799Y2737086D01*
X26895489Y2839813D01*
X26811613Y2923689D01*
X26708886Y2982999D01*
X26594309Y3013700D01*
X26475691Y3013700D01*
X26361114Y2982999D01*
X26361112Y2982999D01*
X26361112Y2982998D01*
X26258387Y2923689D01*
X26258384Y2923687D01*
X26174513Y2839816D01*
X26174511Y2839813D01*
X26137093Y2775003D01*
X26115201Y2737086D01*
X26084500Y2622509D01*
X25712579Y2622509D01*
X25684799Y2726186D01*
X25625489Y2828913D01*
X25541613Y2912789D01*
X25438886Y2972099D01*
X25324309Y3002800D01*
X25205691Y3002800D01*
X25091114Y2972099D01*
X25091112Y2972099D01*
X25091112Y2972098D01*
X24988387Y2912789D01*
X24988384Y2912787D01*
X24904513Y2828916D01*
X24904511Y2828913D01*
X24845201Y2726186D01*
X24814500Y2611609D01*
X24394700Y2611609D01*
X24394700Y2621909D01*
X24363999Y2736486D01*
X24304689Y2839213D01*
X24220813Y2923089D01*
X24118086Y2982399D01*
X24003509Y3013100D01*
X23884891Y3013100D01*
X23884884Y3013100D01*
X23881631Y3012672D01*
X23878888Y3013100D01*
X23876764Y3013100D01*
X23876764Y3013432D01*
X23812597Y3023443D01*
X23777774Y3047931D01*
X19736619Y7089086D01*
X19703134Y7150409D01*
X19700300Y7176767D01*
X19700300Y8875500D01*
X19719985Y8942539D01*
X19772789Y8988294D01*
X19824300Y8999500D01*
X20180058Y8999500D01*
X20247097Y8979815D01*
X20292852Y8927011D01*
X20302796Y8857853D01*
X20299834Y8843415D01*
X20276200Y8755209D01*
X20276200Y8636591D01*
X20306901Y8522014D01*
X20366211Y8419287D01*
X20450087Y8335411D01*
X20552814Y8276101D01*
X20667391Y8245400D01*
X20667394Y8245400D01*
X20786006Y8245400D01*
X20786009Y8245400D01*
X20900586Y8276101D01*
X21003313Y8335411D01*
X21015511Y8347609D01*
X22662800Y8347609D01*
X22662800Y8228991D01*
X22693501Y8114414D01*
X22752811Y8011687D01*
X22836687Y7927811D01*
X22939414Y7868501D01*
X23053991Y7837800D01*
X23053994Y7837800D01*
X23172606Y7837800D01*
X23172609Y7837800D01*
X23287186Y7868501D01*
X23389913Y7927811D01*
X23473789Y8011687D01*
X23533099Y8114414D01*
X23563800Y8228991D01*
X23563800Y8250500D01*
X23583485Y8317539D01*
X23636289Y8363294D01*
X23687800Y8374500D01*
X23974167Y8374500D01*
X24041206Y8354815D01*
X24061848Y8338181D01*
X24313181Y8086848D01*
X24346666Y8025525D01*
X24349500Y7999167D01*
X24349500Y7233465D01*
X24329815Y7166426D01*
X24279961Y7122065D01*
X24203787Y7084826D01*
X24115172Y6996211D01*
X24060135Y6883629D01*
X24060134Y6883627D01*
X24060134Y6883625D01*
X24049500Y6810636D01*
X24049500Y5989364D01*
X24060134Y5916375D01*
X24060134Y5916374D01*
X24060135Y5916372D01*
X24115172Y5803790D01*
X24203789Y5715173D01*
X24311572Y5662482D01*
X24316375Y5660134D01*
X24389364Y5649500D01*
X24389370Y5649500D01*
X24910630Y5649500D01*
X24910636Y5649500D01*
X24983625Y5660134D01*
X25041118Y5688241D01*
X25096210Y5715173D01*
X25184827Y5803790D01*
X25224836Y5885631D01*
X25239866Y5916375D01*
X25250500Y5989364D01*
X25250500Y6320309D01*
X27238500Y6320309D01*
X27238500Y6201691D01*
X27269201Y6087114D01*
X27328511Y5984387D01*
X27412387Y5900511D01*
X27515114Y5841201D01*
X27629691Y5810500D01*
X27663167Y5810500D01*
X27692607Y5801856D01*
X27722594Y5795332D01*
X27727609Y5791578D01*
X27730206Y5790815D01*
X27750848Y5774181D01*
X27863181Y5661848D01*
X27896666Y5600525D01*
X27899500Y5574167D01*
X27899500Y4893483D01*
X27910292Y4825343D01*
X27914354Y4799696D01*
X27971950Y4686658D01*
X27971952Y4686656D01*
X27971954Y4686653D01*
X28061652Y4596955D01*
X28061654Y4596954D01*
X28061658Y4596950D01*
X28174694Y4539355D01*
X28174698Y4539353D01*
X28268475Y4524501D01*
X28268481Y4524500D01*
X28831518Y4524501D01*
X28925304Y4539354D01*
X29038342Y4596950D01*
X29128050Y4686658D01*
X29185646Y4799696D01*
X29185646Y4799698D01*
X29185647Y4799699D01*
X29200500Y4893476D01*
X29200500Y5200500D01*
X29220185Y5267539D01*
X29272989Y5313294D01*
X29324500Y5324500D01*
X30091535Y5324500D01*
X30158574Y5304815D01*
X30202935Y5254961D01*
X30240174Y5178788D01*
X30328789Y5090173D01*
X30424068Y5043595D01*
X30441375Y5035134D01*
X30514364Y5024500D01*
X30514370Y5024500D01*
X31085630Y5024500D01*
X31085636Y5024500D01*
X31158625Y5035134D01*
X31248369Y5079007D01*
X31271210Y5090173D01*
X31359827Y5178790D01*
X31403101Y5267310D01*
X31414866Y5291375D01*
X31425500Y5364364D01*
X31425500Y5885636D01*
X31414866Y5958625D01*
X31397961Y5993205D01*
X31359827Y6071211D01*
X31271210Y6159828D01*
X31158628Y6214865D01*
X31158626Y6214866D01*
X31158625Y6214866D01*
X31085636Y6225500D01*
X30514364Y6225500D01*
X30441375Y6214866D01*
X30441373Y6214866D01*
X30441371Y6214865D01*
X30328789Y6159828D01*
X30240174Y6071213D01*
X30202935Y5995039D01*
X30155807Y5943457D01*
X30091535Y5925500D01*
X29299747Y5925500D01*
X29232708Y5945185D01*
X29189262Y5993205D01*
X29185646Y6000301D01*
X29185646Y6000304D01*
X29128050Y6113342D01*
X29128048Y6113344D01*
X29128045Y6113348D01*
X29038347Y6203046D01*
X29038344Y6203048D01*
X29038342Y6203050D01*
X28960499Y6242713D01*
X28925301Y6260648D01*
X28831524Y6275500D01*
X28268477Y6275500D01*
X28266539Y6275192D01*
X28265795Y6275289D01*
X28263620Y6275117D01*
X28263584Y6275574D01*
X28197246Y6284149D01*
X28143796Y6329148D01*
X28127372Y6365568D01*
X28108799Y6434886D01*
X28049489Y6537613D01*
X27965613Y6621489D01*
X27862886Y6680799D01*
X27748309Y6711500D01*
X27629691Y6711500D01*
X27562175Y6693409D01*
X27517572Y6681458D01*
X27517570Y6681458D01*
X27515114Y6680799D01*
X27453847Y6645427D01*
X27453661Y6645321D01*
X27412392Y6621493D01*
X27412384Y6621487D01*
X27328513Y6537616D01*
X27328511Y6537613D01*
X27269201Y6434886D01*
X27238500Y6320309D01*
X25250500Y6320309D01*
X25250500Y6810636D01*
X25239866Y6883625D01*
X25211273Y6942113D01*
X25184827Y6996211D01*
X25096212Y7084826D01*
X25020039Y7122065D01*
X24968457Y7169193D01*
X24950500Y7233465D01*
X24950500Y8214561D01*
X24950500Y8214562D01*
X24930021Y8290989D01*
X24930017Y8290996D01*
X24890464Y8359505D01*
X24890458Y8359513D01*
X24411819Y8838152D01*
X24378334Y8899475D01*
X24375500Y8925833D01*
X24375500Y9258261D01*
X26274500Y9258261D01*
X26274500Y8791740D01*
X26284426Y8723609D01*
X26335803Y8618515D01*
X26418514Y8535804D01*
X26418515Y8535804D01*
X26418517Y8535802D01*
X26523607Y8484427D01*
X26540162Y8482015D01*
X26591739Y8474500D01*
X27102701Y8474500D01*
X27169740Y8454815D01*
X27215495Y8402011D01*
X27225439Y8332853D01*
X27210087Y8288499D01*
X27196803Y8265492D01*
X27196802Y8265491D01*
X27196801Y8265486D01*
X27166100Y8150909D01*
X27166100Y8150907D01*
X27166100Y8049500D01*
X27146415Y7982461D01*
X27093611Y7936706D01*
X27042100Y7925500D01*
X26591739Y7925500D01*
X26523608Y7915574D01*
X26418514Y7864197D01*
X26335803Y7781486D01*
X26284426Y7676392D01*
X26274500Y7608261D01*
X26274500Y7141740D01*
X26284426Y7073609D01*
X26284427Y7073607D01*
X26312595Y7015987D01*
X26335803Y6968515D01*
X26418514Y6885804D01*
X26418515Y6885804D01*
X26418517Y6885802D01*
X26523607Y6834427D01*
X26557673Y6829464D01*
X26591739Y6824500D01*
X26591740Y6824500D01*
X27208261Y6824500D01*
X27230971Y6827809D01*
X27276393Y6834427D01*
X27381483Y6885802D01*
X27464198Y6968517D01*
X27515573Y7073607D01*
X27525500Y7141740D01*
X27525500Y7517100D01*
X27545185Y7584139D01*
X27597989Y7629894D01*
X27649500Y7641100D01*
X27675906Y7641100D01*
X27675909Y7641100D01*
X27790486Y7671801D01*
X27893213Y7731111D01*
X27977089Y7814987D01*
X28036399Y7917714D01*
X28067100Y8032291D01*
X28067100Y8150909D01*
X28065841Y8155609D01*
X28420800Y8155609D01*
X28420800Y8036991D01*
X28451501Y7922414D01*
X28510811Y7819687D01*
X28594687Y7735811D01*
X28697414Y7676501D01*
X28811991Y7645800D01*
X28811994Y7645800D01*
X28930606Y7645800D01*
X28930609Y7645800D01*
X29045186Y7676501D01*
X29147913Y7735811D01*
X29231789Y7819687D01*
X29291099Y7922414D01*
X29321800Y8036991D01*
X29321800Y8050500D01*
X29341485Y8117539D01*
X29394289Y8163294D01*
X29445800Y8174500D01*
X29808261Y8174500D01*
X29834279Y8178291D01*
X29876393Y8184427D01*
X29981483Y8235802D01*
X30064198Y8318517D01*
X30115573Y8423607D01*
X30125500Y8491740D01*
X30125500Y9108260D01*
X30115573Y9176393D01*
X30064198Y9281483D01*
X30064196Y9281485D01*
X30064196Y9281486D01*
X29981485Y9364197D01*
X29876391Y9415574D01*
X29808261Y9425500D01*
X29808260Y9425500D01*
X29341740Y9425500D01*
X29341739Y9425500D01*
X29273608Y9415574D01*
X29168514Y9364197D01*
X29085803Y9281486D01*
X29034426Y9176392D01*
X29024500Y9108261D01*
X29024500Y8670800D01*
X29004815Y8603761D01*
X28952011Y8558006D01*
X28900500Y8546800D01*
X28811991Y8546800D01*
X28697414Y8516099D01*
X28697412Y8516099D01*
X28697412Y8516098D01*
X28594687Y8456789D01*
X28594684Y8456787D01*
X28510813Y8372916D01*
X28510811Y8372913D01*
X28476699Y8313829D01*
X28451501Y8270186D01*
X28420800Y8155609D01*
X28065841Y8155609D01*
X28036399Y8265486D01*
X27977089Y8368213D01*
X27893213Y8452089D01*
X27790486Y8511399D01*
X27675909Y8542100D01*
X27625484Y8542100D01*
X27558445Y8561785D01*
X27512690Y8614589D01*
X27502746Y8683747D01*
X27514084Y8720562D01*
X27515573Y8723607D01*
X27525500Y8791740D01*
X27525500Y9258260D01*
X27515573Y9326393D01*
X27464198Y9431483D01*
X27464196Y9431485D01*
X27464196Y9431486D01*
X27381484Y9514198D01*
X27363704Y9522890D01*
X27312122Y9570018D01*
X27294208Y9637552D01*
X27310779Y9696292D01*
X27319799Y9711914D01*
X27350500Y9826491D01*
X27350500Y9945109D01*
X27319799Y10059686D01*
X27260489Y10162413D01*
X27176613Y10246289D01*
X27104947Y10287666D01*
X27104944Y10287668D01*
X27073889Y10305598D01*
X27073890Y10305598D01*
X27051736Y10311534D01*
X26959309Y10336300D01*
X26840691Y10336300D01*
X26726114Y10305599D01*
X26726112Y10305599D01*
X26726112Y10305598D01*
X26623387Y10246289D01*
X26623384Y10246287D01*
X26539513Y10162416D01*
X26539511Y10162413D01*
X26498708Y10091740D01*
X26480201Y10059686D01*
X26449500Y9945109D01*
X26449500Y9826491D01*
X26478789Y9717184D01*
X26480202Y9711911D01*
X26489221Y9696290D01*
X26505694Y9628390D01*
X26482842Y9562363D01*
X26436296Y9522890D01*
X26418515Y9514198D01*
X26335803Y9431486D01*
X26284426Y9326392D01*
X26274500Y9258261D01*
X24375500Y9258261D01*
X24375500Y9308261D01*
X24365573Y9376392D01*
X24346419Y9415573D01*
X24314198Y9481483D01*
X24314196Y9481485D01*
X24314196Y9481486D01*
X24231485Y9564197D01*
X24126391Y9615574D01*
X24058261Y9625500D01*
X24058260Y9625500D01*
X23591740Y9625500D01*
X23591739Y9625500D01*
X23523608Y9615574D01*
X23418514Y9564197D01*
X23335803Y9481486D01*
X23284426Y9376392D01*
X23274500Y9308261D01*
X23274500Y8925833D01*
X23265855Y8896393D01*
X23259332Y8866406D01*
X23255577Y8861391D01*
X23254815Y8858794D01*
X23238181Y8838152D01*
X23175148Y8775119D01*
X23113825Y8741634D01*
X23087467Y8738800D01*
X23053991Y8738800D01*
X22939414Y8708099D01*
X22939412Y8708099D01*
X22939412Y8708098D01*
X22836687Y8648789D01*
X22836684Y8648787D01*
X22752813Y8564916D01*
X22752811Y8564913D01*
X22694663Y8464198D01*
X22693501Y8462186D01*
X22662800Y8347609D01*
X21015511Y8347609D01*
X21087189Y8419287D01*
X21146499Y8522014D01*
X21177200Y8636591D01*
X21177200Y8755209D01*
X21146499Y8869786D01*
X21087189Y8972513D01*
X21003313Y9056389D01*
X21003312Y9056390D01*
X21000712Y9058385D01*
X20999075Y9060627D01*
X20997566Y9062136D01*
X20997801Y9062372D01*
X20959510Y9114814D01*
X20952200Y9156760D01*
X20952200Y9444854D01*
X20952198Y9444859D01*
X20951311Y9447000D01*
X20938594Y9477703D01*
X20917872Y9527734D01*
X20854433Y9591173D01*
X20771558Y9625499D01*
X20771556Y9625500D01*
X20771555Y9625500D01*
X20771553Y9625500D01*
X20759093Y9625500D01*
X20692054Y9645185D01*
X20653130Y9685097D01*
X20643224Y9701395D01*
X20641767Y9708722D01*
X20608615Y9758337D01*
X20607242Y9760597D01*
X20598902Y9791879D01*
X20589225Y9822786D01*
X20589954Y9825445D01*
X20589244Y9828109D01*
X20599143Y9858943D01*
X20607709Y9890166D01*
X20610054Y9893817D01*
X20641767Y9941278D01*
X20644856Y9956807D01*
X20650500Y9985178D01*
X20650500Y10198740D01*
X20670185Y10265779D01*
X20722989Y10311534D01*
X20792147Y10321478D01*
X20806576Y10318519D01*
X20906291Y10291800D01*
X20906294Y10291800D01*
X21024906Y10291800D01*
X21024909Y10291800D01*
X21139486Y10322501D01*
X21242213Y10381811D01*
X21326089Y10465687D01*
X21385399Y10568414D01*
X21416100Y10682991D01*
X21416100Y10801609D01*
X21385399Y10916186D01*
X21326089Y11018913D01*
X21242213Y11102789D01*
X21139486Y11162099D01*
X21024909Y11192800D01*
X20906291Y11192800D01*
X20906282Y11192799D01*
X20901651Y11191558D01*
X20878804Y11192103D01*
X20856310Y11188044D01*
X20836448Y11193114D01*
X20831801Y11193224D01*
X20822112Y11196772D01*
X20801921Y11205135D01*
X20801918Y11205138D01*
X20752756Y11225501D01*
X20752755Y11225501D01*
X20730244Y11225501D01*
X20722629Y11227737D01*
X20714794Y11226467D01*
X20689580Y11237442D01*
X20663205Y11245186D01*
X20656376Y11251894D01*
X20650730Y11254351D01*
X20627144Y11280607D01*
X20626156Y11282086D01*
X20610103Y11306110D01*
X20589225Y11372783D01*
X20607708Y11440164D01*
X20610054Y11443817D01*
X20641767Y11491278D01*
X20647476Y11519979D01*
X20650500Y11535178D01*
X20650500Y12064823D01*
X20641768Y12108718D01*
X20641767Y12108719D01*
X20641767Y12108722D01*
X20608504Y12158504D01*
X20599860Y12164280D01*
X20558724Y12191766D01*
X20558717Y12191769D01*
X20514822Y12200500D01*
X20514820Y12200500D01*
X19685180Y12200500D01*
X19685178Y12200500D01*
X19641282Y12191769D01*
X19641276Y12191766D01*
X19581516Y12151837D01*
X19514838Y12130960D01*
X19447458Y12149446D01*
X19424946Y12167259D01*
X19245430Y12346775D01*
X19211945Y12408098D01*
X19210172Y12450644D01*
X19210598Y12453888D01*
X19210600Y12453891D01*
X19210600Y12572509D01*
X19179899Y12687086D01*
X19120589Y12789813D01*
X19036713Y12873689D01*
X18933986Y12932999D01*
X18819409Y12963700D01*
X18700791Y12963700D01*
X18586214Y12932999D01*
X18586212Y12932999D01*
X18586212Y12932998D01*
X18483487Y12873689D01*
X18483484Y12873687D01*
X18399613Y12789816D01*
X18399611Y12789813D01*
X18344788Y12694857D01*
X18340301Y12687086D01*
X18309600Y12572509D01*
X18309600Y12572507D01*
X18309600Y12453892D01*
X18335671Y12356593D01*
X18334008Y12286743D01*
X18294845Y12228881D01*
X18230617Y12201377D01*
X18215896Y12200500D01*
X17885178Y12200500D01*
X17841282Y12191769D01*
X17841276Y12191766D01*
X17800139Y12164280D01*
X17733461Y12143403D01*
X17666081Y12161889D01*
X17643569Y12179702D01*
X17232813Y12590458D01*
X17232811Y12590460D01*
X17231581Y12591170D01*
X17193045Y12613419D01*
X17164290Y12630021D01*
X17138813Y12636848D01*
X17087862Y12650500D01*
X17087860Y12650500D01*
X15475833Y12650500D01*
X15408794Y12670185D01*
X15388152Y12686819D01*
X15322765Y12752206D01*
X15219992Y12797585D01*
X15194868Y12800500D01*
X15194865Y12800500D01*
X15062000Y12800500D01*
X14994961Y12820185D01*
X14949206Y12872989D01*
X14938000Y12924500D01*
X14938000Y13391981D01*
X14957685Y13459020D01*
X15010489Y13504775D01*
X15079647Y13514719D01*
X15143203Y13485694D01*
X15149681Y13479662D01*
X15153454Y13475889D01*
X15153458Y13475886D01*
X15268182Y13399229D01*
X15268195Y13399222D01*
X15395667Y13346422D01*
X15395672Y13346420D01*
X15395676Y13346420D01*
X15395677Y13346419D01*
X15531004Y13319500D01*
X15531007Y13319500D01*
X15668995Y13319500D01*
X15778060Y13341195D01*
X15804328Y13346420D01*
X15931811Y13399225D01*
X16046542Y13475886D01*
X16144114Y13573458D01*
X16220775Y13688189D01*
X16223214Y13694076D01*
X16239300Y13732912D01*
X16273580Y13815672D01*
X16289874Y13897587D01*
X16300500Y13951005D01*
X16300500Y14088996D01*
X16273581Y14224323D01*
X16273580Y14224324D01*
X16273580Y14224328D01*
X16259256Y14258909D01*
X16220778Y14351805D01*
X16220771Y14351818D01*
X16144114Y14466542D01*
X16144111Y14466546D01*
X16043338Y14567319D01*
X16009853Y14628642D01*
X16014837Y14698334D01*
X16043338Y14742681D01*
X16144111Y14843455D01*
X16144114Y14843458D01*
X16220775Y14958189D01*
X16273580Y15085672D01*
X16295738Y15197065D01*
X16300500Y15221005D01*
X16300500Y15358996D01*
X16273581Y15494323D01*
X16273580Y15494324D01*
X16273580Y15494328D01*
X16261452Y15523607D01*
X16220778Y15621805D01*
X16220771Y15621818D01*
X16144114Y15736542D01*
X16144111Y15736546D01*
X16043338Y15837319D01*
X16009853Y15898642D01*
X16014837Y15968334D01*
X16043338Y16012681D01*
X16144111Y16113455D01*
X16144114Y16113458D01*
X16220775Y16228189D01*
X16273580Y16355672D01*
X16283233Y16404201D01*
X16300500Y16491005D01*
X16300500Y16628996D01*
X16273581Y16764323D01*
X16273580Y16764324D01*
X16273580Y16764328D01*
X16264277Y16786787D01*
X16220778Y16891805D01*
X16220771Y16891818D01*
X16144114Y17006542D01*
X16144111Y17006546D01*
X16046545Y17104112D01*
X16046541Y17104115D01*
X15931817Y17180772D01*
X15931804Y17180779D01*
X15804332Y17233579D01*
X15804322Y17233582D01*
X15668995Y17260500D01*
X15668993Y17260500D01*
X15531007Y17260500D01*
X15531005Y17260500D01*
X15395677Y17233582D01*
X15395667Y17233579D01*
X15268195Y17180779D01*
X15268182Y17180772D01*
X15153458Y17104115D01*
X15153454Y17104112D01*
X15055888Y17006546D01*
X15055885Y17006542D01*
X14979228Y16891818D01*
X14979221Y16891805D01*
X14926421Y16764333D01*
X14926418Y16764323D01*
X14899500Y16628996D01*
X14899500Y16491003D01*
X14920835Y16383744D01*
X14914608Y16314152D01*
X14886899Y16271872D01*
X14452989Y15837960D01*
X14397041Y15782013D01*
X14397035Y15782005D01*
X14357482Y15713496D01*
X14357479Y15713491D01*
X14345100Y15667291D01*
X14338666Y15643277D01*
X14337000Y15637061D01*
X14337000Y14777422D01*
X14317315Y14710383D01*
X14264511Y14664628D01*
X14195353Y14654684D01*
X14158540Y14666021D01*
X14058626Y14714866D01*
X14048198Y14716386D01*
X13985636Y14725500D01*
X13985630Y14725500D01*
X13844833Y14725500D01*
X13777794Y14745185D01*
X13757152Y14761819D01*
X13250219Y15268752D01*
X13216734Y15330075D01*
X13213900Y15356433D01*
X13213900Y16237568D01*
X13233585Y16304607D01*
X13250214Y16325244D01*
X15311871Y18386902D01*
X15373192Y18420385D01*
X15423741Y18420836D01*
X15531002Y18399501D01*
X15531005Y18399500D01*
X15531007Y18399500D01*
X15668995Y18399500D01*
X15771394Y18419869D01*
X15804328Y18426420D01*
X15931811Y18479225D01*
X16046542Y18555886D01*
X16053475Y18562819D01*
X16062819Y18572162D01*
X16124142Y18605647D01*
X16193834Y18600663D01*
X16249767Y18558791D01*
X16274184Y18493327D01*
X16274500Y18484481D01*
X16274500Y17891740D01*
X16284426Y17823609D01*
X16335803Y17718515D01*
X16418514Y17635804D01*
X16418515Y17635804D01*
X16418517Y17635802D01*
X16523607Y17584427D01*
X16532258Y17580198D01*
X16530881Y17577383D01*
X16575563Y17547765D01*
X16595271Y17515351D01*
X16623774Y17446540D01*
X16623773Y17446540D01*
X16633829Y17422265D01*
X16633830Y17422264D01*
X16697264Y17358830D01*
X16697265Y17358830D01*
X16714705Y17341390D01*
X17888181Y16167914D01*
X17921666Y16106591D01*
X17924500Y16080233D01*
X17924500Y15591740D01*
X17934426Y15523609D01*
X17985803Y15418515D01*
X18068514Y15335804D01*
X18068515Y15335804D01*
X18068517Y15335802D01*
X18173607Y15284427D01*
X18207673Y15279464D01*
X18241739Y15274500D01*
X18241740Y15274500D01*
X18708261Y15274500D01*
X18730971Y15277809D01*
X18776393Y15284427D01*
X18881483Y15335802D01*
X18964198Y15418517D01*
X19015573Y15523607D01*
X19025500Y15591740D01*
X19025500Y16208260D01*
X19015573Y16276393D01*
X18964198Y16381483D01*
X18964196Y16381485D01*
X18964196Y16381486D01*
X18881485Y16464197D01*
X18840735Y16484119D01*
X18789154Y16531248D01*
X18771240Y16598782D01*
X18785148Y16648078D01*
X18783887Y16648600D01*
X18786997Y16656110D01*
X18786997Y16656112D01*
X18786999Y16656114D01*
X18817700Y16770691D01*
X18817700Y16889309D01*
X18786999Y17003886D01*
X18727689Y17106613D01*
X18643813Y17190489D01*
X18541086Y17249799D01*
X18426509Y17280500D01*
X18307891Y17280500D01*
X18307884Y17280500D01*
X18304631Y17280072D01*
X18301888Y17280500D01*
X18299764Y17280500D01*
X18299764Y17280832D01*
X18235597Y17290843D01*
X18200774Y17315331D01*
X18153286Y17362819D01*
X18119801Y17424142D01*
X18124785Y17493834D01*
X18166657Y17549767D01*
X18232121Y17574184D01*
X18240967Y17574500D01*
X18708261Y17574500D01*
X18730971Y17577809D01*
X18776393Y17584427D01*
X18881483Y17635802D01*
X18964198Y17718517D01*
X19015573Y17823607D01*
X19025500Y17891740D01*
X19025500Y18380233D01*
X19045185Y18447272D01*
X19061819Y18467914D01*
X19332086Y18738181D01*
X19359013Y18752885D01*
X19384832Y18769477D01*
X19391032Y18770369D01*
X19393409Y18771666D01*
X19419767Y18774500D01*
X19525167Y18774500D01*
X19592206Y18754815D01*
X19637961Y18702011D01*
X19647905Y18632853D01*
X19618880Y18569297D01*
X19612848Y18562819D01*
X19597794Y18547766D01*
X19552415Y18444994D01*
X19552415Y18444992D01*
X19549500Y18419869D01*
X19549500Y17305144D01*
X19549502Y17305118D01*
X19552413Y17280013D01*
X19552415Y17280009D01*
X19597793Y17177236D01*
X19597794Y17177235D01*
X19677235Y17097794D01*
X19780009Y17052415D01*
X19805135Y17049500D01*
X19935765Y17049501D01*
X20002805Y17029817D01*
X20023447Y17013182D01*
X20352640Y16683989D01*
X20408589Y16628040D01*
X20408591Y16628039D01*
X20408595Y16628036D01*
X20477104Y16588483D01*
X20477111Y16588479D01*
X20553538Y16568000D01*
X20632662Y16568000D01*
X21054600Y16568000D01*
X21121639Y16548315D01*
X21167394Y16495511D01*
X21178600Y16444000D01*
X21178600Y15970638D01*
X21187017Y15939225D01*
X21199079Y15894210D01*
X21213345Y15869501D01*
X21230456Y15839865D01*
X21238640Y15825689D01*
X21245970Y15818359D01*
X21252264Y15809319D01*
X21259985Y15786220D01*
X21271664Y15764837D01*
X21273813Y15744854D01*
X21274415Y15743053D01*
X21274128Y15741924D01*
X21274500Y15738467D01*
X21274500Y15308465D01*
X21254815Y15241426D01*
X21204961Y15197065D01*
X21128787Y15159826D01*
X21040172Y15071211D01*
X20985135Y14958629D01*
X20985134Y14958627D01*
X20985134Y14958625D01*
X20974500Y14885636D01*
X20974500Y14314364D01*
X20985134Y14241375D01*
X20985134Y14241374D01*
X20985135Y14241372D01*
X21040172Y14128790D01*
X21128789Y14040173D01*
X21236572Y13987482D01*
X21241375Y13985134D01*
X21314364Y13974500D01*
X21314370Y13974500D01*
X21835630Y13974500D01*
X21835636Y13974500D01*
X21908625Y13985134D01*
X22021211Y14040174D01*
X22085619Y14104583D01*
X22146940Y14138066D01*
X22173299Y14140900D01*
X26538755Y14140900D01*
X26605794Y14121215D01*
X26651549Y14068411D01*
X26658527Y14049000D01*
X26680201Y13968114D01*
X26739511Y13865387D01*
X26739513Y13865385D01*
X26763181Y13841717D01*
X26796666Y13780394D01*
X26799500Y13754036D01*
X26799500Y13029338D01*
X26807495Y12999501D01*
X26819979Y12952910D01*
X26823054Y12947585D01*
X26849652Y12901515D01*
X26849655Y12901511D01*
X26859537Y12884393D01*
X26859539Y12884390D01*
X26859540Y12884389D01*
X27135189Y12608740D01*
X27194529Y12574480D01*
X27202298Y12569994D01*
X27203712Y12569178D01*
X27280138Y12548700D01*
X27280140Y12548700D01*
X27359260Y12548700D01*
X27359262Y12548700D01*
X27393406Y12557849D01*
X27463255Y12556187D01*
X27521118Y12517026D01*
X27548623Y12452797D01*
X27549500Y12438076D01*
X27549500Y12305145D01*
X27549502Y12305118D01*
X27552413Y12280013D01*
X27552415Y12280009D01*
X27597793Y12177236D01*
X27662348Y12112681D01*
X27695833Y12051358D01*
X27690849Y11981666D01*
X27662348Y11937319D01*
X27597794Y11872766D01*
X27552415Y11769994D01*
X27552415Y11769992D01*
X27549500Y11744869D01*
X27549500Y11373045D01*
X27529815Y11306006D01*
X27477011Y11260251D01*
X27457595Y11253271D01*
X27387915Y11234600D01*
X27387914Y11234600D01*
X27285187Y11175289D01*
X27285184Y11175287D01*
X27201313Y11091416D01*
X27201311Y11091413D01*
X27147260Y10997794D01*
X27142001Y10988686D01*
X27111300Y10874109D01*
X27111300Y10755491D01*
X27142001Y10640914D01*
X27201311Y10538187D01*
X27285187Y10454311D01*
X27356855Y10412933D01*
X27356858Y10412931D01*
X27387908Y10395004D01*
X27387909Y10395003D01*
X27387911Y10395003D01*
X27387914Y10395001D01*
X27502491Y10364300D01*
X27502494Y10364300D01*
X27621106Y10364300D01*
X27621109Y10364300D01*
X27735686Y10395001D01*
X27838413Y10454311D01*
X27922289Y10538187D01*
X27981599Y10640914D01*
X28012300Y10755491D01*
X28012300Y10874109D01*
X28012297Y10874118D01*
X28011872Y10877348D01*
X28012300Y10880095D01*
X28012300Y10881553D01*
X28011126Y10884700D01*
X28017796Y10915365D01*
X28022631Y10946384D01*
X28025401Y10950326D01*
X28025978Y10952973D01*
X28047123Y10981220D01*
X28129088Y11063185D01*
X28190410Y11096667D01*
X28216767Y11099501D01*
X28555232Y11099501D01*
X28622271Y11079816D01*
X28642913Y11063182D01*
X30638181Y9067914D01*
X30671666Y9006591D01*
X30674500Y8980233D01*
X30674500Y8491740D01*
X30684426Y8423609D01*
X30735803Y8318515D01*
X30818514Y8235804D01*
X30818515Y8235804D01*
X30818517Y8235802D01*
X30923607Y8184427D01*
X30957673Y8179464D01*
X30991739Y8174500D01*
X30991740Y8174500D01*
X31458261Y8174500D01*
X31484279Y8178291D01*
X31526393Y8184427D01*
X31631483Y8235802D01*
X31714198Y8318517D01*
X31765573Y8423607D01*
X31775500Y8491740D01*
X31775500Y9108260D01*
X31765573Y9176393D01*
X31714198Y9281483D01*
X31714196Y9281485D01*
X31714196Y9281486D01*
X31644531Y9351151D01*
X31644510Y9351171D01*
X31631483Y9364198D01*
X31526393Y9415573D01*
X31526391Y9415574D01*
X31458261Y9425500D01*
X31458260Y9425500D01*
X30991740Y9425500D01*
X30991739Y9425500D01*
X30989279Y9425142D01*
X30988441Y9425261D01*
X30987269Y9425176D01*
X30987250Y9425431D01*
X30920103Y9434965D01*
X30883737Y9460168D01*
X30387096Y9956809D01*
X31634400Y9956809D01*
X31634400Y9838191D01*
X31665101Y9723614D01*
X31724411Y9620887D01*
X31808287Y9537011D01*
X31911014Y9477701D01*
X32025591Y9447000D01*
X32025594Y9447000D01*
X32144206Y9447000D01*
X32144209Y9447000D01*
X32258786Y9477701D01*
X32361513Y9537011D01*
X32445389Y9620887D01*
X32504699Y9723614D01*
X32535400Y9838191D01*
X32535400Y9956809D01*
X32504699Y10071386D01*
X32445389Y10174113D01*
X32361513Y10257989D01*
X32258786Y10317299D01*
X32144209Y10348000D01*
X32025591Y10348000D01*
X31911014Y10317299D01*
X31911012Y10317299D01*
X31911012Y10317298D01*
X31808287Y10257989D01*
X31808284Y10257987D01*
X31724413Y10174116D01*
X31724411Y10174113D01*
X31681910Y10100499D01*
X31665101Y10071386D01*
X31634400Y9956809D01*
X30387096Y9956809D01*
X29231087Y11112819D01*
X29197602Y11174142D01*
X29202586Y11243834D01*
X29244458Y11299767D01*
X29309922Y11324184D01*
X29318768Y11324500D01*
X29749049Y11324500D01*
X29816088Y11304815D01*
X29861843Y11252011D01*
X29862483Y11250586D01*
X29872790Y11227241D01*
X29872793Y11227237D01*
X29872794Y11227235D01*
X29952235Y11147794D01*
X30055009Y11102415D01*
X30080135Y11099500D01*
X30482348Y11099501D01*
X30549386Y11079817D01*
X30595141Y11027013D01*
X30605085Y10957854D01*
X30602122Y10943408D01*
X30585579Y10881666D01*
X30577900Y10853009D01*
X30577900Y10734391D01*
X30608601Y10619814D01*
X30667911Y10517087D01*
X30751787Y10433211D01*
X30854514Y10373901D01*
X30969091Y10343200D01*
X30969094Y10343200D01*
X31087706Y10343200D01*
X31087709Y10343200D01*
X31202286Y10373901D01*
X31305013Y10433211D01*
X31388889Y10517087D01*
X31448199Y10619814D01*
X31478900Y10734391D01*
X31478900Y10853009D01*
X31448199Y10967586D01*
X31388889Y11070313D01*
X31388887Y11070315D01*
X31384825Y11077351D01*
X31387489Y11078890D01*
X31367547Y11130425D01*
X31381564Y11198875D01*
X31398153Y11221319D01*
X31402204Y11227233D01*
X31402206Y11227235D01*
X31447585Y11330009D01*
X31450500Y11355135D01*
X31450499Y11744864D01*
X31450497Y11744883D01*
X31447586Y11769988D01*
X31447585Y11769990D01*
X31447585Y11769991D01*
X31402206Y11872765D01*
X31322765Y11952206D01*
X31322165Y11952471D01*
X31219992Y11997585D01*
X31194865Y12000500D01*
X30080143Y12000500D01*
X30080117Y12000498D01*
X30055012Y11997587D01*
X30055008Y11997585D01*
X29952235Y11952207D01*
X29872796Y11872768D01*
X29872790Y11872760D01*
X29862483Y11849414D01*
X29817397Y11796037D01*
X29750611Y11775510D01*
X29749049Y11775500D01*
X29250951Y11775500D01*
X29183912Y11795185D01*
X29154205Y11821935D01*
X29144065Y11834582D01*
X29127206Y11872765D01*
X29057837Y11942134D01*
X29053587Y11947435D01*
X29042779Y11973713D01*
X29029167Y11998642D01*
X29029664Y12005601D01*
X29027011Y12012053D01*
X29032124Y12039996D01*
X29034151Y12068334D01*
X29038567Y12075207D01*
X29039588Y12080781D01*
X29047770Y12089527D01*
X29062652Y12112681D01*
X29093374Y12143403D01*
X29127206Y12177235D01*
X29172585Y12280009D01*
X29175500Y12305135D01*
X29175499Y12694864D01*
X29174921Y12699852D01*
X29172586Y12719988D01*
X29172585Y12719990D01*
X29172585Y12719991D01*
X29127206Y12822765D01*
X29062652Y12887319D01*
X29058315Y12895261D01*
X29051070Y12900684D01*
X29041831Y12925449D01*
X29029167Y12948642D01*
X29029812Y12957668D01*
X29026649Y12966147D01*
X29032265Y12991975D01*
X29034151Y13018334D01*
X29039966Y13027384D01*
X29041497Y13034421D01*
X29062647Y13062676D01*
X29071211Y13071241D01*
X29132530Y13104728D01*
X29202222Y13099747D01*
X29220896Y13090950D01*
X29223385Y13089513D01*
X29223387Y13089511D01*
X29326114Y13030201D01*
X29440691Y12999500D01*
X29440694Y12999500D01*
X29559306Y12999500D01*
X29559309Y12999500D01*
X29673886Y13030201D01*
X29673888Y13030203D01*
X29673890Y13030203D01*
X29673891Y13030204D01*
X29681195Y13034421D01*
X29776613Y13089511D01*
X29776613Y13089512D01*
X29779103Y13090949D01*
X29847003Y13107423D01*
X29913030Y13084571D01*
X29928785Y13071244D01*
X29952235Y13047794D01*
X30055009Y13002415D01*
X30080135Y12999500D01*
X31194864Y12999501D01*
X31194879Y12999503D01*
X31194882Y12999503D01*
X31219987Y13002414D01*
X31219988Y13002415D01*
X31219991Y13002415D01*
X31322765Y13047794D01*
X31402206Y13127235D01*
X31447585Y13230009D01*
X31450500Y13255135D01*
X31450499Y13644864D01*
X31450497Y13644883D01*
X31447586Y13669988D01*
X31447585Y13669990D01*
X31447585Y13669991D01*
X31402206Y13772765D01*
X31322765Y13852206D01*
X31295230Y13864364D01*
X31219992Y13897585D01*
X31194868Y13900500D01*
X31194865Y13900500D01*
X30557267Y13900500D01*
X30490228Y13920185D01*
X30469586Y13936819D01*
X29957619Y14448786D01*
X29942915Y14475714D01*
X29926323Y14501532D01*
X29925431Y14507733D01*
X29924134Y14510109D01*
X29921300Y14536467D01*
X29921300Y14540645D01*
X29940985Y14607684D01*
X29993789Y14653439D01*
X30062947Y14663383D01*
X30076369Y14659701D01*
X30087012Y14657585D01*
X30087014Y14657583D01*
X30152789Y14644500D01*
X30347210Y14644501D01*
X30412986Y14657583D01*
X30431108Y14669693D01*
X30497782Y14690571D01*
X30565163Y14672088D01*
X30568891Y14669692D01*
X30587011Y14657584D01*
X30587013Y14657584D01*
X30587014Y14657583D01*
X30652789Y14644500D01*
X30847210Y14644501D01*
X30912986Y14657583D01*
X30931108Y14669693D01*
X30997782Y14690571D01*
X31065163Y14672088D01*
X31068891Y14669692D01*
X31087011Y14657584D01*
X31087013Y14657584D01*
X31087014Y14657583D01*
X31152789Y14644500D01*
X31347210Y14644501D01*
X31371448Y14649322D01*
X31441037Y14643093D01*
X31496213Y14600230D01*
X31519457Y14534340D01*
X31515410Y14495611D01*
X31494779Y14418613D01*
X31486900Y14389209D01*
X31486900Y14270591D01*
X31517601Y14156014D01*
X31576911Y14053287D01*
X31660787Y13969411D01*
X31763514Y13910101D01*
X31878091Y13879400D01*
X31878094Y13879400D01*
X31996706Y13879400D01*
X31996709Y13879400D01*
X32111286Y13910101D01*
X32214013Y13969411D01*
X32297889Y14053287D01*
X32357199Y14156014D01*
X32387900Y14270591D01*
X32387900Y14389209D01*
X32357199Y14503786D01*
X32297889Y14606513D01*
X32297884Y14606518D01*
X32294011Y14611566D01*
X32268816Y14676735D01*
X32282854Y14745180D01*
X32295802Y14762693D01*
X32295712Y14762755D01*
X32302202Y14772232D01*
X32302206Y14772235D01*
X32347585Y14875009D01*
X32350500Y14900135D01*
X32350499Y15745581D01*
X32370183Y15812619D01*
X32422987Y15858374D01*
X32458313Y15868519D01*
X32465757Y15869500D01*
X32465766Y15869500D01*
X32612135Y15908719D01*
X32743365Y15984485D01*
X32850515Y16091635D01*
X32926281Y16222865D01*
X32965500Y16369234D01*
X32965500Y16520766D01*
X32926281Y16667135D01*
X32922138Y16674310D01*
X32881886Y16744029D01*
X32850515Y16798365D01*
X32755994Y16892886D01*
X32722509Y16954209D01*
X32727493Y17023901D01*
X32769365Y17079834D01*
X32781675Y17087954D01*
X32845513Y17124811D01*
X32929389Y17208687D01*
X32951927Y17247725D01*
X33002492Y17295938D01*
X33071099Y17309162D01*
X33135964Y17283194D01*
X33146994Y17273404D01*
X33168787Y17251611D01*
X33271514Y17192301D01*
X33386091Y17161600D01*
X33386094Y17161600D01*
X33504706Y17161600D01*
X33504709Y17161600D01*
X33619286Y17192301D01*
X33722013Y17251611D01*
X33805889Y17335487D01*
X33865199Y17438214D01*
X33895900Y17552791D01*
X33895900Y17671409D01*
X33865199Y17785986D01*
X33805889Y17888713D01*
X33722013Y17972589D01*
X33619286Y18031899D01*
X33504709Y18062600D01*
X33386091Y18062600D01*
X33271514Y18031899D01*
X33271512Y18031899D01*
X33271512Y18031898D01*
X33168787Y17972589D01*
X33168784Y17972587D01*
X33084913Y17888716D01*
X33084909Y17888710D01*
X33062372Y17849676D01*
X33011804Y17801461D01*
X32943197Y17788240D01*
X32878332Y17814209D01*
X32867305Y17823997D01*
X32845515Y17845787D01*
X32845513Y17845789D01*
X32742786Y17905099D01*
X32628209Y17935800D01*
X32509591Y17935800D01*
X32395014Y17905099D01*
X32395012Y17905099D01*
X32395012Y17905098D01*
X32292287Y17845789D01*
X32292284Y17845787D01*
X32208413Y17761916D01*
X32208411Y17761913D01*
X32149101Y17659186D01*
X32118400Y17544609D01*
X32118400Y17425991D01*
X32149101Y17311414D01*
X32208411Y17208687D01*
X32208413Y17208685D01*
X32227324Y17189774D01*
X32260809Y17128451D01*
X32255825Y17058759D01*
X32213953Y17002826D01*
X32171741Y16982320D01*
X32167865Y16981281D01*
X32167864Y16981281D01*
X32167862Y16981280D01*
X32036635Y16905515D01*
X32036632Y16905513D01*
X31929487Y16798368D01*
X31929485Y16798365D01*
X31853718Y16667135D01*
X31850769Y16660013D01*
X31806928Y16605609D01*
X31740634Y16583543D01*
X31672935Y16600822D01*
X31628821Y16645462D01*
X31622502Y16656405D01*
X31610489Y16677213D01*
X31526613Y16761089D01*
X31423886Y16820399D01*
X31309309Y16851100D01*
X31190691Y16851100D01*
X31076114Y16820399D01*
X31076112Y16820399D01*
X31076112Y16820398D01*
X30973387Y16761089D01*
X30973384Y16761087D01*
X30889513Y16677216D01*
X30889511Y16677213D01*
X30838281Y16588480D01*
X30830201Y16574486D01*
X30799500Y16459909D01*
X30799500Y16341291D01*
X30823535Y16251593D01*
X30821872Y16181744D01*
X30782710Y16123881D01*
X30729480Y16098197D01*
X30716756Y16095500D01*
X30652790Y16095499D01*
X30587014Y16082417D01*
X30555386Y16061285D01*
X30532049Y16056336D01*
X30520036Y16057259D01*
X30508540Y16053659D01*
X30485847Y16059885D01*
X30462384Y16061687D01*
X30452777Y16068958D01*
X30441160Y16072145D01*
X30418648Y16089958D01*
X30370671Y16137935D01*
X30370664Y16137941D01*
X30224456Y16284149D01*
X30202170Y16306435D01*
X30202170Y16306436D01*
X30138736Y16369870D01*
X30110791Y16381445D01*
X30087614Y16391046D01*
X30055857Y16404201D01*
X30055855Y16404201D01*
X29966145Y16404201D01*
X29951711Y16404201D01*
X29951703Y16404200D01*
X29852862Y16404200D01*
X29785823Y16423885D01*
X29740068Y16476689D01*
X29733087Y16496106D01*
X29726480Y16520764D01*
X29705199Y16600186D01*
X29645889Y16702913D01*
X29562013Y16786789D01*
X29459286Y16846099D01*
X29344709Y16876800D01*
X29226091Y16876800D01*
X29111514Y16846099D01*
X29111512Y16846099D01*
X29111512Y16846098D01*
X29008787Y16786789D01*
X29008784Y16786787D01*
X28924913Y16702916D01*
X28924906Y16702907D01*
X28866829Y16602316D01*
X28816262Y16554101D01*
X28747654Y16540879D01*
X28682790Y16566847D01*
X28652056Y16602317D01*
X28610489Y16674313D01*
X28526613Y16758189D01*
X28423886Y16817499D01*
X28309309Y16848200D01*
X28190691Y16848200D01*
X28076114Y16817499D01*
X28076112Y16817499D01*
X28076112Y16817498D01*
X27973387Y16758189D01*
X27973384Y16758187D01*
X27889513Y16674316D01*
X27889511Y16674313D01*
X27839957Y16588483D01*
X27830201Y16571586D01*
X27799500Y16457009D01*
X27799500Y16338391D01*
X27822758Y16251593D01*
X27821095Y16181744D01*
X27781933Y16123881D01*
X27735388Y16099809D01*
X27719469Y16095500D01*
X27652790Y16095499D01*
X27587014Y16082417D01*
X27529699Y16044121D01*
X27510095Y16038813D01*
X27494646Y16039141D01*
X27479901Y16034524D01*
X27452585Y16040033D01*
X27440241Y16040294D01*
X27435515Y16043475D01*
X27427604Y16045070D01*
X27319996Y16092584D01*
X27319991Y16092585D01*
X27294868Y16095500D01*
X27294865Y16095500D01*
X27273753Y16095500D01*
X27206714Y16115185D01*
X27160959Y16167989D01*
X27151015Y16237147D01*
X27153976Y16251585D01*
X27185500Y16369234D01*
X27185500Y16520766D01*
X27146281Y16667135D01*
X27142138Y16674310D01*
X27101886Y16744029D01*
X27070515Y16798365D01*
X26963365Y16905515D01*
X26879025Y16954209D01*
X26832136Y16981281D01*
X26747771Y17003886D01*
X26685766Y17020500D01*
X26534234Y17020500D01*
X26387863Y16981281D01*
X26256635Y16905515D01*
X26256632Y16905513D01*
X26149487Y16798368D01*
X26149485Y16798365D01*
X26073719Y16667137D01*
X26046282Y16564738D01*
X26034500Y16520766D01*
X26034500Y16369234D01*
X26051327Y16306435D01*
X26073719Y16222864D01*
X26105770Y16167351D01*
X26149485Y16091635D01*
X26256635Y15984485D01*
X26387865Y15908719D01*
X26534234Y15869500D01*
X26534242Y15869500D01*
X26541687Y15868519D01*
X26605583Y15840252D01*
X26644053Y15781927D01*
X26649500Y15745580D01*
X26649500Y14900144D01*
X26649501Y14900133D01*
X26651815Y14880183D01*
X26639983Y14811323D01*
X26592801Y14759790D01*
X26528640Y14741900D01*
X22299500Y14741900D01*
X22232461Y14761585D01*
X22186706Y14814389D01*
X22175500Y14865900D01*
X22175500Y14885631D01*
X22175500Y14885636D01*
X22164866Y14958625D01*
X22150431Y14988152D01*
X22109827Y15071211D01*
X22021212Y15159826D01*
X21945039Y15197065D01*
X21893457Y15244193D01*
X21875500Y15308465D01*
X21875500Y15953861D01*
X21871622Y15968334D01*
X21855021Y16030289D01*
X21842590Y16051820D01*
X21815464Y16098805D01*
X21815461Y16098808D01*
X21815460Y16098811D01*
X21815457Y16098814D01*
X21810514Y16105256D01*
X21811666Y16106141D01*
X21801215Y16125280D01*
X21784623Y16151098D01*
X21783731Y16157299D01*
X21782434Y16159675D01*
X21779600Y16186033D01*
X21779600Y16332567D01*
X21799285Y16399606D01*
X21813675Y16417465D01*
X21815455Y16419785D01*
X21815460Y16419789D01*
X21834612Y16452962D01*
X21843778Y16468837D01*
X21848311Y16476689D01*
X21855021Y16488311D01*
X21875500Y16564738D01*
X21875500Y16692667D01*
X21895185Y16759706D01*
X21911819Y16780348D01*
X22024357Y16892886D01*
X22140460Y17008989D01*
X22160862Y17044327D01*
X22211426Y17092542D01*
X22218160Y17095762D01*
X22222765Y17097794D01*
X22302206Y17177235D01*
X22347585Y17280009D01*
X22350500Y17305135D01*
X22350499Y18419864D01*
X22349739Y18426420D01*
X22347586Y18444988D01*
X22347585Y18444990D01*
X22347585Y18444991D01*
X22302206Y18547765D01*
X22222765Y18627206D01*
X22209976Y18632853D01*
X22119992Y18672585D01*
X22094865Y18675500D01*
X21705143Y18675500D01*
X21705117Y18675498D01*
X21680012Y18672587D01*
X21680008Y18672585D01*
X21577235Y18627207D01*
X21497794Y18547766D01*
X21452415Y18444994D01*
X21452415Y18444992D01*
X21449500Y18419869D01*
X21449500Y17305144D01*
X21449708Y17301561D01*
X21448259Y17301478D01*
X21437410Y17238401D01*
X21390218Y17186878D01*
X21326077Y17169000D01*
X20768933Y17169000D01*
X20701894Y17188685D01*
X20681252Y17205319D01*
X20486818Y17399753D01*
X20453333Y17461076D01*
X20450499Y17487434D01*
X20450499Y18419857D01*
X20450499Y18419864D01*
X20449739Y18426420D01*
X20447586Y18444988D01*
X20447585Y18444990D01*
X20447585Y18444991D01*
X20402206Y18547765D01*
X20322765Y18627206D01*
X20294935Y18639494D01*
X20282568Y18644955D01*
X20258551Y18665242D01*
X20233391Y18684076D01*
X20232073Y18687608D01*
X20229192Y18690042D01*
X20219956Y18720092D01*
X20208972Y18749540D01*
X20209773Y18753226D01*
X20208666Y18756829D01*
X20217140Y18787096D01*
X20223822Y18817813D01*
X20226888Y18821910D01*
X20227505Y18824111D01*
X20244969Y18846064D01*
X20271170Y18872264D01*
X20271170Y18872266D01*
X20687087Y19288184D01*
X20748408Y19321667D01*
X20774757Y19324501D01*
X21144864Y19324501D01*
X21144879Y19324503D01*
X21144882Y19324503D01*
X21169987Y19327414D01*
X21169988Y19327415D01*
X21169991Y19327415D01*
X21272765Y19372794D01*
X21337319Y19437348D01*
X21398642Y19470833D01*
X21468334Y19465849D01*
X21512681Y19437348D01*
X21577235Y19372794D01*
X21680009Y19327415D01*
X21705135Y19324500D01*
X21972096Y19324501D01*
X22039135Y19304817D01*
X22081460Y19255971D01*
X22082048Y19256310D01*
X22083807Y19253262D01*
X22084890Y19252013D01*
X22085996Y19249471D01*
X22137519Y19160231D01*
X22137521Y19160228D01*
X22137522Y19160227D01*
X22210227Y19087522D01*
X22210228Y19087521D01*
X22210230Y19087520D01*
X22254749Y19061817D01*
X22299272Y19036112D01*
X22398590Y19009500D01*
X22398592Y19009500D01*
X22501408Y19009500D01*
X22501410Y19009500D01*
X22600728Y19036112D01*
X22689773Y19087522D01*
X22762478Y19160227D01*
X22813888Y19249272D01*
X22840500Y19348590D01*
X22840500Y19451410D01*
X22813888Y19550728D01*
X22762478Y19639773D01*
X22689773Y19712478D01*
X22689772Y19712479D01*
X22689769Y19712481D01*
X22600730Y19763887D01*
X22600729Y19763888D01*
X22510363Y19788101D01*
X22496475Y19796120D01*
X22483030Y19799044D01*
X22454776Y19820195D01*
X22386818Y19888153D01*
X22353333Y19949476D01*
X22350499Y19975834D01*
X22350499Y20676000D01*
X22370184Y20743039D01*
X22422988Y20788794D01*
X22474499Y20800000D01*
X35876000Y20800000D01*
X35943039Y20780315D01*
G37*
%TD.AperFunction*%
%TD*%
M02*
