M48
; DRILL file {KiCad 9.0.7} date 2026-09-28T17:22:57+0200
; FORMAT={-:-/ absolute / metric / decimal}
; #@! TF.CreationDate,2026-09-28T17:22:57+02:00
; #@! TF.GenerationSoftware,Kicad,Pcbnew,9.0.7
; #@! TF.FileFunction,Plated,1,4,PTH
FMAT,2
METRIC
; #@! TA.AperFunction,Plated,PTH,ViaDrill
T1C0.200
; #@! TA.AperFunction,Plated,PTH,ViaDrill
T2C0.300
; #@! TA.AperFunction,Plated,PTH,ComponentDrill
T3C0.300
; #@! TA.AperFunction,Plated,PTH,ComponentDrill
T4C0.700
%
G90
G05
T1
X22.45Y19.4
T2
X1.204Y5.148
X2.075Y14.293
X2.431Y18.349
X2.738Y1.887
X2.738Y4.65
X3.485Y12.4
X3.575Y14.2
X4.644Y4.117
X5.463Y19.601
X6.133Y14.239
X6.283Y4.11
X6.478Y15.315
X7.075Y2.956
X7.234Y15.306
X7.834Y14.289
X8.407Y15.621
X9.545Y4.62
X9.674Y1.499
X11.207Y14.229
X12.636Y14.125
X13.5Y11.615
X13.526Y19.101
X15.766Y10.622
X18.366Y3.195
X18.367Y16.83
X18.393Y6.092
X18.76Y12.513
X18.765Y3.894
X20.727Y8.696
X20.966Y10.742
X22.793Y18.782
X23.113Y8.288
X23.944Y2.563
X25.265Y2.552
X26.535Y2.563
X26.9Y9.886
X27.1Y14.142
X27.562Y10.815
X27.617Y8.092
X27.689Y6.261
X28.25Y16.398
X28.871Y8.096
X29.285Y16.426
X29.5Y13.45
X31.028Y10.794
X31.25Y16.401
X31.405Y2.578
X31.937Y14.33
X32.085Y9.897
X32.155Y7.308
X32.569Y17.485
X32.59Y9.338
X32.913Y3.372
X33.057Y19.601
X33.436Y14.129
X33.445Y17.612
X34.729Y1.654
T3
X23.0Y12.09
X23.0Y10.69
X23.7Y12.79
X23.7Y11.39
X23.7Y9.99
X24.4Y12.09
X24.4Y10.69
X25.1Y12.79
X25.1Y11.39
X25.1Y9.99
X25.8Y12.09
X25.8Y10.69
T4
X15.6Y19.1
X15.6Y17.83
X15.6Y16.56
X15.6Y15.29
X15.6Y14.02
M30
