%TF.GenerationSoftware,KiCad,Pcbnew,9.0.7*%
%TF.CreationDate,2026-09-28T17:22:57+02:00*%
%TF.ProjectId,main,6d61696e-2e6b-4696-9361-645f70636258,J*%
%TF.SameCoordinates,PX5f5e100PY73c6ac0*%
%TF.FileFunction,Copper,L3,Inr*%
%TF.FilePolarity,Positive*%
%FSLAX46Y46*%
G04 Gerber Fmt 4.6, Leading zero omitted, Abs format (unit mm)*
G04 Created by KiCad (PCBNEW 9.0.7) date 2026-09-28 17:22:57*
%MOMM*%
%LPD*%
G01*
G04 APERTURE LIST*
%TA.AperFunction,HeatsinkPad*%
%ADD10C,0.600000*%
%TD*%
%TA.AperFunction,ComponentPad*%
%ADD11C,1.100000*%
%TD*%
%TA.AperFunction,ViaPad*%
%ADD12C,0.600000*%
%TD*%
%TA.AperFunction,ViaPad*%
%ADD13C,0.480000*%
%TD*%
%TA.AperFunction,Conductor*%
%ADD14C,0.150000*%
%TD*%
%TA.AperFunction,Conductor*%
%ADD15C,0.300000*%
%TD*%
G04 APERTURE END LIST*
D10*
%TO.N,/GND*%
%TO.C,U1*%
X23000000Y12090000D03*
X23000000Y10690000D03*
X23700000Y12790000D03*
X23700000Y11390000D03*
X23700000Y9990000D03*
X24400000Y12090000D03*
X24400000Y10690000D03*
X25100000Y12790000D03*
X25100000Y11390000D03*
X25100000Y9990000D03*
X25800000Y12090000D03*
X25800000Y10690000D03*
%TD*%
D11*
%TO.N,/SYS_5V*%
%TO.C,J5*%
X15600000Y19100000D03*
%TO.N,/GND*%
X15600000Y17830000D03*
%TO.N,/+3V3*%
X15600000Y16560000D03*
%TO.N,/UART_TX_MCU*%
X15600000Y15290000D03*
%TO.N,/UART_RX_MCU*%
X15600000Y14020000D03*
%TD*%
D12*
%TO.N,/GND*%
X33056700Y19601300D03*
X22792900Y18782500D03*
X2075000Y14293300D03*
X15766400Y10621800D03*
X9674400Y1498800D03*
X1203500Y5148300D03*
X32589600Y9338000D03*
%TO.N,/+3V3*%
X2737600Y1887400D03*
X27689000Y6261000D03*
X7074600Y2955900D03*
X3575400Y14199600D03*
X8407300Y15621400D03*
%TO.N,/ESP_EN*%
X18367200Y16830000D03*
%TO.N,/USB_DN_MCU*%
X26900000Y9885800D03*
X18764600Y3893800D03*
%TO.N,/USB_DP_MCU*%
X28871300Y8096300D03*
X18366000Y3194800D03*
%TO.N,/SD_CMD*%
X23944200Y2562600D03*
X7234300Y15306500D03*
%TO.N,/SD_D0*%
X11207400Y14229500D03*
X25265000Y2552300D03*
X20726700Y8695900D03*
%TO.N,/SD_CLK_MCU*%
X26535000Y2563200D03*
X4644000Y4117400D03*
%TO.N,/USB_SENSE*%
X31405000Y2578400D03*
%TO.N,/ESP_BOOT*%
X32912800Y3372200D03*
X2738100Y4650200D03*
%TO.N,/SD_D1*%
X9545500Y4620500D03*
X12636000Y14124600D03*
X32155000Y7307600D03*
%TO.N,/SD_D2*%
X32084900Y9897500D03*
X18760100Y12513200D03*
X6133200Y14238500D03*
%TO.N,/SD_D3*%
X31028400Y10793700D03*
X20965600Y10742300D03*
X6478100Y15315200D03*
%TO.N,/UART_RX_MCU*%
X32568900Y17485300D03*
X13526200Y19101200D03*
%TO.N,/UART_TX_MCU*%
X33445400Y17612100D03*
%TO.N,/SD_CLK*%
X7834200Y14289100D03*
X6283200Y4109800D03*
%TO.N,/USB_DN*%
X27616600Y8091600D03*
X29500000Y13450000D03*
%TO.N,/USB_DP*%
X27561800Y10814800D03*
X29285400Y16426300D03*
%TO.N,/SYS_5V*%
X13500000Y11615500D03*
X18392700Y6092000D03*
X5463200Y19601300D03*
%TO.N,/USB_VBUS*%
X27100000Y14142000D03*
X31937400Y14329900D03*
X34728700Y1654200D03*
D13*
%TO.N,/USB_LIMITED*%
X22450000Y19400000D03*
D12*
X2431300Y18349500D03*
X23113300Y8288300D03*
%TO.N,/CC1*%
X3484700Y12400000D03*
X28250000Y16397700D03*
%TO.N,/CC2*%
X33435700Y14129300D03*
X31250000Y16400600D03*
%TD*%
D14*
%TO.N,/SD_CLK_MCU*%
X5257200Y3504200D02*
X15820800Y3504200D01*
X4644000Y4117400D02*
X5257200Y3504200D01*
X25994300Y2022500D02*
X26535000Y2563200D01*
X15820800Y3504200D02*
X17302500Y2022500D01*
X17302500Y2022500D02*
X25994300Y2022500D01*
%TO.N,/ESP_BOOT*%
X2738100Y4650200D02*
X8705000Y4650200D01*
X22814700Y3372200D02*
X32912800Y3372200D01*
X8705000Y4650200D02*
X9287500Y4067700D01*
X16738100Y4067700D02*
X18175500Y2630300D01*
X22072800Y2630300D02*
X22814700Y3372200D01*
X18175500Y2630300D02*
X22072800Y2630300D01*
X9287500Y4067700D02*
X16738100Y4067700D01*
%TO.N,/SD_D1*%
X29467900Y4620500D02*
X9545500Y4620500D01*
X32155000Y7307600D02*
X29467900Y4620500D01*
%TO.N,/SD_D2*%
X18760100Y12144200D02*
X21885200Y9019100D01*
X21885200Y9019100D02*
X31206500Y9019100D01*
X18760100Y12513200D02*
X7858500Y12513200D01*
X7858500Y12513200D02*
X6133200Y14238500D01*
X18760100Y12513200D02*
X18760100Y12144200D01*
X31206500Y9019100D02*
X32084900Y9897500D01*
%TO.N,/SD_D3*%
X20965600Y11058500D02*
X18898200Y13125900D01*
X20965600Y10742300D02*
X20965600Y11058500D01*
X8167800Y13125900D02*
X6478100Y14815600D01*
X18898200Y13125900D02*
X8167800Y13125900D01*
X31028400Y10793700D02*
X29572300Y9337600D01*
X6478100Y14815600D02*
X6478100Y15315200D01*
X22370300Y9337600D02*
X20965600Y10742300D01*
X29572300Y9337600D02*
X22370300Y9337600D01*
%TO.N,/UART_RX_MCU*%
X21746500Y14020000D02*
X15600000Y14020000D01*
X32568900Y17485300D02*
X25211800Y17485300D01*
X25211800Y17485300D02*
X21746500Y14020000D01*
%TO.N,/UART_TX_MCU*%
X33032500Y18025000D02*
X18335000Y18025000D01*
X18335000Y18025000D02*
X15600000Y15290000D01*
X33445400Y17612100D02*
X33032500Y18025000D01*
D15*
%TO.N,/SYS_5V*%
X5620400Y19758500D02*
X14941500Y19758500D01*
X14941500Y19758500D02*
X15600000Y19100000D01*
X5463200Y19601300D02*
X5620400Y19758500D01*
%TO.N,/USB_VBUS*%
X27100000Y14142000D02*
X27287900Y14329900D01*
X27287900Y14329900D02*
X31937400Y14329900D01*
%TD*%
%TA.AperFunction,Conductor*%
%TO.N,/+3V3*%
G36*
X35893039Y20730315D02*
G01*
X35938794Y20677511D01*
X35950000Y20626000D01*
X35950000Y474000D01*
X35930315Y406961D01*
X35877511Y361206D01*
X35826000Y350000D01*
X474000Y350000D01*
X406961Y369685D01*
X361206Y422489D01*
X350000Y474000D01*
X350000Y1564692D01*
X9173900Y1564692D01*
X9173900Y1432909D01*
X9208008Y1305613D01*
X9237979Y1253703D01*
X9273900Y1191486D01*
X9367086Y1098300D01*
X9481214Y1032408D01*
X9608508Y998300D01*
X9608510Y998300D01*
X9740290Y998300D01*
X9740292Y998300D01*
X9867586Y1032408D01*
X9981714Y1098300D01*
X10074900Y1191486D01*
X10140792Y1305614D01*
X10174900Y1432908D01*
X10174900Y1564692D01*
X10140792Y1691986D01*
X10124565Y1720092D01*
X34228200Y1720092D01*
X34228200Y1588308D01*
X34245254Y1524661D01*
X34262308Y1461013D01*
X34278534Y1432910D01*
X34328200Y1346886D01*
X34421386Y1253700D01*
X34520221Y1196637D01*
X34529143Y1191486D01*
X34535514Y1187808D01*
X34662808Y1153700D01*
X34662810Y1153700D01*
X34794590Y1153700D01*
X34794592Y1153700D01*
X34921886Y1187808D01*
X35036014Y1253700D01*
X35129200Y1346886D01*
X35195092Y1461014D01*
X35229200Y1588308D01*
X35229200Y1720092D01*
X35195092Y1847386D01*
X35129200Y1961514D01*
X35036014Y2054700D01*
X34963081Y2096808D01*
X34921887Y2120592D01*
X34858239Y2137646D01*
X34794592Y2154700D01*
X34662808Y2154700D01*
X34535512Y2120592D01*
X34421386Y2054700D01*
X34421383Y2054698D01*
X34328202Y1961517D01*
X34328200Y1961514D01*
X34262308Y1847388D01*
X34251250Y1806117D01*
X34228200Y1720092D01*
X10124565Y1720092D01*
X10074900Y1806114D01*
X9981714Y1899300D01*
X9924650Y1932246D01*
X9867587Y1965192D01*
X9803939Y1982246D01*
X9740292Y1999300D01*
X9608508Y1999300D01*
X9481212Y1965192D01*
X9367086Y1899300D01*
X9367083Y1899298D01*
X9273902Y1806117D01*
X9273900Y1806114D01*
X9208008Y1691988D01*
X9173900Y1564692D01*
X350000Y1564692D01*
X350000Y5214192D01*
X703000Y5214192D01*
X703000Y5082409D01*
X737108Y4955113D01*
X752873Y4927808D01*
X803000Y4840986D01*
X896186Y4747800D01*
X1010314Y4681908D01*
X1137608Y4647800D01*
X1137610Y4647800D01*
X1269390Y4647800D01*
X1269392Y4647800D01*
X1396686Y4681908D01*
X1455894Y4716092D01*
X2237600Y4716092D01*
X2237600Y4584309D01*
X2271708Y4457013D01*
X2304654Y4399950D01*
X2337600Y4342886D01*
X2430786Y4249700D01*
X2544914Y4183808D01*
X2672208Y4149700D01*
X2672210Y4149700D01*
X2803990Y4149700D01*
X2803992Y4149700D01*
X2931286Y4183808D01*
X3045414Y4249700D01*
X3134095Y4338381D01*
X3195418Y4371866D01*
X3221776Y4374700D01*
X4033188Y4374700D01*
X4100227Y4355015D01*
X4145982Y4302211D01*
X4155926Y4233053D01*
X4152964Y4218615D01*
X4143500Y4183292D01*
X4143500Y4051508D01*
X4148856Y4031520D01*
X4177608Y3924213D01*
X4207350Y3872700D01*
X4243500Y3810086D01*
X4336686Y3716900D01*
X4450814Y3651008D01*
X4578108Y3616900D01*
X4578110Y3616900D01*
X4703522Y3616900D01*
X4770561Y3597215D01*
X4791203Y3580581D01*
X5101144Y3270640D01*
X5179457Y3238203D01*
X5202400Y3228700D01*
X5312000Y3228700D01*
X15655323Y3228700D01*
X15722362Y3209015D01*
X15743004Y3192381D01*
X17146438Y1788945D01*
X17146439Y1788945D01*
X17146441Y1788943D01*
X17176095Y1776661D01*
X17176097Y1776659D01*
X17176098Y1776659D01*
X17197070Y1767973D01*
X17247700Y1747000D01*
X17247703Y1747000D01*
X26049099Y1747000D01*
X26049100Y1747000D01*
X26150358Y1788943D01*
X26227857Y1866442D01*
X26227856Y1866442D01*
X26387797Y2026382D01*
X26449120Y2059866D01*
X26475477Y2062700D01*
X26600890Y2062700D01*
X26600892Y2062700D01*
X26728186Y2096808D01*
X26842314Y2162700D01*
X26935500Y2255886D01*
X27001392Y2370014D01*
X27035500Y2497308D01*
X27035500Y2629092D01*
X27001392Y2756386D01*
X26935500Y2870514D01*
X26920995Y2885019D01*
X26887510Y2946342D01*
X26892494Y3016034D01*
X26934366Y3071967D01*
X26999830Y3096384D01*
X27008676Y3096700D01*
X30916124Y3096700D01*
X30983163Y3077015D01*
X31028918Y3024211D01*
X31038862Y2955053D01*
X31009837Y2891497D01*
X31004727Y2886011D01*
X31004500Y2885714D01*
X30938608Y2771588D01*
X30904500Y2644292D01*
X30904500Y2512508D01*
X30912492Y2482680D01*
X30938608Y2385213D01*
X30964252Y2340797D01*
X31004500Y2271086D01*
X31097686Y2177900D01*
X31211814Y2112008D01*
X31339108Y2077900D01*
X31339110Y2077900D01*
X31470890Y2077900D01*
X31470892Y2077900D01*
X31598186Y2112008D01*
X31712314Y2177900D01*
X31805500Y2271086D01*
X31871392Y2385214D01*
X31905500Y2512508D01*
X31905500Y2644292D01*
X31871392Y2771586D01*
X31805500Y2885714D01*
X31805495Y2885719D01*
X31800553Y2892160D01*
X31801781Y2893103D01*
X31772710Y2946342D01*
X31777694Y3016034D01*
X31819566Y3071967D01*
X31885030Y3096384D01*
X31893876Y3096700D01*
X32429124Y3096700D01*
X32496163Y3077015D01*
X32516805Y3060381D01*
X32605486Y2971700D01*
X32719614Y2905808D01*
X32846908Y2871700D01*
X32846910Y2871700D01*
X32978690Y2871700D01*
X32978692Y2871700D01*
X33105986Y2905808D01*
X33220114Y2971700D01*
X33313300Y3064886D01*
X33379192Y3179014D01*
X33413300Y3306308D01*
X33413300Y3438092D01*
X33379192Y3565386D01*
X33313300Y3679514D01*
X33220114Y3772700D01*
X33163050Y3805646D01*
X33105987Y3838592D01*
X33042339Y3855646D01*
X32978692Y3872700D01*
X32846908Y3872700D01*
X32719612Y3838592D01*
X32605486Y3772700D01*
X32605483Y3772698D01*
X32516805Y3684019D01*
X32455482Y3650534D01*
X32429124Y3647700D01*
X22759899Y3647700D01*
X22658640Y3605756D01*
X21995004Y2942119D01*
X21933681Y2908634D01*
X21907323Y2905800D01*
X18968318Y2905800D01*
X18901279Y2925485D01*
X18855524Y2978289D01*
X18845580Y3047447D01*
X18848540Y3061881D01*
X18866500Y3128908D01*
X18866500Y3260692D01*
X18863029Y3273646D01*
X18864692Y3343495D01*
X18903855Y3401357D01*
X18950710Y3425513D01*
X18957786Y3427408D01*
X19071914Y3493300D01*
X19165100Y3586486D01*
X19230992Y3700614D01*
X19265100Y3827908D01*
X19265100Y3959692D01*
X19230992Y4086986D01*
X19194784Y4149700D01*
X19189415Y4159000D01*
X19172942Y4226900D01*
X19195794Y4292927D01*
X19250716Y4336117D01*
X19296802Y4345000D01*
X29522699Y4345000D01*
X29522700Y4345000D01*
X29623958Y4386943D01*
X29701457Y4464442D01*
X29701456Y4464442D01*
X29760025Y4523011D01*
X29760024Y4523011D01*
X32007796Y6770781D01*
X32069119Y6804266D01*
X32095477Y6807100D01*
X32220890Y6807100D01*
X32220892Y6807100D01*
X32348186Y6841208D01*
X32462314Y6907100D01*
X32555500Y7000286D01*
X32621392Y7114414D01*
X32655500Y7241708D01*
X32655500Y7373492D01*
X32621392Y7500786D01*
X32555500Y7614914D01*
X32462314Y7708100D01*
X32405250Y7741046D01*
X32348187Y7773992D01*
X32284539Y7791046D01*
X32220892Y7808100D01*
X32089108Y7808100D01*
X31961812Y7773992D01*
X31847686Y7708100D01*
X31847683Y7708098D01*
X31754502Y7614917D01*
X31754500Y7614914D01*
X31688608Y7500788D01*
X31654500Y7373492D01*
X31654500Y7248079D01*
X31634815Y7181040D01*
X31618181Y7160398D01*
X29390104Y4932319D01*
X29328781Y4898834D01*
X29302423Y4896000D01*
X10029176Y4896000D01*
X9962137Y4915685D01*
X9941495Y4932319D01*
X9852816Y5020998D01*
X9852814Y5021000D01*
X9795750Y5053946D01*
X9738687Y5086892D01*
X9675039Y5103946D01*
X9611392Y5121000D01*
X9479608Y5121000D01*
X9352312Y5086892D01*
X9238186Y5021000D01*
X9238183Y5020998D01*
X9145002Y4927817D01*
X9144995Y4927808D01*
X9105742Y4859820D01*
X9055175Y4811605D01*
X8986568Y4798383D01*
X8921703Y4824351D01*
X8910675Y4834140D01*
X8861059Y4883756D01*
X8861058Y4883757D01*
X8759800Y4925700D01*
X3221776Y4925700D01*
X3154737Y4945385D01*
X3134095Y4962019D01*
X3045416Y5050698D01*
X3045414Y5050700D01*
X2982728Y5086892D01*
X2931287Y5116592D01*
X2867639Y5133646D01*
X2803992Y5150700D01*
X2672208Y5150700D01*
X2544912Y5116592D01*
X2430786Y5050700D01*
X2430783Y5050698D01*
X2337602Y4957517D01*
X2337600Y4957514D01*
X2271708Y4843388D01*
X2237600Y4716092D01*
X1455894Y4716092D01*
X1510814Y4747800D01*
X1604000Y4840986D01*
X1669892Y4955114D01*
X1704000Y5082408D01*
X1704000Y5214192D01*
X1669892Y5341486D01*
X1604000Y5455614D01*
X1510814Y5548800D01*
X1436854Y5591501D01*
X1396687Y5614692D01*
X1333039Y5631746D01*
X1269392Y5648800D01*
X1137608Y5648800D01*
X1010312Y5614692D01*
X896186Y5548800D01*
X896183Y5548798D01*
X803002Y5455617D01*
X803000Y5455614D01*
X737108Y5341488D01*
X703000Y5214192D01*
X350000Y5214192D01*
X350000Y6157892D01*
X17892200Y6157892D01*
X17892200Y6026109D01*
X17926308Y5898813D01*
X17959254Y5841750D01*
X17992200Y5784686D01*
X18085386Y5691500D01*
X18199514Y5625608D01*
X18326808Y5591500D01*
X18326810Y5591500D01*
X18458590Y5591500D01*
X18458592Y5591500D01*
X18585886Y5625608D01*
X18700014Y5691500D01*
X18793200Y5784686D01*
X18859092Y5898814D01*
X18893200Y6026108D01*
X18893200Y6157892D01*
X18859092Y6285186D01*
X18793200Y6399314D01*
X18700014Y6492500D01*
X18642950Y6525446D01*
X18585887Y6558392D01*
X18522239Y6575446D01*
X18458592Y6592500D01*
X18326808Y6592500D01*
X18199512Y6558392D01*
X18085386Y6492500D01*
X18085383Y6492498D01*
X17992202Y6399317D01*
X17992200Y6399314D01*
X17926308Y6285188D01*
X17892200Y6157892D01*
X350000Y6157892D01*
X350000Y8761792D01*
X20226200Y8761792D01*
X20226200Y8630009D01*
X20260308Y8502713D01*
X20272562Y8481489D01*
X20326200Y8388586D01*
X20419386Y8295400D01*
X20533514Y8229508D01*
X20660808Y8195400D01*
X20660810Y8195400D01*
X20792590Y8195400D01*
X20792592Y8195400D01*
X20919886Y8229508D01*
X21034014Y8295400D01*
X21127200Y8388586D01*
X21193092Y8502714D01*
X21227200Y8630008D01*
X21227200Y8761792D01*
X21193092Y8889086D01*
X21127200Y9003214D01*
X21034014Y9096400D01*
X20976950Y9129346D01*
X20919887Y9162292D01*
X20856239Y9179346D01*
X20792592Y9196400D01*
X20660808Y9196400D01*
X20533512Y9162292D01*
X20419386Y9096400D01*
X20419383Y9096398D01*
X20326202Y9003217D01*
X20326200Y9003214D01*
X20260308Y8889088D01*
X20226200Y8761792D01*
X350000Y8761792D01*
X350000Y10687692D01*
X15265900Y10687692D01*
X15265900Y10555909D01*
X15300008Y10428613D01*
X15326526Y10382684D01*
X15365900Y10314486D01*
X15459086Y10221300D01*
X15573214Y10155408D01*
X15700508Y10121300D01*
X15700510Y10121300D01*
X15832290Y10121300D01*
X15832292Y10121300D01*
X15959586Y10155408D01*
X16073714Y10221300D01*
X16166900Y10314486D01*
X16232792Y10428614D01*
X16266900Y10555908D01*
X16266900Y10687692D01*
X16232792Y10814986D01*
X16166900Y10929114D01*
X16073714Y11022300D01*
X16009282Y11059500D01*
X15959587Y11088192D01*
X15859532Y11115001D01*
X15832292Y11122300D01*
X15700508Y11122300D01*
X15573212Y11088192D01*
X15459086Y11022300D01*
X15459083Y11022298D01*
X15365902Y10929117D01*
X15365900Y10929114D01*
X15300008Y10814988D01*
X15265900Y10687692D01*
X350000Y10687692D01*
X350000Y12465892D01*
X2984200Y12465892D01*
X2984200Y12334108D01*
X2996153Y12289500D01*
X3018308Y12206813D01*
X3047708Y12155892D01*
X3084200Y12092686D01*
X3177386Y11999500D01*
X3291514Y11933608D01*
X3418808Y11899500D01*
X3418810Y11899500D01*
X3550590Y11899500D01*
X3550592Y11899500D01*
X3677886Y11933608D01*
X3792014Y11999500D01*
X3885200Y12092686D01*
X3951092Y12206814D01*
X3985200Y12334108D01*
X3985200Y12465892D01*
X3951092Y12593186D01*
X3885200Y12707314D01*
X3792014Y12800500D01*
X3705585Y12850400D01*
X3677887Y12866392D01*
X3581038Y12892342D01*
X3550592Y12900500D01*
X3418808Y12900500D01*
X3291512Y12866392D01*
X3177386Y12800500D01*
X3177383Y12800498D01*
X3084202Y12707317D01*
X3084200Y12707314D01*
X3018308Y12593188D01*
X3017528Y12590276D01*
X2984200Y12465892D01*
X350000Y12465892D01*
X350000Y14359192D01*
X1574500Y14359192D01*
X1574500Y14227408D01*
X1591554Y14163761D01*
X1608608Y14100113D01*
X1629800Y14063408D01*
X1674500Y13985986D01*
X1767686Y13892800D01*
X1840952Y13850500D01*
X1878190Y13829000D01*
X1881814Y13826908D01*
X2009108Y13792800D01*
X2009110Y13792800D01*
X2140890Y13792800D01*
X2140892Y13792800D01*
X2268186Y13826908D01*
X2382314Y13892800D01*
X2475500Y13985986D01*
X2541392Y14100114D01*
X2575500Y14227408D01*
X2575500Y14304392D01*
X5632700Y14304392D01*
X5632700Y14172609D01*
X5666808Y14045313D01*
X5679929Y14022587D01*
X5732700Y13931186D01*
X5825886Y13838000D01*
X5940014Y13772108D01*
X6067308Y13738000D01*
X6067310Y13738000D01*
X6192723Y13738000D01*
X6259762Y13718315D01*
X6280404Y13701681D01*
X7702442Y12279642D01*
X7702444Y12279640D01*
X7780757Y12247203D01*
X7803700Y12237700D01*
X7913300Y12237700D01*
X13116319Y12237700D01*
X13183358Y12218015D01*
X13229113Y12165211D01*
X13239057Y12096053D01*
X13210032Y12032497D01*
X13195339Y12018654D01*
X13099502Y11922817D01*
X13099500Y11922814D01*
X13033608Y11808688D01*
X12999500Y11681392D01*
X12999500Y11549608D01*
X13015003Y11491748D01*
X13033608Y11422313D01*
X13066554Y11365250D01*
X13099500Y11308186D01*
X13192686Y11215000D01*
X13306814Y11149108D01*
X13434108Y11115000D01*
X13434110Y11115000D01*
X13565890Y11115000D01*
X13565892Y11115000D01*
X13693186Y11149108D01*
X13807314Y11215000D01*
X13900500Y11308186D01*
X13966392Y11422314D01*
X14000500Y11549608D01*
X14000500Y11681392D01*
X13966392Y11808686D01*
X13900500Y11922814D01*
X13807314Y12016000D01*
X13801567Y12021747D01*
X13802686Y12022867D01*
X13766990Y12071756D01*
X13762838Y12141502D01*
X13797052Y12202421D01*
X13858771Y12235172D01*
X13883681Y12237700D01*
X18276424Y12237700D01*
X18305072Y12229288D01*
X18334337Y12223345D01*
X18340303Y12218943D01*
X18343463Y12218015D01*
X18362882Y12202588D01*
X18363467Y12202019D01*
X18452786Y12112700D01*
X18458964Y12109134D01*
X18469886Y12098510D01*
X18480137Y12080339D01*
X18497988Y12057077D01*
X18515003Y12016001D01*
X18515005Y12015998D01*
X18526542Y11988143D01*
X21729142Y8785542D01*
X21729144Y8785540D01*
X21807457Y8753103D01*
X21830400Y8743600D01*
X22583465Y8743600D01*
X22650504Y8723915D01*
X22696259Y8671111D01*
X22706203Y8601953D01*
X22690852Y8557600D01*
X22646909Y8481490D01*
X22646909Y8481489D01*
X22646908Y8481487D01*
X22646908Y8481486D01*
X22612800Y8354192D01*
X22612800Y8222408D01*
X22620037Y8195400D01*
X22646908Y8095113D01*
X22679854Y8038050D01*
X22712800Y7980986D01*
X22805986Y7887800D01*
X22920114Y7821908D01*
X23047408Y7787800D01*
X23047410Y7787800D01*
X23179190Y7787800D01*
X23179192Y7787800D01*
X23306486Y7821908D01*
X23420614Y7887800D01*
X23513800Y7980986D01*
X23579692Y8095114D01*
X23613800Y8222408D01*
X23613800Y8354192D01*
X23579692Y8481486D01*
X23570852Y8496798D01*
X23535748Y8557600D01*
X23519275Y8625500D01*
X23542127Y8691527D01*
X23597049Y8734718D01*
X23643135Y8743600D01*
X27282122Y8743600D01*
X27349161Y8723915D01*
X27394916Y8671111D01*
X27404860Y8601953D01*
X27375835Y8538397D01*
X27344123Y8512213D01*
X27309286Y8492100D01*
X27309283Y8492098D01*
X27216102Y8398917D01*
X27216100Y8398914D01*
X27150208Y8284788D01*
X27116100Y8157492D01*
X27116100Y8025709D01*
X27150208Y7898413D01*
X27156334Y7887803D01*
X27216100Y7784286D01*
X27309286Y7691100D01*
X27423414Y7625208D01*
X27550708Y7591100D01*
X27550710Y7591100D01*
X27682490Y7591100D01*
X27682492Y7591100D01*
X27809786Y7625208D01*
X27923914Y7691100D01*
X28017100Y7784286D01*
X28082992Y7898414D01*
X28117100Y8025708D01*
X28117100Y8157492D01*
X28082992Y8284786D01*
X28080278Y8289486D01*
X28042920Y8354192D01*
X28017100Y8398914D01*
X27923914Y8492100D01*
X27889076Y8512214D01*
X27840862Y8562781D01*
X27827640Y8631388D01*
X27853608Y8696253D01*
X27910523Y8736780D01*
X27951078Y8743600D01*
X28528682Y8743600D01*
X28595721Y8723915D01*
X28641476Y8671111D01*
X28651420Y8601953D01*
X28622395Y8538397D01*
X28590682Y8512213D01*
X28563989Y8496802D01*
X28563983Y8496798D01*
X28470802Y8403617D01*
X28470800Y8403614D01*
X28404908Y8289488D01*
X28379698Y8195401D01*
X28370800Y8162192D01*
X28370800Y8030408D01*
X28384043Y7980984D01*
X28404908Y7903113D01*
X28437854Y7846050D01*
X28470800Y7788986D01*
X28563986Y7695800D01*
X28678114Y7629908D01*
X28805408Y7595800D01*
X28805410Y7595800D01*
X28937190Y7595800D01*
X28937192Y7595800D01*
X29064486Y7629908D01*
X29178614Y7695800D01*
X29271800Y7788986D01*
X29337692Y7903114D01*
X29371800Y8030408D01*
X29371800Y8162192D01*
X29337692Y8289486D01*
X29271800Y8403614D01*
X29178614Y8496800D01*
X29151918Y8512213D01*
X29103702Y8562780D01*
X29090480Y8631387D01*
X29116448Y8696252D01*
X29173362Y8736780D01*
X29213918Y8743600D01*
X31261299Y8743600D01*
X31261300Y8743600D01*
X31362558Y8785543D01*
X31440057Y8863042D01*
X31440056Y8863042D01*
X31498625Y8921611D01*
X31886522Y9309508D01*
X31947841Y9342990D01*
X32017533Y9338006D01*
X32073466Y9296134D01*
X32093973Y9253919D01*
X32123208Y9144814D01*
X32189100Y9030686D01*
X32282286Y8937500D01*
X32396414Y8871608D01*
X32523708Y8837500D01*
X32523710Y8837500D01*
X32655490Y8837500D01*
X32655492Y8837500D01*
X32782786Y8871608D01*
X32896914Y8937500D01*
X32990100Y9030686D01*
X33055992Y9144814D01*
X33090100Y9272108D01*
X33090100Y9403892D01*
X33055992Y9531186D01*
X32990100Y9645314D01*
X32896914Y9738500D01*
X32782786Y9804392D01*
X32677305Y9832656D01*
X32617646Y9869020D01*
X32587117Y9931867D01*
X32585400Y9952430D01*
X32585400Y9963390D01*
X32585400Y9963392D01*
X32551292Y10090686D01*
X32545779Y10100234D01*
X32527811Y10131356D01*
X32485400Y10204814D01*
X32392214Y10298000D01*
X32335150Y10330946D01*
X32278087Y10363892D01*
X32194457Y10386300D01*
X32150792Y10398000D01*
X32019008Y10398000D01*
X31891712Y10363892D01*
X31777586Y10298000D01*
X31777583Y10297998D01*
X31684402Y10204817D01*
X31684400Y10204814D01*
X31618508Y10090688D01*
X31584400Y9963392D01*
X31584400Y9837979D01*
X31564715Y9770940D01*
X31548081Y9750298D01*
X31128704Y9330919D01*
X31067381Y9297434D01*
X31041023Y9294600D01*
X30218277Y9294600D01*
X30151238Y9314285D01*
X30105483Y9367089D01*
X30095539Y9436247D01*
X30124564Y9499803D01*
X30130596Y9506281D01*
X30881196Y10256881D01*
X30942519Y10290366D01*
X30968877Y10293200D01*
X31094290Y10293200D01*
X31094292Y10293200D01*
X31221586Y10327308D01*
X31335714Y10393200D01*
X31428900Y10486386D01*
X31494792Y10600514D01*
X31528900Y10727808D01*
X31528900Y10859592D01*
X31494792Y10986886D01*
X31428900Y11101014D01*
X31335714Y11194200D01*
X31262991Y11236187D01*
X31221587Y11260092D01*
X31116587Y11288226D01*
X31094292Y11294200D01*
X30962508Y11294200D01*
X30835212Y11260092D01*
X30721086Y11194200D01*
X30721083Y11194198D01*
X30627902Y11101017D01*
X30627900Y11101014D01*
X30562008Y10986888D01*
X30527900Y10859592D01*
X30527900Y10734179D01*
X30508215Y10667140D01*
X30491581Y10646498D01*
X29494504Y9649419D01*
X29433181Y9615934D01*
X29406823Y9613100D01*
X27506686Y9613100D01*
X27439647Y9632785D01*
X27393892Y9685589D01*
X27383948Y9754747D01*
X27386911Y9769193D01*
X27387379Y9770940D01*
X27400500Y9819908D01*
X27400500Y9951692D01*
X27366392Y10078986D01*
X27331646Y10139167D01*
X27315174Y10207065D01*
X27338026Y10273092D01*
X27392947Y10316283D01*
X27462500Y10322925D01*
X27471114Y10320944D01*
X27495908Y10314300D01*
X27495910Y10314300D01*
X27627690Y10314300D01*
X27627692Y10314300D01*
X27754986Y10348408D01*
X27869114Y10414300D01*
X27962300Y10507486D01*
X28028192Y10621614D01*
X28062300Y10748908D01*
X28062300Y10880692D01*
X28028192Y11007986D01*
X27962300Y11122114D01*
X27869114Y11215300D01*
X27800016Y11255194D01*
X27754987Y11281192D01*
X27672828Y11303206D01*
X27627692Y11315300D01*
X27495908Y11315300D01*
X27368612Y11281192D01*
X27254486Y11215300D01*
X27254483Y11215298D01*
X27161302Y11122117D01*
X27161300Y11122114D01*
X27095408Y11007988D01*
X27072799Y10923608D01*
X27061300Y10880692D01*
X27061300Y10748908D01*
X27094739Y10624109D01*
X27095409Y10621612D01*
X27095409Y10621611D01*
X27130152Y10561435D01*
X27146625Y10493535D01*
X27123773Y10427508D01*
X27068851Y10384318D01*
X26999298Y10377676D01*
X26990679Y10379659D01*
X26965892Y10386300D01*
X26834108Y10386300D01*
X26706812Y10352192D01*
X26592686Y10286300D01*
X26592683Y10286298D01*
X26499502Y10193117D01*
X26499500Y10193114D01*
X26433608Y10078988D01*
X26428857Y10061255D01*
X26399500Y9951692D01*
X26399500Y9819908D01*
X26412621Y9770940D01*
X26413089Y9769193D01*
X26411426Y9699343D01*
X26372263Y9641481D01*
X26308034Y9613977D01*
X26293314Y9613100D01*
X25675099Y9613100D01*
X25608060Y9632785D01*
X25562305Y9685589D01*
X25552361Y9754747D01*
X25564190Y9788923D01*
X25563280Y9789300D01*
X25566387Y9796807D01*
X25566392Y9796814D01*
X25600500Y9924108D01*
X25600500Y10055892D01*
X25600500Y10064019D01*
X25603599Y10064019D01*
X25612089Y10118549D01*
X25658457Y10170816D01*
X25725722Y10189717D01*
X25728754Y10189500D01*
X25734108Y10189500D01*
X25865890Y10189500D01*
X25865892Y10189500D01*
X25993186Y10223608D01*
X26107314Y10289500D01*
X26200500Y10382686D01*
X26266392Y10496814D01*
X26300500Y10624108D01*
X26300500Y10755892D01*
X26266392Y10883186D01*
X26200500Y10997314D01*
X26107314Y11090500D01*
X26050250Y11123446D01*
X25993187Y11156392D01*
X25929539Y11173446D01*
X25865892Y11190500D01*
X25734108Y11190500D01*
X25725981Y11190500D01*
X25725981Y11193588D01*
X25723537Y11193970D01*
X25706628Y11191538D01*
X25689734Y11199254D01*
X25671386Y11202121D01*
X25658612Y11213466D01*
X25643072Y11220563D01*
X25633031Y11236187D01*
X25619146Y11248519D01*
X25614337Y11265276D01*
X25605298Y11279341D01*
X25603452Y11303206D01*
X25600275Y11314276D01*
X25600275Y11323269D01*
X25600500Y11324108D01*
X25600500Y11455892D01*
X25600275Y11456732D01*
X25600275Y11465725D01*
X25607916Y11491748D01*
X25612089Y11518549D01*
X25617615Y11524779D01*
X25619960Y11532764D01*
X25640452Y11550521D01*
X25658457Y11570816D01*
X25666474Y11573069D01*
X25672764Y11578519D01*
X25699605Y11582379D01*
X25725722Y11589717D01*
X25728754Y11589500D01*
X25734108Y11589500D01*
X25865890Y11589500D01*
X25865892Y11589500D01*
X25993186Y11623608D01*
X26107314Y11689500D01*
X26200500Y11782686D01*
X26266392Y11896814D01*
X26300500Y12024108D01*
X26300500Y12155892D01*
X26266392Y12283186D01*
X26200500Y12397314D01*
X26107314Y12490500D01*
X26050250Y12523446D01*
X25993187Y12556392D01*
X25929539Y12573446D01*
X25865892Y12590500D01*
X25734108Y12590500D01*
X25725981Y12590500D01*
X25725981Y12593588D01*
X25671386Y12602121D01*
X25619146Y12648519D01*
X25600284Y12715794D01*
X25600500Y12718799D01*
X25600500Y12855890D01*
X25600500Y12855892D01*
X25566392Y12983186D01*
X25566148Y12983608D01*
X25528105Y13049500D01*
X25500500Y13097314D01*
X25407314Y13190500D01*
X25350250Y13223446D01*
X25293187Y13256392D01*
X25229539Y13273446D01*
X25165892Y13290500D01*
X25034108Y13290500D01*
X24906812Y13256392D01*
X24792686Y13190500D01*
X24792683Y13190498D01*
X24699502Y13097317D01*
X24699500Y13097314D01*
X24633608Y12983188D01*
X24599500Y12855892D01*
X24599500Y12715981D01*
X24596411Y12715981D01*
X24596030Y12713543D01*
X24598462Y12696629D01*
X24590748Y12679740D01*
X24587883Y12661396D01*
X24576536Y12648619D01*
X24569437Y12633073D01*
X24553817Y12623036D01*
X24541489Y12609152D01*
X24524729Y12604342D01*
X24510659Y12595299D01*
X24486758Y12593444D01*
X24475724Y12590276D01*
X24466728Y12590276D01*
X24465892Y12590500D01*
X24334108Y12590500D01*
X24333272Y12590276D01*
X24324275Y12590276D01*
X24298219Y12597927D01*
X24271386Y12602121D01*
X24265187Y12607627D01*
X24257236Y12609961D01*
X24239455Y12630481D01*
X24219146Y12648519D01*
X24216907Y12656503D01*
X24211481Y12662765D01*
X24207616Y12689641D01*
X24200284Y12715794D01*
X24200500Y12718799D01*
X24200500Y12855890D01*
X24200500Y12855892D01*
X24166392Y12983186D01*
X24166148Y12983608D01*
X24128105Y13049500D01*
X24100500Y13097314D01*
X24007314Y13190500D01*
X23950250Y13223446D01*
X23893187Y13256392D01*
X23829539Y13273446D01*
X23765892Y13290500D01*
X23634108Y13290500D01*
X23506812Y13256392D01*
X23392686Y13190500D01*
X23392683Y13190498D01*
X23299502Y13097317D01*
X23299500Y13097314D01*
X23233608Y12983188D01*
X23199500Y12855892D01*
X23199500Y12715981D01*
X23196411Y12715981D01*
X23187883Y12661396D01*
X23141489Y12609152D01*
X23074215Y12590285D01*
X23071208Y12590500D01*
X23065892Y12590500D01*
X22934108Y12590500D01*
X22806812Y12556392D01*
X22692686Y12490500D01*
X22692683Y12490498D01*
X22599502Y12397317D01*
X22599500Y12397314D01*
X22533608Y12283188D01*
X22513144Y12206814D01*
X22499500Y12155892D01*
X22499500Y12024108D01*
X22506094Y11999500D01*
X22533608Y11896813D01*
X22537253Y11890500D01*
X22599500Y11782686D01*
X22692686Y11689500D01*
X22806814Y11623608D01*
X22934108Y11589500D01*
X22934110Y11589500D01*
X23074019Y11589500D01*
X23074019Y11586400D01*
X23076421Y11586026D01*
X23093371Y11588463D01*
X23110227Y11580765D01*
X23128540Y11577915D01*
X23141351Y11566552D01*
X23156927Y11559438D01*
X23166945Y11543850D01*
X23180810Y11531551D01*
X23185630Y11514774D01*
X23194701Y11500660D01*
X23196559Y11476740D01*
X23199724Y11465725D01*
X23199724Y11456728D01*
X23199500Y11455892D01*
X23199500Y11324108D01*
X23199724Y11323273D01*
X23199724Y11314276D01*
X23192074Y11288226D01*
X23187883Y11261396D01*
X23182375Y11255194D01*
X23180039Y11247237D01*
X23159522Y11229460D01*
X23141489Y11209152D01*
X23133501Y11206912D01*
X23127235Y11201482D01*
X23100362Y11197619D01*
X23074215Y11190285D01*
X23071208Y11190500D01*
X23065892Y11190500D01*
X22934108Y11190500D01*
X22806812Y11156392D01*
X22692686Y11090500D01*
X22692683Y11090498D01*
X22599502Y10997317D01*
X22599500Y10997314D01*
X22533608Y10883188D01*
X22513513Y10808190D01*
X22499500Y10755892D01*
X22499500Y10624108D01*
X22516293Y10561435D01*
X22533608Y10496813D01*
X22556946Y10456392D01*
X22599500Y10382686D01*
X22692686Y10289500D01*
X22806814Y10223608D01*
X22934108Y10189500D01*
X22934110Y10189500D01*
X23074019Y10189500D01*
X23074019Y10186400D01*
X23128540Y10177915D01*
X23180810Y10131551D01*
X23199716Y10064288D01*
X23199500Y10061255D01*
X23199500Y10055892D01*
X23199500Y9924108D01*
X23222438Y9838500D01*
X23233609Y9796812D01*
X23236720Y9789300D01*
X23234851Y9788527D01*
X23248761Y9731208D01*
X23225913Y9665180D01*
X23170995Y9621986D01*
X23124901Y9613100D01*
X22535778Y9613100D01*
X22468739Y9632785D01*
X22448097Y9649419D01*
X21502419Y10595097D01*
X21468934Y10656420D01*
X21466100Y10682778D01*
X21466100Y10808190D01*
X21466100Y10808192D01*
X21431992Y10935486D01*
X21366100Y11049614D01*
X21272914Y11142800D01*
X21272913Y11142801D01*
X21251492Y11155168D01*
X21203277Y11205735D01*
X21199206Y11214510D01*
X19054259Y13359456D01*
X19054258Y13359457D01*
X18953000Y13401400D01*
X16321271Y13401400D01*
X16313175Y13403778D01*
X16304834Y13402494D01*
X16280148Y13413475D01*
X16254232Y13421085D01*
X16248706Y13427462D01*
X16240995Y13430892D01*
X16226164Y13453477D01*
X16208477Y13473889D01*
X16207276Y13482241D01*
X16202644Y13489295D01*
X16202378Y13516306D01*
X16198533Y13543047D01*
X16202021Y13552542D01*
X16201956Y13559161D01*
X16214196Y13585685D01*
X16216300Y13591409D01*
X16217212Y13592860D01*
X16265084Y13664505D01*
X16270524Y13677640D01*
X16276102Y13686509D01*
X16294741Y13702985D01*
X16310349Y13722354D01*
X16320464Y13725722D01*
X16328453Y13732782D01*
X16353039Y13736565D01*
X16376642Y13744421D01*
X16381073Y13744500D01*
X21801299Y13744500D01*
X21801300Y13744500D01*
X21902558Y13786443D01*
X21980057Y13863942D01*
X21980056Y13863942D01*
X22038625Y13922511D01*
X22038624Y13922511D01*
X22324005Y14207892D01*
X26599500Y14207892D01*
X26599500Y14076108D01*
X26610163Y14036314D01*
X26633608Y13948813D01*
X26648983Y13922184D01*
X26699500Y13834686D01*
X26792686Y13741500D01*
X26906814Y13675608D01*
X27034108Y13641500D01*
X27034110Y13641500D01*
X27165890Y13641500D01*
X27165892Y13641500D01*
X27293186Y13675608D01*
X27407314Y13741500D01*
X27500500Y13834686D01*
X27548255Y13917401D01*
X27598822Y13965616D01*
X27655642Y13979400D01*
X29022224Y13979400D01*
X29089263Y13959715D01*
X29135018Y13906911D01*
X29144962Y13837753D01*
X29115937Y13774197D01*
X29109905Y13767719D01*
X29099502Y13757317D01*
X29099500Y13757314D01*
X29033608Y13643188D01*
X29018201Y13585685D01*
X28999500Y13515892D01*
X28999500Y13384108D01*
X29016554Y13320461D01*
X29033608Y13256813D01*
X29066554Y13199750D01*
X29099500Y13142686D01*
X29192686Y13049500D01*
X29306814Y12983608D01*
X29434108Y12949500D01*
X29434110Y12949500D01*
X29565890Y12949500D01*
X29565892Y12949500D01*
X29693186Y12983608D01*
X29807314Y13049500D01*
X29900500Y13142686D01*
X29966392Y13256814D01*
X30000500Y13384108D01*
X30000500Y13515892D01*
X29966392Y13643186D01*
X29965704Y13644377D01*
X29947673Y13675608D01*
X29900500Y13757314D01*
X29890095Y13767719D01*
X29856610Y13829042D01*
X29861594Y13898734D01*
X29903466Y13954667D01*
X29968930Y13979084D01*
X29977776Y13979400D01*
X31528724Y13979400D01*
X31595763Y13959715D01*
X31616405Y13943081D01*
X31630086Y13929400D01*
X31744214Y13863508D01*
X31871508Y13829400D01*
X31871510Y13829400D01*
X32003290Y13829400D01*
X32003292Y13829400D01*
X32130586Y13863508D01*
X32244714Y13929400D01*
X32337900Y14022586D01*
X32403792Y14136714D01*
X32419461Y14195192D01*
X32935200Y14195192D01*
X32935200Y14063408D01*
X32942460Y14036314D01*
X32969308Y13936113D01*
X32996740Y13888600D01*
X33035200Y13821986D01*
X33128386Y13728800D01*
X33242514Y13662908D01*
X33369808Y13628800D01*
X33369810Y13628800D01*
X33501590Y13628800D01*
X33501592Y13628800D01*
X33628886Y13662908D01*
X33743014Y13728800D01*
X33836200Y13821986D01*
X33902092Y13936114D01*
X33936200Y14063408D01*
X33936200Y14195192D01*
X33902092Y14322486D01*
X33894758Y14335188D01*
X33883326Y14354990D01*
X33836200Y14436614D01*
X33743014Y14529800D01*
X33637027Y14590992D01*
X33628887Y14595692D01*
X33565239Y14612746D01*
X33501592Y14629800D01*
X33369808Y14629800D01*
X33242512Y14595692D01*
X33128386Y14529800D01*
X33128383Y14529798D01*
X33035202Y14436617D01*
X33035200Y14436614D01*
X32969308Y14322488D01*
X32945977Y14235414D01*
X32935200Y14195192D01*
X32419461Y14195192D01*
X32437900Y14264008D01*
X32437900Y14395792D01*
X32403792Y14523086D01*
X32402630Y14525098D01*
X32364586Y14590992D01*
X32337900Y14637214D01*
X32244714Y14730400D01*
X32152235Y14783793D01*
X32130587Y14796292D01*
X32066939Y14813346D01*
X32003292Y14830400D01*
X31871508Y14830400D01*
X31744212Y14796292D01*
X31630086Y14730400D01*
X31630083Y14730398D01*
X31616405Y14716719D01*
X31555082Y14683234D01*
X31528724Y14680400D01*
X27241756Y14680400D01*
X27174231Y14662307D01*
X27174230Y14662308D01*
X27152614Y14656515D01*
X27145102Y14653403D01*
X27144172Y14655648D01*
X27095114Y14642500D01*
X27034108Y14642500D01*
X26906812Y14608392D01*
X26792686Y14542500D01*
X26792683Y14542498D01*
X26699502Y14449317D01*
X26699500Y14449314D01*
X26633608Y14335188D01*
X26604729Y14227408D01*
X26599500Y14207892D01*
X22324005Y14207892D01*
X25289597Y17173481D01*
X25350920Y17206966D01*
X25377278Y17209800D01*
X26320897Y17209800D01*
X26387936Y17190115D01*
X26433691Y17137311D01*
X26443635Y17068153D01*
X26414610Y17004597D01*
X26382897Y16978413D01*
X26256638Y16905517D01*
X26256632Y16905513D01*
X26149487Y16798368D01*
X26149485Y16798365D01*
X26073719Y16667137D01*
X26054066Y16593788D01*
X26034500Y16520766D01*
X26034500Y16369234D01*
X26036865Y16360409D01*
X26073719Y16222864D01*
X26096423Y16183540D01*
X26149485Y16091635D01*
X26256635Y15984485D01*
X26387865Y15908719D01*
X26534234Y15869500D01*
X26534236Y15869500D01*
X26685764Y15869500D01*
X26685766Y15869500D01*
X26832135Y15908719D01*
X26963365Y15984485D01*
X27070515Y16091635D01*
X27146281Y16222865D01*
X27185500Y16369234D01*
X27185500Y16463592D01*
X27749500Y16463592D01*
X27749500Y16331808D01*
X27766554Y16268161D01*
X27783608Y16204513D01*
X27810951Y16157154D01*
X27849500Y16090386D01*
X27942686Y15997200D01*
X28056814Y15931308D01*
X28184108Y15897200D01*
X28184110Y15897200D01*
X28315890Y15897200D01*
X28315892Y15897200D01*
X28443186Y15931308D01*
X28557314Y15997200D01*
X28650500Y16090386D01*
X28668569Y16121684D01*
X28719135Y16169898D01*
X28787742Y16183122D01*
X28852607Y16157154D01*
X28883342Y16121684D01*
X28884900Y16118986D01*
X28978086Y16025800D01*
X29092214Y15959908D01*
X29219508Y15925800D01*
X29219510Y15925800D01*
X29351290Y15925800D01*
X29351292Y15925800D01*
X29478586Y15959908D01*
X29592714Y16025800D01*
X29685900Y16118986D01*
X29751792Y16233114D01*
X29785900Y16360408D01*
X29785900Y16492192D01*
X29751792Y16619486D01*
X29685900Y16733614D01*
X29592714Y16826800D01*
X29523100Y16866992D01*
X29478587Y16892692D01*
X29414939Y16909746D01*
X29351292Y16926800D01*
X29219508Y16926800D01*
X29092212Y16892692D01*
X28978086Y16826800D01*
X28978083Y16826798D01*
X28884902Y16733617D01*
X28884900Y16733614D01*
X28866829Y16702315D01*
X28816260Y16654101D01*
X28747653Y16640880D01*
X28682789Y16666849D01*
X28652056Y16702318D01*
X28650500Y16705014D01*
X28557314Y16798200D01*
X28456712Y16856283D01*
X28443187Y16864092D01*
X28336448Y16892692D01*
X28315892Y16898200D01*
X28184108Y16898200D01*
X28056812Y16864092D01*
X27942686Y16798200D01*
X27942683Y16798198D01*
X27849502Y16705017D01*
X27849500Y16705014D01*
X27783608Y16590888D01*
X27764819Y16520764D01*
X27749500Y16463592D01*
X27185500Y16463592D01*
X27185500Y16520766D01*
X27146281Y16667135D01*
X27070515Y16798365D01*
X26963365Y16905515D01*
X26837103Y16978413D01*
X26788887Y17028980D01*
X26775665Y17097587D01*
X26801633Y17162452D01*
X26858547Y17202980D01*
X26899103Y17209800D01*
X32085224Y17209800D01*
X32114664Y17201156D01*
X32144651Y17194632D01*
X32149666Y17190878D01*
X32152263Y17190115D01*
X32172905Y17173481D01*
X32178641Y17167745D01*
X32212126Y17106422D01*
X32207142Y17036730D01*
X32165270Y16980797D01*
X32152961Y16972678D01*
X32036641Y16905519D01*
X32036632Y16905513D01*
X31929487Y16798368D01*
X31929485Y16798365D01*
X31871268Y16697531D01*
X31820700Y16649316D01*
X31752093Y16636094D01*
X31687229Y16662062D01*
X31656494Y16697532D01*
X31650500Y16707914D01*
X31557314Y16801100D01*
X31500250Y16834046D01*
X31443187Y16866992D01*
X31347271Y16892692D01*
X31315892Y16901100D01*
X31184108Y16901100D01*
X31056812Y16866992D01*
X30942686Y16801100D01*
X30942683Y16801098D01*
X30849502Y16707917D01*
X30849500Y16707914D01*
X30783608Y16593788D01*
X30764042Y16520764D01*
X30749500Y16466492D01*
X30749500Y16334708D01*
X30766554Y16271061D01*
X30783608Y16207413D01*
X30797633Y16183122D01*
X30849500Y16093286D01*
X30942686Y16000100D01*
X31056814Y15934208D01*
X31184108Y15900100D01*
X31184110Y15900100D01*
X31315890Y15900100D01*
X31315892Y15900100D01*
X31443186Y15934208D01*
X31557314Y16000100D01*
X31650500Y16093286D01*
X31682130Y16148072D01*
X31732694Y16196284D01*
X31801301Y16209508D01*
X31866166Y16183540D01*
X31896902Y16148070D01*
X31929485Y16091635D01*
X32036635Y15984485D01*
X32167865Y15908719D01*
X32314234Y15869500D01*
X32314236Y15869500D01*
X32465764Y15869500D01*
X32465766Y15869500D01*
X32612135Y15908719D01*
X32743365Y15984485D01*
X32850515Y16091635D01*
X32926281Y16222865D01*
X32965500Y16369234D01*
X32965500Y16520766D01*
X32926281Y16667135D01*
X32850515Y16798365D01*
X32792597Y16856283D01*
X32759112Y16917606D01*
X32764096Y16987298D01*
X32805968Y17043231D01*
X32818272Y17051348D01*
X32876214Y17084800D01*
X32969400Y17177986D01*
X32969402Y17177991D01*
X32972863Y17182499D01*
X33029291Y17223701D01*
X33099037Y17227856D01*
X33133239Y17214399D01*
X33138084Y17211602D01*
X33138086Y17211600D01*
X33252214Y17145708D01*
X33379508Y17111600D01*
X33379510Y17111600D01*
X33511290Y17111600D01*
X33511292Y17111600D01*
X33638586Y17145708D01*
X33752714Y17211600D01*
X33845900Y17304786D01*
X33911792Y17418914D01*
X33945900Y17546208D01*
X33945900Y17677992D01*
X33911792Y17805286D01*
X33845900Y17919414D01*
X33752714Y18012600D01*
X33689810Y18048918D01*
X33638587Y18078492D01*
X33574939Y18095546D01*
X33511292Y18112600D01*
X33385877Y18112600D01*
X33318838Y18132285D01*
X33298196Y18148919D01*
X33188559Y18258556D01*
X33188558Y18258557D01*
X33087300Y18300500D01*
X23307319Y18300500D01*
X23240280Y18320185D01*
X23194525Y18372989D01*
X23184581Y18442147D01*
X23199930Y18486498D01*
X23259292Y18589314D01*
X23293400Y18716608D01*
X23293400Y18848392D01*
X23259292Y18975686D01*
X23251305Y18989519D01*
X23250463Y18990979D01*
X23193400Y19089814D01*
X23100214Y19183000D01*
X23034321Y19221044D01*
X22986085Y19248893D01*
X22986083Y19248894D01*
X22982401Y19249880D01*
X22979646Y19251560D01*
X22978582Y19252000D01*
X22978650Y19252167D01*
X22922742Y19286247D01*
X22892216Y19349095D01*
X22890500Y19369653D01*
X22890500Y19457991D01*
X22890500Y19457993D01*
X22860481Y19570027D01*
X22860480Y19570029D01*
X22860480Y19570030D01*
X22835487Y19613317D01*
X22835486Y19613319D01*
X22804382Y19667192D01*
X32556200Y19667192D01*
X32556200Y19535409D01*
X32590308Y19408113D01*
X32623254Y19351050D01*
X32656200Y19293986D01*
X32749386Y19200800D01*
X32863514Y19134908D01*
X32990808Y19100800D01*
X32990810Y19100800D01*
X33122590Y19100800D01*
X33122592Y19100800D01*
X33249886Y19134908D01*
X33364014Y19200800D01*
X33457200Y19293986D01*
X33523092Y19408114D01*
X33557200Y19535408D01*
X33557200Y19667192D01*
X33523092Y19794486D01*
X33457200Y19908614D01*
X33364014Y20001800D01*
X33299629Y20038973D01*
X33249887Y20067692D01*
X33184866Y20085114D01*
X33122592Y20101800D01*
X32990808Y20101800D01*
X32863512Y20067692D01*
X32749386Y20001800D01*
X32749383Y20001798D01*
X32656202Y19908617D01*
X32656200Y19908614D01*
X32590308Y19794488D01*
X32556200Y19667192D01*
X22804382Y19667192D01*
X22802488Y19670473D01*
X22720473Y19752488D01*
X22647731Y19794486D01*
X22620028Y19810481D01*
X22564010Y19825491D01*
X22507993Y19840500D01*
X22392007Y19840500D01*
X22279971Y19810481D01*
X22179527Y19752488D01*
X22179524Y19752486D01*
X22097514Y19670476D01*
X22097512Y19670473D01*
X22039519Y19570029D01*
X22009500Y19457993D01*
X22009500Y19342008D01*
X22039519Y19229972D01*
X22056362Y19200800D01*
X22097512Y19129527D01*
X22179527Y19047512D01*
X22241082Y19011973D01*
X22289298Y18961406D01*
X22302520Y18892799D01*
X22298858Y18872497D01*
X22292400Y18848394D01*
X22292400Y18848392D01*
X22292400Y18716608D01*
X22308421Y18656817D01*
X22326508Y18589313D01*
X22347658Y18552681D01*
X22385868Y18486499D01*
X22402341Y18418601D01*
X22379489Y18352574D01*
X22324568Y18309383D01*
X22278481Y18300500D01*
X18280198Y18300500D01*
X18208599Y18270842D01*
X18178939Y18258557D01*
X15957493Y16037111D01*
X15896170Y16003626D01*
X15826478Y16008610D01*
X15822370Y16010227D01*
X15818920Y16011656D01*
X15818906Y16011660D01*
X15673920Y16040500D01*
X15673918Y16040500D01*
X15526082Y16040500D01*
X15526080Y16040500D01*
X15381092Y16011660D01*
X15381082Y16011657D01*
X15244511Y15955088D01*
X15244498Y15955081D01*
X15121584Y15872952D01*
X15121580Y15872949D01*
X15017051Y15768420D01*
X15017048Y15768416D01*
X14934919Y15645502D01*
X14934912Y15645489D01*
X14878343Y15508918D01*
X14878340Y15508908D01*
X14849500Y15363921D01*
X14849500Y15363918D01*
X14849500Y15216082D01*
X14849500Y15216080D01*
X14849499Y15216080D01*
X14878340Y15071093D01*
X14878343Y15071083D01*
X14934912Y14934512D01*
X14934919Y14934499D01*
X15017048Y14811585D01*
X15017051Y14811581D01*
X15085951Y14742681D01*
X15119436Y14681358D01*
X15114452Y14611666D01*
X15085951Y14567319D01*
X15017051Y14498420D01*
X15017048Y14498416D01*
X14934919Y14375502D01*
X14934912Y14375489D01*
X14878343Y14238918D01*
X14878340Y14238908D01*
X14849500Y14093921D01*
X14849500Y14093918D01*
X14849500Y13946082D01*
X14849500Y13946080D01*
X14849499Y13946080D01*
X14878340Y13801093D01*
X14878343Y13801083D01*
X14934912Y13664512D01*
X14934919Y13664499D01*
X14981831Y13594291D01*
X15002709Y13527613D01*
X14984225Y13460233D01*
X14932246Y13413543D01*
X14878729Y13401400D01*
X12812637Y13401400D01*
X12745598Y13421085D01*
X12699843Y13473889D01*
X12689899Y13543047D01*
X12718924Y13606603D01*
X12777702Y13644377D01*
X12780508Y13645165D01*
X12829186Y13658208D01*
X12943314Y13724100D01*
X13036500Y13817286D01*
X13102392Y13931414D01*
X13136500Y14058708D01*
X13136500Y14190492D01*
X13102392Y14317786D01*
X13099678Y14322486D01*
X13069074Y14375494D01*
X13036500Y14431914D01*
X12943314Y14525100D01*
X12870189Y14567319D01*
X12829187Y14590992D01*
X12752029Y14611666D01*
X12701892Y14625100D01*
X12570108Y14625100D01*
X12442812Y14590992D01*
X12328686Y14525100D01*
X12328683Y14525098D01*
X12235502Y14431917D01*
X12235500Y14431914D01*
X12169608Y14317788D01*
X12144267Y14223210D01*
X12135500Y14190492D01*
X12135500Y14058708D01*
X12141501Y14036313D01*
X12169608Y13931413D01*
X12177699Y13917400D01*
X12235500Y13817286D01*
X12328686Y13724100D01*
X12442814Y13658208D01*
X12491457Y13645175D01*
X12551117Y13608810D01*
X12581646Y13545963D01*
X12573351Y13476588D01*
X12528866Y13422710D01*
X12462314Y13401435D01*
X12459363Y13401400D01*
X8333278Y13401400D01*
X8266239Y13421085D01*
X8245597Y13437719D01*
X8035921Y13647395D01*
X8002436Y13708718D01*
X8007420Y13778410D01*
X8049292Y13834343D01*
X8061597Y13842461D01*
X8141514Y13888600D01*
X8234700Y13981786D01*
X8300592Y14095914D01*
X8334700Y14223208D01*
X8334700Y14295392D01*
X10706900Y14295392D01*
X10706900Y14163608D01*
X10723913Y14100114D01*
X10741008Y14036313D01*
X10748935Y14022584D01*
X10806900Y13922186D01*
X10900086Y13829000D01*
X10970061Y13788600D01*
X11006227Y13767719D01*
X11014214Y13763108D01*
X11141508Y13729000D01*
X11141510Y13729000D01*
X11273290Y13729000D01*
X11273292Y13729000D01*
X11400586Y13763108D01*
X11514714Y13829000D01*
X11607900Y13922186D01*
X11673792Y14036314D01*
X11707900Y14163608D01*
X11707900Y14295392D01*
X11673792Y14422686D01*
X11668462Y14431917D01*
X11658418Y14449314D01*
X11607900Y14536814D01*
X11514714Y14630000D01*
X11425760Y14681358D01*
X11400587Y14695892D01*
X11322858Y14716719D01*
X11273292Y14730000D01*
X11141508Y14730000D01*
X11014212Y14695892D01*
X10900086Y14630000D01*
X10900083Y14629998D01*
X10806902Y14536817D01*
X10806900Y14536814D01*
X10741008Y14422688D01*
X10709126Y14303700D01*
X10706900Y14295392D01*
X8334700Y14295392D01*
X8334700Y14354992D01*
X8300592Y14482286D01*
X8234700Y14596414D01*
X8141514Y14689600D01*
X8084450Y14722546D01*
X8027387Y14755492D01*
X7921764Y14783793D01*
X7900092Y14789600D01*
X7768308Y14789600D01*
X7768306Y14789600D01*
X7746635Y14783793D01*
X7676785Y14785456D01*
X7618923Y14824620D01*
X7591420Y14888848D01*
X7603007Y14957751D01*
X7626862Y14991249D01*
X7634800Y14999186D01*
X7700692Y15113314D01*
X7734800Y15240608D01*
X7734800Y15372392D01*
X7700692Y15499686D01*
X7634800Y15613814D01*
X7541614Y15707000D01*
X7484550Y15739946D01*
X7427487Y15772892D01*
X7363839Y15789946D01*
X7300192Y15807000D01*
X7168408Y15807000D01*
X7041114Y15772892D01*
X7041113Y15772892D01*
X7041111Y15772891D01*
X7041110Y15772891D01*
X6924422Y15705521D01*
X6856521Y15689048D01*
X6790495Y15711901D01*
X6786934Y15714533D01*
X6785416Y15715698D01*
X6785414Y15715700D01*
X6728350Y15748646D01*
X6671287Y15781592D01*
X6576461Y15807000D01*
X6543992Y15815700D01*
X6412208Y15815700D01*
X6284912Y15781592D01*
X6170786Y15715700D01*
X6170783Y15715698D01*
X6077602Y15622517D01*
X6077600Y15622514D01*
X6011708Y15508388D01*
X5977600Y15381092D01*
X5977600Y15249309D01*
X6011708Y15122013D01*
X6041107Y15071093D01*
X6077600Y15007886D01*
X6077602Y15007884D01*
X6136207Y14949279D01*
X6169692Y14887956D01*
X6164708Y14818264D01*
X6122836Y14762331D01*
X6074721Y14742731D01*
X6075158Y14741103D01*
X6067309Y14739000D01*
X6067308Y14739000D01*
X6018987Y14726053D01*
X5940012Y14704892D01*
X5825886Y14639000D01*
X5825883Y14638998D01*
X5732702Y14545817D01*
X5732700Y14545814D01*
X5666808Y14431688D01*
X5632700Y14304392D01*
X2575500Y14304392D01*
X2575500Y14359192D01*
X2541392Y14486486D01*
X2475500Y14600614D01*
X2382314Y14693800D01*
X2297650Y14742681D01*
X2268187Y14759692D01*
X2178239Y14783793D01*
X2140892Y14793800D01*
X2009108Y14793800D01*
X1881812Y14759692D01*
X1767686Y14693800D01*
X1767683Y14693798D01*
X1674502Y14600617D01*
X1674500Y14600614D01*
X1608608Y14486488D01*
X1591513Y14422686D01*
X1574500Y14359192D01*
X350000Y14359192D01*
X350000Y18415392D01*
X1930800Y18415392D01*
X1930800Y18283609D01*
X1964908Y18156313D01*
X1978781Y18132285D01*
X2030800Y18042186D01*
X2123986Y17949000D01*
X2238114Y17883108D01*
X2365408Y17849000D01*
X2365410Y17849000D01*
X2497190Y17849000D01*
X2497192Y17849000D01*
X2624486Y17883108D01*
X2738614Y17949000D01*
X2831800Y18042186D01*
X2897692Y18156314D01*
X2931800Y18283608D01*
X2931800Y18415392D01*
X2897692Y18542686D01*
X2831800Y18656814D01*
X2738614Y18750000D01*
X2662605Y18793884D01*
X2624487Y18815892D01*
X2560839Y18832946D01*
X2497192Y18850000D01*
X2365408Y18850000D01*
X2238112Y18815892D01*
X2123986Y18750000D01*
X2123983Y18749998D01*
X2030802Y18656817D01*
X2030800Y18656814D01*
X1964908Y18542688D01*
X1930800Y18415392D01*
X350000Y18415392D01*
X350000Y19667192D01*
X4962700Y19667192D01*
X4962700Y19535409D01*
X4996808Y19408113D01*
X5029754Y19351050D01*
X5062700Y19293986D01*
X5155886Y19200800D01*
X5270014Y19134908D01*
X5397308Y19100800D01*
X5397310Y19100800D01*
X5529090Y19100800D01*
X5529092Y19100800D01*
X5656386Y19134908D01*
X5770514Y19200800D01*
X5863700Y19293986D01*
X5893730Y19346001D01*
X5944297Y19394215D01*
X6001117Y19408000D01*
X12928651Y19408000D01*
X12995690Y19388315D01*
X13041445Y19335511D01*
X13051389Y19266353D01*
X13048426Y19251909D01*
X13029962Y19182998D01*
X13025700Y19167092D01*
X13025700Y19035309D01*
X13059808Y18908013D01*
X13080314Y18872497D01*
X13125700Y18793886D01*
X13218886Y18700700D01*
X13333014Y18634808D01*
X13460308Y18600700D01*
X13460310Y18600700D01*
X13592090Y18600700D01*
X13592092Y18600700D01*
X13719386Y18634808D01*
X13833514Y18700700D01*
X13926700Y18793886D01*
X13992592Y18908014D01*
X14026700Y19035308D01*
X14026700Y19167092D01*
X14003974Y19251908D01*
X14005637Y19321757D01*
X14044800Y19379619D01*
X14109028Y19407123D01*
X14123749Y19408000D01*
X14744956Y19408000D01*
X14774396Y19399356D01*
X14804383Y19392832D01*
X14809398Y19389078D01*
X14811995Y19388315D01*
X14832637Y19371681D01*
X14832646Y19371672D01*
X14866131Y19310349D01*
X14866582Y19259800D01*
X14849500Y19173923D01*
X14849500Y19173918D01*
X14849500Y19026082D01*
X14849500Y19026080D01*
X14849499Y19026080D01*
X14878340Y18881093D01*
X14878343Y18881083D01*
X14934912Y18744512D01*
X14934919Y18744499D01*
X15017048Y18621585D01*
X15017051Y18621581D01*
X15085951Y18552681D01*
X15119436Y18491358D01*
X15114452Y18421666D01*
X15085951Y18377319D01*
X15017051Y18308420D01*
X15017048Y18308416D01*
X14934919Y18185502D01*
X14934912Y18185489D01*
X14878343Y18048918D01*
X14878340Y18048908D01*
X14849500Y17903921D01*
X14849500Y17903918D01*
X14849500Y17756082D01*
X14849500Y17756080D01*
X14849499Y17756080D01*
X14878340Y17611093D01*
X14878343Y17611083D01*
X14934912Y17474512D01*
X14934919Y17474499D01*
X15017048Y17351585D01*
X15017051Y17351581D01*
X15121580Y17247052D01*
X15121584Y17247049D01*
X15244498Y17164920D01*
X15244511Y17164913D01*
X15373219Y17111601D01*
X15381087Y17108342D01*
X15381091Y17108342D01*
X15381092Y17108341D01*
X15526079Y17079500D01*
X15526082Y17079500D01*
X15673920Y17079500D01*
X15771462Y17098904D01*
X15818913Y17108342D01*
X15924547Y17152098D01*
X15955488Y17164913D01*
X15955488Y17164914D01*
X15955495Y17164916D01*
X16078416Y17247049D01*
X16182951Y17351584D01*
X16265084Y17474505D01*
X16321658Y17611087D01*
X16341966Y17713181D01*
X16350500Y17756080D01*
X16350500Y17903921D01*
X16321659Y18048908D01*
X16321658Y18048909D01*
X16321658Y18048913D01*
X16309406Y18078492D01*
X16265087Y18185489D01*
X16265080Y18185502D01*
X16182951Y18308416D01*
X16182948Y18308420D01*
X16114049Y18377319D01*
X16080564Y18438642D01*
X16085548Y18508334D01*
X16114049Y18552681D01*
X16182948Y18621581D01*
X16182951Y18621584D01*
X16265084Y18744505D01*
X16321658Y18881087D01*
X16337635Y18961406D01*
X16350500Y19026080D01*
X16350500Y19173921D01*
X16321659Y19318908D01*
X16321658Y19318909D01*
X16321658Y19318913D01*
X16290467Y19394215D01*
X16265087Y19455489D01*
X16265080Y19455502D01*
X16182951Y19578416D01*
X16182948Y19578420D01*
X16078419Y19682949D01*
X16078415Y19682952D01*
X15955501Y19765081D01*
X15955488Y19765088D01*
X15818917Y19821657D01*
X15818907Y19821660D01*
X15673920Y19850500D01*
X15673918Y19850500D01*
X15526082Y19850500D01*
X15526077Y19850500D01*
X15440200Y19833418D01*
X15370608Y19839645D01*
X15328328Y19867354D01*
X15156713Y20038969D01*
X15156708Y20038973D01*
X15076790Y20085113D01*
X15076789Y20085114D01*
X15076788Y20085114D01*
X14987644Y20109000D01*
X5574256Y20109000D01*
X5574255Y20109000D01*
X5567825Y20107278D01*
X5563147Y20106024D01*
X5531058Y20101800D01*
X5397308Y20101800D01*
X5270012Y20067692D01*
X5155886Y20001800D01*
X5155883Y20001798D01*
X5062702Y19908617D01*
X5062700Y19908614D01*
X4996808Y19794488D01*
X4962700Y19667192D01*
X350000Y19667192D01*
X350000Y20626000D01*
X369685Y20693039D01*
X422489Y20738794D01*
X474000Y20750000D01*
X35826000Y20750000D01*
X35893039Y20730315D01*
G37*
%TD.AperFunction*%
%TD*%
M02*
