%TF.GenerationSoftware,KiCad,Pcbnew,9.0.7*%
%TF.CreationDate,2026-09-28T17:22:57+02:00*%
%TF.ProjectId,main,6d61696e-2e6b-4696-9361-645f70636258,J*%
%TF.SameCoordinates,PX5f5e100PY73c6ac0*%
%TF.FileFunction,Soldermask,Bot*%
%TF.FilePolarity,Negative*%
%FSLAX46Y46*%
G04 Gerber Fmt 4.6, Leading zero omitted, Abs format (unit mm)*
G04 Created by KiCad (PCBNEW 9.0.7) date 2026-09-28 17:22:57*
%MOMM*%
%LPD*%
G01*
G04 APERTURE LIST*
G04 Aperture macros list*
%AMRoundRect*
0 Rectangle with rounded corners*
0 $1 Rounding radius*
0 $2 $3 $4 $5 $6 $7 $8 $9 X,Y pos of 4 corners*
0 Add a 4 corners polygon primitive as box body*
4,1,4,$2,$3,$4,$5,$6,$7,$8,$9,$2,$3,0*
0 Add four circle primitives for the rounded corners*
1,1,$1+$1,$2,$3*
1,1,$1+$1,$4,$5*
1,1,$1+$1,$6,$7*
1,1,$1+$1,$8,$9*
0 Add four rect primitives between the rounded corners*
20,1,$1+$1,$2,$3,$4,$5,0*
20,1,$1+$1,$4,$5,$6,$7,0*
20,1,$1+$1,$6,$7,$8,$9,0*
20,1,$1+$1,$8,$9,$2,$3,0*%
G04 Aperture macros list end*
%ADD10C,1.100000*%
%ADD11RoundRect,0.225000X0.225000X0.375000X-0.225000X0.375000X-0.225000X-0.375000X0.225000X-0.375000X0*%
%ADD12RoundRect,0.225000X0.250000X-0.225000X0.250000X0.225000X-0.250000X0.225000X-0.250000X-0.225000X0*%
%ADD13RoundRect,0.200000X0.275000X-0.200000X0.275000X0.200000X-0.275000X0.200000X-0.275000X-0.200000X0*%
%ADD14RoundRect,0.250000X0.250000X0.475000X-0.250000X0.475000X-0.250000X-0.475000X0.250000X-0.475000X0*%
%ADD15RoundRect,0.200000X0.200000X0.275000X-0.200000X0.275000X-0.200000X-0.275000X0.200000X-0.275000X0*%
%ADD16R,0.800000X0.500000*%
%ADD17R,0.800000X0.400000*%
%ADD18RoundRect,0.225000X0.225000X0.250000X-0.225000X0.250000X-0.225000X-0.250000X0.225000X-0.250000X0*%
%ADD19RoundRect,0.250000X0.475000X-0.250000X0.475000X0.250000X-0.475000X0.250000X-0.475000X-0.250000X0*%
%ADD20RoundRect,0.150000X0.512500X0.150000X-0.512500X0.150000X-0.512500X-0.150000X0.512500X-0.150000X0*%
%ADD21RoundRect,0.250000X0.300000X0.300000X-0.300000X0.300000X-0.300000X-0.300000X0.300000X-0.300000X0*%
%ADD22C,0.650000*%
%ADD23RoundRect,0.150000X-0.150000X-0.425000X0.150000X-0.425000X0.150000X0.425000X-0.150000X0.425000X0*%
%ADD24RoundRect,0.075000X-0.075000X-0.500000X0.075000X-0.500000X0.075000X0.500000X-0.075000X0.500000X0*%
%ADD25RoundRect,0.250000X-0.840000X-0.750000X0.840000X-0.750000X0.840000X0.750000X-0.840000X0.750000X0*%
%ADD26RoundRect,0.150000X0.150000X-0.512500X0.150000X0.512500X-0.150000X0.512500X-0.150000X-0.512500X0*%
%ADD27R,1.500000X2.400000*%
G04 APERTURE END LIST*
D10*
%TO.C,J5*%
X15600000Y19100000D03*
X15600000Y17830000D03*
X15600000Y16560000D03*
X15600000Y15290000D03*
X15600000Y14020000D03*
%TD*%
D11*
%TO.C,D2*%
X24650000Y6400000D03*
X21350000Y6400000D03*
%TD*%
D12*
%TO.C,C15*%
X30800000Y5625000D03*
X30800000Y7175000D03*
%TD*%
%TO.C,C18*%
X13700000Y14125000D03*
X13700000Y15675000D03*
%TD*%
D13*
%TO.C,R19*%
X26900000Y7375000D03*
X26900000Y9025000D03*
%TD*%
D14*
%TO.C,C21*%
X13450000Y6650000D03*
X11550000Y6650000D03*
%TD*%
D15*
%TO.C,R14*%
X18475000Y18200000D03*
X16825000Y18200000D03*
%TD*%
%TO.C,R21*%
X34625000Y7900000D03*
X32975000Y7900000D03*
%TD*%
%TO.C,R23*%
X2625000Y15150000D03*
X975000Y15150000D03*
%TD*%
D16*
%TO.C,RN1*%
X20100000Y11800000D03*
D17*
X20100000Y11000000D03*
X20100000Y10200000D03*
D16*
X20100000Y9400000D03*
X18300000Y9400000D03*
D17*
X18300000Y10200000D03*
X18300000Y11000000D03*
D16*
X18300000Y11800000D03*
%TD*%
D15*
%TO.C,R16*%
X23825000Y9000000D03*
X22175000Y9000000D03*
%TD*%
D14*
%TO.C,C14*%
X28550000Y5400000D03*
X26650000Y5400000D03*
%TD*%
D18*
%TO.C,C12*%
X5575000Y15150000D03*
X4025000Y15150000D03*
%TD*%
D14*
%TO.C,C17*%
X17450000Y6900000D03*
X15550000Y6900000D03*
%TD*%
D19*
%TO.C,C20*%
X4500000Y9450000D03*
X4500000Y11350000D03*
%TD*%
D15*
%TO.C,R18*%
X34625000Y10400000D03*
X32975000Y10400000D03*
%TD*%
%TO.C,R17*%
X2625000Y12400000D03*
X975000Y12400000D03*
%TD*%
D20*
%TO.C,U5*%
X30637500Y13450000D03*
X30637500Y12500000D03*
X30637500Y11550000D03*
X28362500Y11550000D03*
X28362500Y12500000D03*
X28362500Y13450000D03*
%TD*%
D15*
%TO.C,R20*%
X31225000Y8800000D03*
X29575000Y8800000D03*
%TD*%
D18*
%TO.C,C19*%
X11975000Y14900000D03*
X10425000Y14900000D03*
%TD*%
D15*
%TO.C,R28*%
X12825000Y18400000D03*
X11175000Y18400000D03*
%TD*%
%TO.C,R22*%
X34625000Y5800000D03*
X32975000Y5800000D03*
%TD*%
D20*
%TO.C,U8*%
X14637500Y12350000D03*
X14637500Y11400000D03*
X14637500Y10450000D03*
X12362500Y10450000D03*
X12362500Y11400000D03*
X12362500Y12350000D03*
%TD*%
D15*
%TO.C,R24*%
X2625000Y6900000D03*
X975000Y6900000D03*
%TD*%
D21*
%TO.C,D1*%
X4400000Y19200000D03*
X1600000Y19200000D03*
%TD*%
D15*
%TO.C,R15*%
X18475000Y15900000D03*
X16825000Y15900000D03*
%TD*%
D22*
%TO.C,J3*%
X26610000Y16445000D03*
X32390000Y16445000D03*
D23*
X26300000Y15370000D03*
X27100000Y15370000D03*
D24*
X28250000Y15370000D03*
X29250000Y15370000D03*
X29750000Y15370000D03*
X30750000Y15370000D03*
D23*
X31900000Y15370000D03*
X32700000Y15370000D03*
X32700000Y15370000D03*
X31900000Y15370000D03*
D24*
X31250000Y15370000D03*
X30250000Y15370000D03*
X28750000Y15370000D03*
X27750000Y15370000D03*
D23*
X27100000Y15370000D03*
X26300000Y15370000D03*
D25*
X24390000Y19875000D03*
X24390000Y15945000D03*
X34610000Y19875000D03*
X34610000Y15945000D03*
%TD*%
D26*
%TO.C,U4*%
X21900000Y17862500D03*
X20950000Y17862500D03*
X20000000Y17862500D03*
X20000000Y20137500D03*
X20950000Y20137500D03*
X21900000Y20137500D03*
%TD*%
D18*
%TO.C,C10*%
X21575000Y14600000D03*
X20025000Y14600000D03*
%TD*%
%TO.C,C11*%
X34575000Y12900000D03*
X33025000Y12900000D03*
%TD*%
D27*
%TO.C,L2*%
X10350000Y10100000D03*
X6650000Y10100000D03*
%TD*%
M02*
