%TF.GenerationSoftware,KiCad,Pcbnew,9.0.7*%
%TF.CreationDate,2026-09-28T17:22:57+02:00*%
%TF.ProjectId,main,6d61696e-2e6b-4696-9361-645f70636258,J*%
%TF.SameCoordinates,PX5f5e100PY73c6ac0*%
%TF.FileFunction,Legend,Top*%
%TF.FilePolarity,Positive*%
%FSLAX46Y46*%
G04 Gerber Fmt 4.6, Leading zero omitted, Abs format (unit mm)*
G04 Created by KiCad (PCBNEW 9.0.7) date 2026-09-28 17:22:57*
%MOMM*%
%LPD*%
G01*
G04 APERTURE LIST*
G04 Aperture macros list*
%AMRoundRect*
0 Rectangle with rounded corners*
0 $1 Rounding radius*
0 $2 $3 $4 $5 $6 $7 $8 $9 X,Y pos of 4 corners*
0 Add a 4 corners polygon primitive as box body*
4,1,4,$2,$3,$4,$5,$6,$7,$8,$9,$2,$3,0*
0 Add four circle primitives for the rounded corners*
1,1,$1+$1,$2,$3*
1,1,$1+$1,$4,$5*
1,1,$1+$1,$6,$7*
1,1,$1+$1,$8,$9*
0 Add four rect primitives between the rounded corners*
20,1,$1+$1,$2,$3,$4,$5,0*
20,1,$1+$1,$4,$5,$6,$7,0*
20,1,$1+$1,$6,$7,$8,$9,0*
20,1,$1+$1,$8,$9,$2,$3,0*%
G04 Aperture macros list end*
%ADD10C,0.120000*%
%ADD11C,0.150000*%
%ADD12RoundRect,0.200000X-0.200000X-0.275000X0.200000X-0.275000X0.200000X0.275000X-0.200000X0.275000X0*%
%ADD13RoundRect,0.250000X-0.250000X-0.475000X0.250000X-0.475000X0.250000X0.475000X-0.250000X0.475000X0*%
%ADD14R,1.500000X0.900000*%
%ADD15R,0.900000X1.500000*%
%ADD16C,0.600000*%
%ADD17R,3.900000X3.900000*%
%ADD18R,0.700000X1.750000*%
%ADD19R,1.450000X1.000000*%
%ADD20R,1.000000X1.550000*%
%ADD21R,0.800000X1.500000*%
%ADD22R,1.300000X1.500000*%
%ADD23R,1.500000X1.500000*%
%ADD24R,0.800000X1.400000*%
%ADD25C,1.100000*%
%ADD26RoundRect,0.225000X-0.225000X-0.250000X0.225000X-0.250000X0.225000X0.250000X-0.225000X0.250000X0*%
%ADD27C,0.650000*%
G04 APERTURE END LIST*
D10*
X14728572Y18700000D02*
X14271429Y18700000D01*
X14500001Y18700000D02*
X14500001Y19500000D01*
X14500001Y19500000D02*
X14423810Y19385715D01*
X14423810Y19385715D02*
X14347620Y19309524D01*
X14347620Y19309524D02*
X14271429Y19271429D01*
X10097620Y3500000D02*
X9830953Y3880953D01*
X9640477Y3500000D02*
X9640477Y4300000D01*
X9640477Y4300000D02*
X9945239Y4300000D01*
X9945239Y4300000D02*
X10021429Y4261905D01*
X10021429Y4261905D02*
X10059524Y4223810D01*
X10059524Y4223810D02*
X10097620Y4147619D01*
X10097620Y4147619D02*
X10097620Y4033334D01*
X10097620Y4033334D02*
X10059524Y3957143D01*
X10059524Y3957143D02*
X10021429Y3919048D01*
X10021429Y3919048D02*
X9945239Y3880953D01*
X9945239Y3880953D02*
X9640477Y3880953D01*
X10783334Y4300000D02*
X10630953Y4300000D01*
X10630953Y4300000D02*
X10554762Y4261905D01*
X10554762Y4261905D02*
X10516667Y4223810D01*
X10516667Y4223810D02*
X10440477Y4109524D01*
X10440477Y4109524D02*
X10402381Y3957143D01*
X10402381Y3957143D02*
X10402381Y3652381D01*
X10402381Y3652381D02*
X10440477Y3576191D01*
X10440477Y3576191D02*
X10478572Y3538095D01*
X10478572Y3538095D02*
X10554762Y3500000D01*
X10554762Y3500000D02*
X10707143Y3500000D01*
X10707143Y3500000D02*
X10783334Y3538095D01*
X10783334Y3538095D02*
X10821429Y3576191D01*
X10821429Y3576191D02*
X10859524Y3652381D01*
X10859524Y3652381D02*
X10859524Y3842857D01*
X10859524Y3842857D02*
X10821429Y3919048D01*
X10821429Y3919048D02*
X10783334Y3957143D01*
X10783334Y3957143D02*
X10707143Y3995238D01*
X10707143Y3995238D02*
X10554762Y3995238D01*
X10554762Y3995238D02*
X10478572Y3957143D01*
X10478572Y3957143D02*
X10440477Y3919048D01*
X10440477Y3919048D02*
X10402381Y3842857D01*
X10116668Y1076191D02*
X10078572Y1038095D01*
X10078572Y1038095D02*
X9964287Y1000000D01*
X9964287Y1000000D02*
X9888096Y1000000D01*
X9888096Y1000000D02*
X9773810Y1038095D01*
X9773810Y1038095D02*
X9697620Y1114286D01*
X9697620Y1114286D02*
X9659525Y1190476D01*
X9659525Y1190476D02*
X9621429Y1342857D01*
X9621429Y1342857D02*
X9621429Y1457143D01*
X9621429Y1457143D02*
X9659525Y1609524D01*
X9659525Y1609524D02*
X9697620Y1685715D01*
X9697620Y1685715D02*
X9773810Y1761905D01*
X9773810Y1761905D02*
X9888096Y1800000D01*
X9888096Y1800000D02*
X9964287Y1800000D01*
X9964287Y1800000D02*
X10078572Y1761905D01*
X10078572Y1761905D02*
X10116668Y1723810D01*
X10802382Y1800000D02*
X10650001Y1800000D01*
X10650001Y1800000D02*
X10573810Y1761905D01*
X10573810Y1761905D02*
X10535715Y1723810D01*
X10535715Y1723810D02*
X10459525Y1609524D01*
X10459525Y1609524D02*
X10421429Y1457143D01*
X10421429Y1457143D02*
X10421429Y1152381D01*
X10421429Y1152381D02*
X10459525Y1076191D01*
X10459525Y1076191D02*
X10497620Y1038095D01*
X10497620Y1038095D02*
X10573810Y1000000D01*
X10573810Y1000000D02*
X10726191Y1000000D01*
X10726191Y1000000D02*
X10802382Y1038095D01*
X10802382Y1038095D02*
X10840477Y1076191D01*
X10840477Y1076191D02*
X10878572Y1152381D01*
X10878572Y1152381D02*
X10878572Y1342857D01*
X10878572Y1342857D02*
X10840477Y1419048D01*
X10840477Y1419048D02*
X10802382Y1457143D01*
X10802382Y1457143D02*
X10726191Y1495238D01*
X10726191Y1495238D02*
X10573810Y1495238D01*
X10573810Y1495238D02*
X10497620Y1457143D01*
X10497620Y1457143D02*
X10459525Y1419048D01*
X10459525Y1419048D02*
X10421429Y1342857D01*
X15000000Y10071429D02*
X15647619Y10071429D01*
X15647619Y10071429D02*
X15723809Y10109524D01*
X15723809Y10109524D02*
X15761905Y10147619D01*
X15761905Y10147619D02*
X15800000Y10223810D01*
X15800000Y10223810D02*
X15800000Y10376191D01*
X15800000Y10376191D02*
X15761905Y10452381D01*
X15761905Y10452381D02*
X15723809Y10490476D01*
X15723809Y10490476D02*
X15647619Y10528572D01*
X15647619Y10528572D02*
X15000000Y10528572D01*
X15800000Y11328571D02*
X15800000Y10871428D01*
X15800000Y11100000D02*
X15000000Y11100000D01*
X15000000Y11100000D02*
X15114285Y11023809D01*
X15114285Y11023809D02*
X15190476Y10947619D01*
X15190476Y10947619D02*
X15228571Y10871428D01*
X2078572Y3000000D02*
X1811905Y3380953D01*
X1621429Y3000000D02*
X1621429Y3800000D01*
X1621429Y3800000D02*
X1926191Y3800000D01*
X1926191Y3800000D02*
X2002381Y3761905D01*
X2002381Y3761905D02*
X2040476Y3723810D01*
X2040476Y3723810D02*
X2078572Y3647619D01*
X2078572Y3647619D02*
X2078572Y3533334D01*
X2078572Y3533334D02*
X2040476Y3457143D01*
X2040476Y3457143D02*
X2002381Y3419048D01*
X2002381Y3419048D02*
X1926191Y3380953D01*
X1926191Y3380953D02*
X1621429Y3380953D01*
X2345238Y3800000D02*
X2878572Y3800000D01*
X2878572Y3800000D02*
X2535714Y3000000D01*
X7452381Y19000000D02*
X7452381Y18428572D01*
X7452381Y18428572D02*
X7414286Y18314286D01*
X7414286Y18314286D02*
X7338095Y18238095D01*
X7338095Y18238095D02*
X7223810Y18200000D01*
X7223810Y18200000D02*
X7147619Y18200000D01*
X7795238Y18923810D02*
X7833334Y18961905D01*
X7833334Y18961905D02*
X7909524Y19000000D01*
X7909524Y19000000D02*
X8100000Y19000000D01*
X8100000Y19000000D02*
X8176191Y18961905D01*
X8176191Y18961905D02*
X8214286Y18923810D01*
X8214286Y18923810D02*
X8252381Y18847619D01*
X8252381Y18847619D02*
X8252381Y18771429D01*
X8252381Y18771429D02*
X8214286Y18657143D01*
X8214286Y18657143D02*
X7757143Y18200000D01*
X7757143Y18200000D02*
X8252381Y18200000D01*
X1597620Y826191D02*
X1559524Y788095D01*
X1559524Y788095D02*
X1445239Y750000D01*
X1445239Y750000D02*
X1369048Y750000D01*
X1369048Y750000D02*
X1254762Y788095D01*
X1254762Y788095D02*
X1178572Y864286D01*
X1178572Y864286D02*
X1140477Y940476D01*
X1140477Y940476D02*
X1102381Y1092857D01*
X1102381Y1092857D02*
X1102381Y1207143D01*
X1102381Y1207143D02*
X1140477Y1359524D01*
X1140477Y1359524D02*
X1178572Y1435715D01*
X1178572Y1435715D02*
X1254762Y1511905D01*
X1254762Y1511905D02*
X1369048Y1550000D01*
X1369048Y1550000D02*
X1445239Y1550000D01*
X1445239Y1550000D02*
X1559524Y1511905D01*
X1559524Y1511905D02*
X1597620Y1473810D01*
X1864286Y1550000D02*
X2397620Y1550000D01*
X2397620Y1550000D02*
X2054762Y750000D01*
%TO.C,R6*%
X7762742Y4422500D02*
X8237258Y4422500D01*
X7762742Y3377500D02*
X8237258Y3377500D01*
%TO.C,C6*%
X7488748Y2135000D02*
X8011252Y2135000D01*
X7488748Y665000D02*
X8011252Y665000D01*
%TO.C,U1*%
X16700000Y20500000D02*
X35100000Y20500000D01*
X16700000Y1900000D02*
X16700000Y900000D01*
X16700000Y900000D02*
X18200000Y900000D01*
X35100000Y20500000D02*
X35100000Y19800000D01*
X35100000Y900000D02*
X33600000Y900000D01*
X35100000Y900000D02*
X35100000Y1900000D01*
X16700000Y19750000D02*
X16200000Y19750000D01*
X16700000Y20250000D01*
X16700000Y19750000D01*
G36*
X16700000Y19750000D02*
G01*
X16200000Y19750000D01*
X16700000Y20250000D01*
X16700000Y19750000D01*
G37*
%TO.C,R7*%
X4512742Y3922500D02*
X4987258Y3922500D01*
X4512742Y2877500D02*
X4987258Y2877500D01*
%TO.C,J2*%
X1265000Y9525000D02*
X1265000Y15825000D01*
X1265000Y5815000D02*
X1265000Y7625000D01*
X1375000Y5815000D02*
X1265000Y5815000D01*
X14135000Y10225000D02*
X14135000Y15825000D01*
X14135000Y6975000D02*
X14135000Y5815000D01*
X14135000Y5815000D02*
X2875000Y5815000D01*
D11*
%TO.C,J5*%
X15700000Y20200000D02*
G75*
G02*
X15500000Y20200000I-100000J0D01*
G01*
X15500000Y20200000D02*
G75*
G02*
X15700000Y20200000I100000J0D01*
G01*
D10*
%TO.C,C7*%
X4109420Y1660000D02*
X4390580Y1660000D01*
X4109420Y640000D02*
X4390580Y640000D01*
%TD*%
%LPC*%
D12*
%TO.C,R6*%
X7175000Y3900000D03*
X8825000Y3900000D03*
%TD*%
D13*
%TO.C,C6*%
X6800000Y1400000D03*
X8700000Y1400000D03*
%TD*%
D14*
%TO.C,U1*%
X17150000Y19110000D03*
X17150000Y17840000D03*
X17150000Y16570000D03*
X17150000Y15300000D03*
X17150000Y14030000D03*
X17150000Y12760000D03*
X17150000Y11490000D03*
X17150000Y10220000D03*
X17150000Y8950000D03*
X17150000Y7680000D03*
X17150000Y6410000D03*
X17150000Y5140000D03*
X17150000Y3870000D03*
X17150000Y2600000D03*
D15*
X18915000Y1350000D03*
X20185000Y1350000D03*
X21455000Y1350000D03*
X22725000Y1350000D03*
X23995000Y1350000D03*
X25265000Y1350000D03*
X26535000Y1350000D03*
X27805000Y1350000D03*
X29075000Y1350000D03*
X30345000Y1350000D03*
X31615000Y1350000D03*
X32885000Y1350000D03*
D14*
X34650000Y2600000D03*
X34650000Y3870000D03*
X34650000Y5140000D03*
X34650000Y6410000D03*
X34650000Y7680000D03*
X34650000Y8950000D03*
X34650000Y10220000D03*
X34650000Y11490000D03*
X34650000Y12760000D03*
X34650000Y14030000D03*
X34650000Y15300000D03*
X34650000Y16570000D03*
X34650000Y17840000D03*
X34650000Y19110000D03*
D16*
X23000000Y12090000D03*
X23000000Y10690000D03*
X23700000Y12790000D03*
X23700000Y11390000D03*
X23700000Y9990000D03*
X24400000Y12090000D03*
D17*
X24400000Y11390000D03*
D16*
X24400000Y10690000D03*
X25100000Y12790000D03*
X25100000Y11390000D03*
X25100000Y9990000D03*
X25800000Y12090000D03*
X25800000Y10690000D03*
%TD*%
D12*
%TO.C,R7*%
X3925000Y3400000D03*
X5575000Y3400000D03*
%TD*%
D18*
%TO.C,J2*%
X4525000Y16950000D03*
X5625000Y16950000D03*
X6725000Y16950000D03*
X7825000Y16950000D03*
X8925000Y16950000D03*
X10025000Y16950000D03*
X11125000Y16950000D03*
X12225000Y16950000D03*
D19*
X13350000Y7725000D03*
D20*
X2125000Y6150000D03*
D21*
X13675000Y9225000D03*
D22*
X13425000Y16825000D03*
D23*
X2075000Y16825000D03*
D24*
X1725000Y8575000D03*
%TD*%
D25*
%TO.C,J5*%
X15600000Y19100000D03*
X15600000Y17830000D03*
X15600000Y16560000D03*
X15600000Y15290000D03*
X15600000Y14020000D03*
%TD*%
D26*
%TO.C,C7*%
X3475000Y1150000D03*
X5025000Y1150000D03*
%TD*%
D27*
%TO.C,J3*%
X26610000Y16445000D03*
X32390000Y16445000D03*
%TD*%
%LPD*%
M02*
